<svg width="24" height="25" viewBox="0 0 24 25" fill="none" xmlns="http://www.w3.org/2000/svg">
<rect x="0.104004" y="0.142395" width="23.8239" height="24.6108" rx="4.29994" fill="#327053"/>
<path d="M16.8008 17.9167H7.23047V10.3971H16.8008M14.75 5.612V6.97918H9.28124V5.612H7.91406V6.97918H7.23047C6.47168 6.97918 5.86328 7.58758 5.86328 8.34637V17.9167C5.86328 18.2793 6.00732 18.627 6.26372 18.8834C6.52012 19.1398 6.86787 19.2838 7.23047 19.2838H16.8008C17.1634 19.2838 17.5111 19.1398 17.7675 18.8834C18.0239 18.627 18.1679 18.2793 18.1679 17.9167V8.34637C18.1679 7.58758 17.5527 6.97918 16.8008 6.97918H16.1172V5.612" fill="white"/>
</svg>
