<svg width="18" height="18" viewBox="0 0 18 18" fill="none" xmlns="http://www.w3.org/2000/svg">
<path d="M7 0.140015C8.72391 0.140015 10.3772 0.824834 11.5962 2.04382C12.8152 3.26281 13.5 4.91611 13.5 6.64001C13.5 8.25001 12.91 9.73001 11.94 10.87L12.21 11.14H13L18 16.14L16.5 17.64L11.5 12.64V11.85L11.23 11.58C10.09 12.55 8.61 13.14 7 13.14C5.27609 13.14 3.62279 12.4552 2.40381 11.2362C1.18482 10.0172 0.5 8.36392 0.5 6.64001C0.5 4.91611 1.18482 3.26281 2.40381 2.04382C3.62279 0.824834 5.27609 0.140015 7 0.140015ZM7 2.14001C4.5 2.14001 2.5 4.14001 2.5 6.64001C2.5 9.14001 4.5 11.14 7 11.14C9.5 11.14 11.5 9.14001 11.5 6.64001C11.5 4.14001 9.5 2.14001 7 2.14001Z" fill="#327053"/>
</svg>
