<svg xmlns="http://www.w3.org/2000/svg" viewBox="-0.5 -0.5 16 16" fill="none" stroke="#177256" stroke-linecap="round" stroke-linejoin="round" id="Report-Search--Streamline-Tabler.svg" height="16" width="16"><desc>Report Search Streamline Icon: https://streamlinehq.com</desc><path d="M4.35 2.25H2.9499999999999997C2.1768125 2.25 1.55 2.8768124999999998 1.55 3.65V12.05C1.55 12.82325 2.17675 13.4500625 2.9499999999999997 13.45H6.937875" stroke-width="1"></path><path d="M11.35 7.1499999999999995V3.65C11.35 2.8768124999999998 10.7231875 2.25 9.95 2.25H8.55" stroke-width="1"></path><path d="M4.35 2.25C4.35 1.4768124999999999 4.9768125 0.8500000000000001 5.75 0.8500000000000001H7.1499999999999995C7.923187499999999 0.8500000000000001 8.55 1.4768124999999999 8.55 2.25H8.55C8.55 3.0231875 7.923187499999999 3.65 7.1499999999999995 3.65H5.75C4.9768125 3.65 4.35 3.0231875 4.35 2.25Z" stroke-width="1"></path><path d="M4.35 6.45H7.1499999999999995" stroke-width="1"></path><path d="M4.35 9.25H6.45" stroke-width="1"></path><path d="M8.55 11C8.55 12.347125000000002 10.0083125 13.189124999999999 11.174999999999999 12.5155625C11.716437500000001 12.202937499999999 12.05 11.625187500000001 12.05 11C12.05 9.652875 10.591687499999999 8.810875 9.425 9.4844375C8.8835625 9.7970625 8.55 10.374812499999999 8.55 11" stroke-width="1"></path><path d="M11.7 12.4L13.45 14.15" stroke-width="1"></path></svg>