<svg xmlns="http://www.w3.org/2000/svg" xmlns:xlink="http://www.w3.org/1999/xlink" width="1080" zoomAndPan="magnify" viewBox="0 0 810 809.999993" height="1080" preserveAspectRatio="xMidYMid meet" version="1.0"><defs><clipPath id="a551323bf7"><path d="M 126 268 L 590 268 L 590 643.742188 L 126 643.742188 Z M 126 268 " clip-rule="nonzero"/></clipPath><clipPath id="aed2b86ac4"><path d="M 364.25 340.855469 L 795.5 340.855469 L 795.5 772.105469 L 364.25 772.105469 Z M 364.25 340.855469 " clip-rule="nonzero"/></clipPath><clipPath id="753b11fd50"><path d="M 388.5625 365.167969 L 771.0625 365.167969 L 771.0625 747.667969 L 388.5625 747.667969 Z M 388.5625 365.167969 " clip-rule="nonzero"/></clipPath></defs><path fill="#0f6027" d="M 150.660156 399.203125 C 152.101562 399.054688 153.550781 398.910156 154.992188 398.839844 C 170.757812 396.738281 184.640625 389.074219 195.269531 377.289062 C 203.875 367.890625 209.515625 356.539062 212.769531 343.234375 C 215.511719 332.824219 216.023438 321.179688 214.289062 309.683594 C 211.683594 286.6875 202.648438 264.996094 187.242188 245.910156 C 182.398438 239.835938 176.828125 233.761719 170.542969 228.484375 C 156.511719 216.550781 142.125 209.753906 126.578125 205.996094 C 116.308594 203.972656 106.769531 203.246094 96.789062 204.839844 C 81.027344 207.585938 67.792969 214.527344 57.160156 226.242188 C 48.558594 235.714844 42.34375 248.515625 39.878906 262.539062 C 38.292969 269.917969 37.5 277.21875 38.074219 284.449219 L 38.21875 286.617188 C 38.4375 288.789062 38.578125 290.957031 38.800781 293.125 L 38.941406 295.21875 C 41.039062 311.78125 46.675781 327.253906 55.136719 341.789062 C 61.863281 352.847656 70.03125 363.046875 79.4375 371.722656 C 92.742188 383.652344 107.203125 391.894531 122.746094 395.65625 C 132.503906 399.203125 141.980469 399.847656 150.660156 399.203125 " fill-opacity="1" fill-rule="nonzero"/><path fill="#0f6027" d="M 174.664062 178.085938 C 179 195.441406 186.234375 210.621094 195.632812 223.640625 C 205.027344 236.652344 215.152344 246.050781 227.445312 253.28125 C 237.570312 259.792969 248.414062 263.410156 259.984375 264.128906 L 265.769531 264.128906 C 277.339844 264.128906 288.183594 261.238281 297.582031 254.730469 C 306.988281 249.671875 315.660156 241.71875 322.890625 232.3125 C 333.015625 219.300781 339.519531 203.394531 342.417969 184.59375 C 343.136719 176.636719 343.859375 168.683594 343.859375 160.007812 C 343.859375 153.503906 343.136719 146.996094 342.417969 140.484375 C 340.96875 128.917969 338.078125 118.070312 333.738281 107.226562 C 326.507812 89.148438 316.386719 73.960938 303.371094 62.398438 C 293.96875 53.71875 283.84375 47.210938 273 43.59375 C 259.261719 38.53125 245.523438 37.8125 231.785156 41.421875 C 218.773438 44.3125 207.203125 51.546875 197.078125 62.398438 C 188.398438 71.796875 182.617188 81.917969 177.554688 94.207031 C 172.496094 108.667969 169.597656 123.855469 169.597656 141.207031 C 169.597656 144.097656 170.324219 146.996094 170.324219 151.332031 C 171.046875 160.007812 172.496094 169.40625 174.664062 178.085938 " fill-opacity="1" fill-rule="nonzero"/><path fill="#0f6027" d="M 380.015625 212.070312 C 385.074219 226.53125 392.304688 238.101562 402.425781 247.5 C 415.445312 259.792969 430.632812 267.027344 447.984375 267.746094 L 452.324219 267.746094 C 461 267.746094 468.953125 265.578125 477.628906 265.578125 C 489.921875 260.511719 500.769531 253.28125 511.617188 243.160156 C 522.460938 232.3125 531.136719 220.023438 537.644531 206.285156 C 547.046875 186.761719 552.105469 166.515625 552.828125 144.824219 C 552.828125 132.535156 552.105469 120.238281 549.214844 109.394531 C 545.597656 94.207031 540.535156 81.917969 532.585938 71.070312 C 519.566406 52.992188 502.210938 42.871094 481.96875 39.980469 C 481.242188 39.980469 481.242188 39.980469 480.519531 39.980469 L 463.890625 39.980469 C 454.492188 41.421875 444.371094 44.3125 435.691406 49.378906 C 424.121094 55.886719 413.277344 65.289062 403.875 76.855469 C 393.753906 89.148438 386.523438 103.609375 380.738281 119.515625 C 375.675781 133.976562 373.507812 149.164062 372.785156 164.347656 C 372.785156 170.855469 372.785156 177.363281 373.507812 183.871094 C 374.953125 193.992188 377.125 203.394531 380.015625 212.070312 " fill-opacity="1" fill-rule="nonzero"/><g clip-path="url(#a551323bf7)"><path fill="#0f6027" d="M 562.15625 456.46875 C 552.757812 442.730469 541.1875 429.714844 527.449219 418.144531 C 518.050781 409.46875 508.648438 400.070312 500.699219 389.945312 C 492.019531 379.101562 484.0625 367.53125 477.554688 357.40625 L 472.496094 349.453125 C 467.433594 341.496094 462.371094 334.269531 457.3125 326.316406 C 449.355469 314.746094 442.125 305.347656 434.171875 298.117188 C 420.433594 285.097656 404.527344 276.421875 386.449219 272.085938 C 374.878906 269.191406 362.589844 268.46875 351.019531 268.46875 C 340.171875 268.46875 329.328125 270.636719 319.203125 274.976562 C 306.910156 280.039062 296.0625 287.996094 284.5 298.835938 C 277.992188 305.347656 270.761719 313.296875 263.53125 322.699219 C 256.296875 332.097656 249.792969 341.496094 243.285156 350.902344 L 239.664062 356.683594 C 230.992188 368.253906 222.3125 381.265625 212.1875 392.839844 C 203.515625 402.960938 195.558594 410.914062 187.605469 418.144531 C 177.480469 426.820312 167.359375 436.949219 159.40625 447.789062 C 147.835938 462.976562 139.160156 479.605469 133.378906 496.238281 C 129.761719 507.804688 127.589844 519.375 126.867188 530.945312 C 126.148438 541.066406 126.867188 551.914062 129.039062 561.3125 C 134.820312 588.070312 148.558594 609.761719 170.976562 625.667969 C 183.988281 635.066406 198.449219 640.851562 215.082031 642.296875 C 217.253906 643.019531 218.699219 643.019531 220.867188 643.019531 L 231.714844 643.019531 C 238.222656 643.019531 244.726562 642.296875 249.792969 641.578125 C 264.253906 638.679688 278.710938 635.066406 291.730469 631.449219 L 292.453125 631.449219 C 304.742188 628.558594 317.039062 624.941406 329.328125 622.773438 C 334.390625 622.050781 340.898438 620.601562 347.40625 620.601562 C 356.078125 620.601562 364.035156 620.601562 371.265625 621.328125 C 381.386719 622.773438 392.957031 624.941406 405.246094 627.832031 C 411.035156 629.28125 417.542969 631.449219 423.328125 632.898438 C 431.28125 635.066406 439.957031 637.238281 448.632812 639.402344 C 457.3125 641.578125 466.710938 643.742188 476.832031 643.742188 L 494.1875 643.742188 C 495.632812 643.742188 496.359375 643.019531 497.800781 640.851562 C 502.140625 640.851562 507.203125 640.128906 511.539062 638.679688 C 523.109375 635.789062 534.679688 630.726562 545.527344 622.773438 C 559.988281 612.652344 571.558594 599.632812 578.789062 584.449219 C 586.738281 567.820312 590.355469 550.464844 589.632812 530.945312 C 588.914062 520.097656 586.738281 507.804688 582.398438 496.238281 C 578.066406 482.496094 571.558594 469.480469 562.15625 456.46875 " fill-opacity="1" fill-rule="nonzero"/></g><path fill="#0f6027" d="M 688.621094 262.539062 C 686.164062 248.515625 679.941406 235.714844 671.265625 226.242188 C 660.640625 214.527344 647.480469 207.585938 631.714844 204.839844 C 621.664062 203.246094 612.191406 203.972656 601.855469 205.996094 C 586.304688 209.753906 571.992188 216.550781 557.964844 228.484375 C 551.671875 233.761719 546.101562 239.835938 541.257812 245.910156 C 525.859375 264.996094 516.816406 286.6875 514.144531 309.683594 C 512.480469 321.179688 512.988281 332.824219 515.734375 343.234375 C 518.988281 356.539062 524.558594 367.890625 533.230469 377.289062 C 543.863281 389.074219 557.746094 396.738281 573.507812 398.839844 C 574.953125 398.910156 576.402344 399.054688 577.847656 399.203125 C 586.527344 399.847656 595.996094 399.203125 605.683594 395.65625 C 621.230469 391.894531 635.695312 383.652344 649.070312 371.722656 C 658.46875 363.046875 666.570312 352.847656 673.292969 341.789062 C 681.75 327.253906 687.390625 311.78125 689.488281 295.21875 L 689.707031 293.125 C 689.851562 290.957031 690.070312 288.789062 690.210938 286.617188 L 690.429688 284.449219 C 691.007812 277.21875 690.140625 269.917969 688.621094 262.539062 " fill-opacity="1" fill-rule="nonzero"/><g clip-path="url(#aed2b86ac4)"><path fill="#ffffff" d="M 795.492188 556.476562 C 795.492188 560.003906 795.40625 563.53125 795.234375 567.054688 C 795.058594 570.582031 794.800781 574.097656 794.453125 577.609375 C 794.109375 581.121094 793.675781 584.625 793.160156 588.113281 C 792.640625 591.605469 792.039062 595.082031 791.347656 598.542969 C 790.660156 602.003906 789.886719 605.445312 789.03125 608.867188 C 788.171875 612.292969 787.230469 615.691406 786.207031 619.066406 C 785.183594 622.445312 784.078125 625.792969 782.886719 629.117188 C 781.699219 632.441406 780.429688 635.730469 779.078125 638.992188 C 777.726562 642.25 776.300781 645.476562 774.789062 648.667969 C 773.28125 651.855469 771.695312 655.007812 770.03125 658.121094 C 768.367188 661.230469 766.628906 664.300781 764.816406 667.328125 C 763 670.355469 761.113281 673.335938 759.152344 676.269531 C 757.191406 679.203125 755.160156 682.085938 753.058594 684.921875 C 750.957031 687.757812 748.785156 690.539062 746.546875 693.265625 C 744.308594 695.992188 742.003906 698.664062 739.636719 701.277344 C 737.265625 703.894531 734.832031 706.449219 732.339844 708.945312 C 729.84375 711.4375 727.289062 713.871094 724.671875 716.242188 C 722.058594 718.609375 719.386719 720.914062 716.660156 723.152344 C 713.929688 725.394531 711.152344 727.5625 708.316406 729.664062 C 705.480469 731.765625 702.597656 733.796875 699.664062 735.757812 C 696.730469 737.71875 693.75 739.605469 690.722656 741.421875 C 687.695312 743.234375 684.625 744.972656 681.515625 746.636719 C 678.402344 748.300781 675.25 749.886719 672.058594 751.394531 C 668.871094 752.90625 665.644531 754.335938 662.386719 755.683594 C 659.125 757.035156 655.832031 758.304688 652.511719 759.492188 C 649.1875 760.683594 645.839844 761.789062 642.460938 762.8125 C 639.085938 763.835938 635.683594 764.777344 632.261719 765.636719 C 628.839844 766.492188 625.398438 767.265625 621.9375 767.953125 C 618.476562 768.644531 615 769.246094 611.507812 769.765625 C 608.019531 770.28125 604.515625 770.714844 601.003906 771.058594 C 597.492188 771.40625 593.976562 771.664062 590.449219 771.839844 C 586.925781 772.011719 583.398438 772.097656 579.871094 772.097656 C 576.339844 772.097656 572.816406 772.011719 569.289062 771.839844 C 565.765625 771.664062 562.246094 771.40625 558.734375 771.058594 C 555.222656 770.714844 551.722656 770.28125 548.230469 769.765625 C 544.742188 769.246094 541.265625 768.644531 537.804688 767.953125 C 534.34375 767.265625 530.902344 766.492188 527.480469 765.636719 C 524.054688 764.777344 520.65625 763.835938 517.277344 762.8125 C 513.902344 761.789062 510.550781 760.683594 507.230469 759.492188 C 503.90625 758.304688 500.617188 757.035156 497.355469 755.683594 C 494.09375 754.335938 490.871094 752.90625 487.679688 751.394531 C 484.488281 749.886719 481.339844 748.300781 478.226562 746.636719 C 475.113281 744.972656 472.046875 743.234375 469.019531 741.421875 C 465.992188 739.605469 463.011719 737.71875 460.078125 735.757812 C 457.144531 733.796875 454.257812 731.765625 451.425781 729.664062 C 448.589844 727.5625 445.808594 725.394531 443.082031 723.152344 C 440.355469 720.914062 437.683594 718.609375 435.066406 716.242188 C 432.453125 713.871094 429.898438 711.4375 427.402344 708.945312 C 424.90625 706.449219 422.476562 703.894531 420.105469 701.277344 C 417.734375 698.664062 415.429688 695.992188 413.191406 693.265625 C 410.953125 690.539062 408.785156 687.757812 406.679688 684.921875 C 404.578125 682.085938 402.546875 679.203125 400.585938 676.269531 C 398.628906 673.335938 396.738281 670.355469 394.925781 667.328125 C 393.109375 664.300781 391.371094 661.230469 389.710938 658.121094 C 388.046875 655.007812 386.460938 651.855469 384.949219 648.667969 C 383.441406 645.476562 382.011719 642.25 380.660156 638.992188 C 379.3125 635.730469 378.042969 632.441406 376.851562 629.117188 C 375.664062 625.792969 374.558594 622.445312 373.535156 619.066406 C 372.507812 615.691406 371.566406 612.292969 370.710938 608.867188 C 369.851562 605.445312 369.082031 602.003906 368.390625 598.542969 C 367.703125 595.082031 367.101562 591.605469 366.582031 588.113281 C 366.066406 584.625 365.632812 581.121094 365.285156 577.609375 C 364.941406 574.097656 364.679688 570.582031 364.507812 567.054688 C 364.335938 563.53125 364.25 560.003906 364.25 556.476562 C 364.25 552.949219 364.335938 549.421875 364.507812 545.894531 C 364.679688 542.371094 364.941406 538.851562 365.285156 535.339844 C 365.632812 531.828125 366.066406 528.328125 366.582031 524.839844 C 367.101562 521.347656 367.703125 517.871094 368.390625 514.410156 C 369.082031 510.949219 369.851562 507.507812 370.710938 504.085938 C 371.566406 500.660156 372.507812 497.261719 373.535156 493.882812 C 374.558594 490.507812 375.664062 487.15625 376.851562 483.835938 C 378.042969 480.511719 379.3125 477.222656 380.660156 473.960938 C 382.011719 470.703125 383.441406 467.476562 384.949219 464.285156 C 386.460938 461.097656 388.046875 457.945312 389.710938 454.832031 C 391.371094 451.722656 393.109375 448.652344 394.925781 445.625 C 396.738281 442.597656 398.628906 439.617188 400.585938 436.683594 C 402.546875 433.75 404.578125 430.863281 406.679688 428.03125 C 408.785156 425.195312 410.953125 422.414062 413.191406 419.6875 C 415.429688 416.960938 417.734375 414.289062 420.105469 411.671875 C 422.476562 409.058594 424.90625 406.503906 427.402344 404.007812 C 429.898438 401.511719 432.453125 399.082031 435.066406 396.710938 C 437.683594 394.339844 440.355469 392.035156 443.082031 389.796875 C 445.808594 387.558594 448.589844 385.390625 451.425781 383.289062 C 454.257812 381.183594 457.144531 379.152344 460.078125 377.191406 C 463.011719 375.234375 465.992188 373.34375 469.019531 371.53125 C 472.046875 369.71875 475.113281 367.976562 478.226562 366.316406 C 481.339844 364.652344 484.488281 363.066406 487.679688 361.554688 C 490.871094 360.046875 494.09375 358.617188 497.355469 357.269531 C 500.617188 355.917969 503.90625 354.648438 507.230469 353.457031 C 510.550781 352.269531 513.902344 351.164062 517.277344 350.140625 C 520.65625 349.113281 524.054688 348.175781 527.480469 347.316406 C 530.902344 346.460938 534.34375 345.6875 537.804688 344.996094 C 541.265625 344.308594 544.742188 343.707031 548.230469 343.1875 C 551.722656 342.671875 555.222656 342.238281 558.734375 341.894531 C 562.246094 341.546875 565.765625 341.289062 569.289062 341.113281 C 572.816406 340.941406 576.339844 340.855469 579.871094 340.855469 C 583.398438 340.855469 586.925781 340.941406 590.449219 341.113281 C 593.976562 341.289062 597.492188 341.546875 601.003906 341.894531 C 604.515625 342.238281 608.019531 342.671875 611.507812 343.1875 C 615 343.707031 618.476562 344.308594 621.9375 344.996094 C 625.398438 345.6875 628.839844 346.460938 632.261719 347.316406 C 635.683594 348.175781 639.085938 349.113281 642.460938 350.140625 C 645.839844 351.164062 649.1875 352.269531 652.511719 353.457031 C 655.832031 354.648438 659.125 355.917969 662.386719 357.269531 C 665.644531 358.617188 668.871094 360.046875 672.058594 361.554688 C 675.25 363.066406 678.402344 364.652344 681.515625 366.316406 C 684.625 367.976562 687.695312 369.71875 690.722656 371.53125 C 693.75 373.34375 696.730469 375.234375 699.664062 377.191406 C 702.597656 379.152344 705.480469 381.183594 708.316406 383.289062 C 711.152344 385.390625 713.929688 387.558594 716.660156 389.796875 C 719.386719 392.035156 722.058594 394.339844 724.671875 396.710938 C 727.289062 399.082031 729.84375 401.511719 732.339844 404.007812 C 734.832031 406.503906 737.265625 409.058594 739.636719 411.671875 C 742.003906 414.289062 744.308594 416.960938 746.546875 419.6875 C 748.785156 422.414062 750.957031 425.195312 753.058594 428.03125 C 755.160156 430.863281 757.191406 433.75 759.152344 436.683594 C 761.113281 439.617188 763 442.597656 764.816406 445.625 C 766.628906 448.652344 768.367188 451.722656 770.03125 454.832031 C 771.695312 457.945312 773.28125 461.097656 774.789062 464.285156 C 776.300781 467.476562 777.726562 470.703125 779.078125 473.960938 C 780.429688 477.222656 781.699219 480.511719 782.886719 483.835938 C 784.078125 487.15625 785.183594 490.507812 786.207031 493.882812 C 787.230469 497.261719 788.171875 500.660156 789.03125 504.085938 C 789.886719 507.507812 790.660156 510.949219 791.347656 514.410156 C 792.039062 517.871094 792.640625 521.347656 793.160156 524.839844 C 793.675781 528.328125 794.109375 531.828125 794.453125 535.339844 C 794.800781 538.851562 795.058594 542.371094 795.230469 545.894531 C 795.40625 549.421875 795.492188 552.949219 795.492188 556.476562 Z M 795.492188 556.476562 " fill-opacity="1" fill-rule="nonzero"/></g><g clip-path="url(#753b11fd50)"><path fill="#0f6027" d="M 769.636719 588.140625 C 770.425781 562.335938 770.425781 562.285156 771.214844 536.492188 L 731.257812 520.910156 C 725.492188 505.691406 722.613281 498.054688 716.847656 482.835938 L 736.4375 444.667969 C 718.738281 425.921875 718.691406 425.875 700.996094 407.074219 L 661.761719 424.289062 L 624.695312 407.554688 L 611.535156 366.742188 L 559.933594 365.167969 L 544.304688 405.125 C 529.132812 410.886719 521.449219 413.769531 506.289062 419.535156 L 468.117188 399.964844 C 449.316406 417.601562 449.269531 417.660156 430.46875 435.347656 L 447.683594 474.621094 C 441.054688 489.417969 437.683594 496.902344 430.996094 511.6875 L 390.136719 524.859375 C 389.347656 550.652344 389.347656 550.699219 388.5625 576.449219 L 428.519531 592.089844 C 434.28125 607.25 437.164062 614.933594 442.929688 630.152344 L 423.359375 668.273438 C 441.054688 687.0625 441.101562 687.121094 458.742188 705.914062 L 498.015625 688.699219 C 512.867188 695.335938 520.34375 698.699219 535.136719 705.386719 L 548.25 746.246094 L 599.917969 747.820312 L 615.5 707.863281 C 630.71875 702.097656 638.347656 699.21875 653.566406 693.453125 L 691.734375 713.042969 L 729.328125 677.660156 L 712.109375 638.386719 C 718.835938 623.589844 722.167969 616.058594 728.855469 601.261719 Z M 579.886719 668.753906 C 578.050781 668.753906 576.214844 668.707031 574.378906 668.617188 C 572.546875 668.527344 570.714844 668.390625 568.886719 668.210938 C 567.058594 668.03125 565.234375 667.804688 563.417969 667.535156 C 561.601562 667.265625 559.792969 666.953125 557.988281 666.59375 C 556.1875 666.234375 554.398438 665.832031 552.613281 665.386719 C 550.832031 664.941406 549.0625 664.449219 547.304688 663.917969 C 545.546875 663.382812 543.804688 662.808594 542.074219 662.1875 C 540.34375 661.570312 538.632812 660.910156 536.933594 660.207031 C 535.238281 659.503906 533.558594 658.757812 531.898438 657.972656 C 530.238281 657.1875 528.597656 656.363281 526.976562 655.496094 C 525.355469 654.628906 523.757812 653.722656 522.183594 652.78125 C 520.609375 651.835938 519.054688 650.851562 517.527344 649.832031 C 516 648.8125 514.5 647.753906 513.023438 646.660156 C 511.550781 645.566406 510.101562 644.433594 508.683594 643.269531 C 507.261719 642.105469 505.871094 640.90625 504.511719 639.671875 C 503.148438 638.4375 501.820312 637.171875 500.519531 635.871094 C 499.222656 634.574219 497.957031 633.242188 496.722656 631.882812 C 495.488281 630.519531 494.289062 629.128906 493.125 627.710938 C 491.957031 626.289062 490.828125 624.839844 489.734375 623.367188 C 488.640625 621.890625 487.582031 620.390625 486.5625 618.863281 C 485.542969 617.332031 484.558594 615.78125 483.613281 614.207031 C 482.671875 612.632812 481.765625 611.03125 480.898438 609.414062 C 480.035156 607.792969 479.207031 606.152344 478.421875 604.492188 C 477.636719 602.832031 476.894531 601.152344 476.191406 599.457031 C 475.488281 597.757812 474.828125 596.042969 474.207031 594.316406 C 473.589844 592.585938 473.011719 590.839844 472.480469 589.082031 C 471.945312 587.324219 471.457031 585.554688 471.011719 583.773438 C 470.5625 581.992188 470.164062 580.199219 469.804688 578.398438 C 469.445312 576.597656 469.132812 574.789062 468.863281 572.96875 C 468.59375 571.152344 468.367188 569.332031 468.1875 567.503906 C 468.007812 565.675781 467.871094 563.84375 467.78125 562.007812 C 467.691406 560.171875 467.648438 558.335938 467.648438 556.5 C 467.648438 554.664062 467.691406 552.828125 467.78125 550.992188 C 467.875 549.15625 468.007812 547.328125 468.1875 545.5 C 468.367188 543.671875 468.59375 541.847656 468.863281 540.03125 C 469.132812 538.214844 469.445312 536.402344 469.804688 534.601562 C 470.164062 532.800781 470.566406 531.007812 471.011719 529.226562 C 471.457031 527.445312 471.949219 525.675781 472.480469 523.917969 C 473.015625 522.160156 473.589844 520.414062 474.210938 518.6875 C 474.828125 516.957031 475.488281 515.242188 476.191406 513.546875 C 476.894531 511.847656 477.640625 510.167969 478.425781 508.507812 C 479.210938 506.847656 480.035156 505.207031 480.902344 503.589844 C 481.769531 501.96875 482.671875 500.371094 483.617188 498.792969 C 484.5625 497.21875 485.546875 495.667969 486.566406 494.140625 C 487.585938 492.613281 488.644531 491.109375 489.738281 489.636719 C 490.832031 488.160156 491.960938 486.710938 493.128906 485.292969 C 494.292969 483.871094 495.492188 482.480469 496.726562 481.121094 C 497.960938 479.761719 499.226562 478.429688 500.523438 477.128906 C 501.824219 475.832031 503.152344 474.566406 504.515625 473.332031 C 505.875 472.097656 507.265625 470.898438 508.6875 469.734375 C 510.105469 468.566406 511.554688 467.4375 513.03125 466.34375 C 514.503906 465.25 516.007812 464.191406 517.535156 463.171875 C 519.0625 462.152344 520.613281 461.167969 522.1875 460.222656 C 523.765625 459.28125 525.363281 458.375 526.980469 457.507812 C 528.601562 456.640625 530.242188 455.816406 531.902344 455.03125 C 533.5625 454.246094 535.242188 453.5 536.941406 452.796875 C 538.636719 452.097656 540.351562 451.433594 542.078125 450.816406 C 543.808594 450.195312 545.554688 449.621094 547.3125 449.085938 C 549.070312 448.554688 550.839844 448.066406 552.621094 447.617188 C 554.402344 447.171875 556.195312 446.769531 557.996094 446.410156 C 559.796875 446.050781 561.605469 445.738281 563.425781 445.46875 C 565.242188 445.199219 567.0625 444.972656 568.890625 444.792969 C 570.71875 444.613281 572.550781 444.480469 574.386719 444.390625 C 576.222656 444.296875 578.058594 444.253906 579.894531 444.253906 C 581.730469 444.253906 583.566406 444.296875 585.402344 444.386719 C 587.238281 444.480469 589.066406 444.613281 590.894531 444.792969 C 592.722656 444.972656 594.546875 445.199219 596.363281 445.46875 C 598.179688 445.738281 599.992188 446.050781 601.792969 446.410156 C 603.59375 446.769531 605.386719 447.171875 607.167969 447.617188 C 608.949219 448.0625 610.71875 448.550781 612.476562 449.085938 C 614.234375 449.617188 615.980469 450.195312 617.710938 450.8125 C 619.4375 451.433594 621.152344 452.09375 622.847656 452.796875 C 624.546875 453.5 626.226562 454.242188 627.886719 455.027344 C 629.546875 455.8125 631.1875 456.640625 632.808594 457.503906 C 634.425781 458.371094 636.023438 459.277344 637.601562 460.222656 C 639.175781 461.164062 640.726562 462.148438 642.253906 463.167969 C 643.78125 464.1875 645.285156 465.246094 646.761719 466.339844 C 648.234375 467.433594 649.683594 468.5625 651.101562 469.730469 C 652.523438 470.894531 653.914062 472.09375 655.273438 473.328125 C 656.636719 474.5625 657.964844 475.828125 659.265625 477.125 C 660.566406 478.425781 661.832031 479.753906 663.066406 481.117188 C 664.296875 482.476562 665.496094 483.867188 666.664062 485.289062 C 667.828125 486.707031 668.957031 488.15625 670.054688 489.628906 C 671.148438 491.105469 672.207031 492.609375 673.226562 494.132812 C 674.246094 495.660156 675.230469 497.214844 676.171875 498.789062 C 677.117188 500.363281 678.023438 501.960938 678.890625 503.582031 C 679.753906 505.203125 680.582031 506.84375 681.367188 508.503906 C 682.152344 510.164062 682.898438 511.84375 683.601562 513.539062 C 684.304688 515.238281 684.964844 516.949219 685.582031 518.679688 C 686.203125 520.410156 686.777344 522.152344 687.3125 523.910156 C 687.84375 525.667969 688.335938 527.4375 688.78125 529.21875 C 689.226562 531.003906 689.628906 532.792969 689.988281 534.597656 C 690.347656 536.398438 690.660156 538.207031 690.929688 540.023438 C 691.199219 541.839844 691.425781 543.664062 691.605469 545.492188 C 691.785156 547.320312 691.921875 549.152344 692.011719 550.984375 C 692.101562 552.820312 692.148438 554.65625 692.148438 556.492188 C 692.148438 558.332031 692.101562 560.167969 692.011719 562 C 691.921875 563.835938 691.785156 565.667969 691.605469 567.496094 C 691.421875 569.324219 691.199219 571.148438 690.929688 572.964844 C 690.660156 574.78125 690.34375 576.589844 689.984375 578.390625 C 689.625 580.195312 689.222656 581.984375 688.777344 583.769531 C 688.332031 585.550781 687.839844 587.320312 687.308594 589.078125 C 686.773438 590.835938 686.195312 592.578125 685.578125 594.308594 C 684.957031 596.039062 684.296875 597.753906 683.59375 599.449219 C 682.890625 601.144531 682.148438 602.824219 681.359375 604.484375 C 680.574219 606.144531 679.75 607.785156 678.882812 609.40625 C 678.015625 611.027344 677.113281 612.625 676.167969 614.199219 C 675.222656 615.777344 674.238281 617.328125 673.21875 618.855469 C 672.199219 620.382812 671.140625 621.882812 670.046875 623.359375 C 668.953125 624.835938 667.824219 626.28125 666.65625 627.703125 C 665.492188 629.121094 664.292969 630.511719 663.058594 631.875 C 661.824219 633.234375 660.558594 634.566406 659.257812 635.863281 C 657.960938 637.164062 656.628906 638.429688 655.269531 639.664062 C 653.90625 640.898438 652.515625 642.097656 651.097656 643.261719 C 649.675781 644.429688 648.230469 645.558594 646.753906 646.652344 C 645.277344 647.746094 643.777344 648.804688 642.25 649.824219 C 640.722656 650.847656 639.171875 651.828125 637.59375 652.773438 C 636.019531 653.71875 634.421875 654.625 632.800781 655.488281 C 631.179688 656.355469 629.539062 657.179688 627.878906 657.96875 C 626.21875 658.753906 624.539062 659.496094 622.84375 660.199219 C 621.144531 660.902344 619.433594 661.566406 617.703125 662.183594 C 615.972656 662.804688 614.230469 663.378906 612.472656 663.914062 C 610.714844 664.445312 608.945312 664.9375 607.164062 665.382812 C 605.378906 665.828125 603.589844 666.234375 601.785156 666.589844 C 599.984375 666.949219 598.175781 667.265625 596.359375 667.535156 C 594.542969 667.804688 592.71875 668.03125 590.890625 668.210938 C 589.0625 668.390625 587.230469 668.527344 585.394531 668.617188 C 583.5625 668.707031 581.726562 668.753906 579.886719 668.753906 Z M 579.886719 668.753906 " fill-opacity="1" fill-rule="nonzero"/></g></svg>