<svg xmlns="http://www.w3.org/2000/svg" viewBox="0 0 24 24" id="Rotate-Back--Streamline-Ultimate.svg" height="24" width="24"><desc>Rotate Back Streamline Icon: https://streamlinehq.com</desc><g><path d="M11.92 4a0.24 0.24 0 0 1 -0.17 -0.41l1.88 -1.88A1 1 0 1 0 12.21 0.29l-4 4a1 1 0 0 0 0 1.42l4 4a1 1 0 1 0 1.42 -1.42l-1.88 -1.88a0.24 0.24 0 0 1 0.17 -0.41 8 8 0 1 1 0 16 1 1 0 0 0 0 2 10 10 0 1 0 0 -20Z" fill="#1d4f2d" stroke-width="1"></path><path d="M8.83 21.38a8.5 8.5 0 0 1 -1.73 -1A1 1 0 0 0 5.9 22a10 10 0 0 0 2.15 1.24 1 1 0 0 0 1.31 -0.54 1 1 0 0 0 -0.53 -1.32Z" fill="#1d4f2d" stroke-width="1"></path><path d="M4.06 15.52a1 1 0 1 0 -2 0.39 10.09 10.09 0 0 0 0.84 2.5 1 1 0 0 0 1.8 -0.88 8 8 0 0 1 -0.64 -2.01Z" fill="#1d4f2d" stroke-width="1"></path><path d="M4.44 8.89a1 1 0 0 0 -1.35 0.42 9.66 9.66 0 0 0 -0.94 2.57 1 1 0 1 0 1.95 0.42 8.33 8.33 0 0 1 0.75 -2.06 1 1 0 0 0 -0.41 -1.35Z" fill="#1d4f2d" stroke-width="1"></path></g></svg>