<svg width="160" height="37" viewBox="0 0 160 37" fill="none" xmlns="http://www.w3.org/2000/svg">
<path d="M7.75721 7.58491C9.18948 7.37857 10.7067 8.94435 11.1437 11.1049C11.5806 13.2533 10.7917 15.1711 9.35941 15.3896C7.93928 15.608 6.40991 14.0423 5.96081 11.8817C5.51171 9.73331 6.32494 7.81553 7.75721 7.58491ZM16.4358 7.58491C17.8802 7.81553 18.6813 9.73331 18.2565 11.8817C17.7952 14.0423 16.278 15.608 14.8457 15.3896C13.4013 15.1711 12.6124 13.2533 13.0615 11.1049C13.4984 8.94435 15.0157 7.37857 16.4358 7.58491ZM1.26346 13.1683C2.64717 12.5736 4.52854 13.6538 5.51171 15.5352C6.43419 17.453 6.1186 19.4679 4.74702 20.0626C3.37544 20.6574 1.50621 19.5893 0.547323 17.6836C-0.411568 15.778 -0.071708 13.7509 1.26346 13.1683ZM23.1116 13.1683C24.4468 13.7509 24.7866 15.778 23.8277 17.6836C22.8688 19.5893 20.9996 20.6574 19.628 20.0626C18.2565 19.4679 17.9409 17.453 18.8634 15.5352C19.8465 13.6538 21.7279 12.5736 23.1116 13.1683ZM21.0846 26.2529C21.1331 27.3939 20.2592 28.6562 19.2154 29.1296C17.0427 30.1249 14.4694 28.0615 12.054 28.0615C9.63858 28.0615 7.04108 30.2099 4.90481 29.1296C3.69103 28.5349 2.85352 26.9569 3.01131 25.646C3.22979 23.8375 5.40247 22.8665 6.68908 21.5434C8.40052 19.832 9.6143 16.6155 12.054 16.6155C14.4816 16.6155 15.7682 19.7835 17.4068 21.5434C18.7541 23.0243 20.9996 24.2745 21.0846 26.2529Z" fill="#272727"/>
<path d="M42.1511 5.124V13.5H40.4711V9.936H36.8831V13.5H35.2031V5.124H36.8831V8.568H40.4711V5.124H42.1511ZM46.7566 13.608C46.1166 13.608 45.5406 13.468 45.0286 13.188C44.5166 12.9 44.1126 12.496 43.8166 11.976C43.5286 11.456 43.3846 10.856 43.3846 10.176C43.3846 9.496 43.5326 8.896 43.8286 8.376C44.1326 7.856 44.5446 7.456 45.0646 7.176C45.5846 6.888 46.1646 6.744 46.8046 6.744C47.4446 6.744 48.0246 6.888 48.5446 7.176C49.0646 7.456 49.4726 7.856 49.7686 8.376C50.0726 8.896 50.2246 9.496 50.2246 10.176C50.2246 10.856 50.0686 11.456 49.7566 11.976C49.4526 12.496 49.0366 12.9 48.5086 13.188C47.9886 13.468 47.4046 13.608 46.7566 13.608ZM46.7566 12.144C47.0606 12.144 47.3446 12.072 47.6086 11.928C47.8806 11.776 48.0966 11.552 48.2566 11.256C48.4166 10.96 48.4966 10.6 48.4966 10.176C48.4966 9.544 48.3286 9.06 47.9926 8.724C47.6646 8.38 47.2606 8.208 46.7806 8.208C46.3006 8.208 45.8966 8.38 45.5686 8.724C45.2486 9.06 45.0886 9.544 45.0886 10.176C45.0886 10.808 45.2446 11.296 45.5566 11.64C45.8766 11.976 46.2766 12.144 46.7566 12.144ZM54.001 13.608C53.457 13.608 52.969 13.512 52.537 13.32C52.105 13.12 51.761 12.852 51.505 12.516C51.257 12.18 51.121 11.808 51.097 11.4H52.789C52.821 11.656 52.945 11.868 53.161 12.036C53.385 12.204 53.661 12.288 53.989 12.288C54.309 12.288 54.557 12.224 54.733 12.096C54.917 11.968 55.009 11.804 55.009 11.604C55.009 11.388 54.897 11.228 54.673 11.124C54.457 11.012 54.109 10.892 53.629 10.764C53.133 10.644 52.725 10.52 52.405 10.392C52.093 10.264 51.821 10.068 51.589 9.804C51.365 9.54 51.253 9.184 51.253 8.736C51.253 8.368 51.357 8.032 51.565 7.728C51.781 7.424 52.085 7.184 52.477 7.008C52.877 6.832 53.345 6.744 53.881 6.744C54.673 6.744 55.305 6.944 55.777 7.344C56.249 7.736 56.509 8.268 56.557 8.94H54.949C54.925 8.676 54.813 8.468 54.613 8.316C54.421 8.156 54.161 8.076 53.833 8.076C53.529 8.076 53.293 8.132 53.125 8.244C52.965 8.356 52.885 8.512 52.885 8.712C52.885 8.936 52.997 9.108 53.221 9.228C53.445 9.34 53.793 9.456 54.265 9.576C54.745 9.696 55.141 9.82 55.453 9.948C55.765 10.076 56.033 10.276 56.257 10.548C56.489 10.812 56.609 11.164 56.617 11.604C56.617 11.988 56.509 12.332 56.293 12.636C56.085 12.94 55.781 13.18 55.381 13.356C54.989 13.524 54.529 13.608 54.001 13.608ZM59.676 7.812C59.892 7.508 60.188 7.256 60.564 7.056C60.948 6.848 61.384 6.744 61.872 6.744C62.44 6.744 62.952 6.884 63.408 7.164C63.872 7.444 64.236 7.844 64.5 8.364C64.772 8.876 64.908 9.472 64.908 10.152C64.908 10.832 64.772 11.436 64.5 11.964C64.236 12.484 63.872 12.888 63.408 13.176C62.952 13.464 62.44 13.608 61.872 13.608C61.384 13.608 60.952 13.508 60.576 13.308C60.208 13.108 59.908 12.856 59.676 12.552V16.668H57.996V6.852H59.676V7.812ZM63.192 10.152C63.192 9.752 63.108 9.408 62.94 9.12C62.78 8.824 62.564 8.6 62.292 8.448C62.028 8.296 61.74 8.22 61.428 8.22C61.124 8.22 60.836 8.3 60.564 8.46C60.3 8.612 60.084 8.836 59.916 9.132C59.756 9.428 59.676 9.776 59.676 10.176C59.676 10.576 59.756 10.924 59.916 11.22C60.084 11.516 60.3 11.744 60.564 11.904C60.836 12.056 61.124 12.132 61.428 12.132C61.74 12.132 62.028 12.052 62.292 11.892C62.564 11.732 62.78 11.504 62.94 11.208C63.108 10.912 63.192 10.56 63.192 10.152ZM66.9808 6.06C66.6848 6.06 66.4368 5.968 66.2368 5.784C66.0448 5.592 65.9488 5.356 65.9488 5.076C65.9488 4.796 66.0448 4.564 66.2368 4.38C66.4368 4.188 66.6848 4.092 66.9808 4.092C67.2768 4.092 67.5208 4.188 67.7128 4.38C67.9128 4.564 68.0128 4.796 68.0128 5.076C68.0128 5.356 67.9128 5.592 67.7128 5.784C67.5208 5.968 67.2768 6.06 66.9808 6.06ZM67.8088 6.852V13.5H66.1288V6.852H67.8088ZM71.4247 8.232V11.448C71.4247 11.672 71.4767 11.836 71.5807 11.94C71.6927 12.036 71.8767 12.084 72.1327 12.084H72.9127V13.5H71.8567C70.4407 13.5 69.7327 12.812 69.7327 11.436V8.232H68.9407V6.852H69.7327V5.208H71.4247V6.852H72.9127V8.232H71.4247ZM73.689 10.152C73.689 9.48 73.821 8.884 74.085 8.364C74.357 7.844 74.721 7.444 75.177 7.164C75.641 6.884 76.157 6.744 76.725 6.744C77.221 6.744 77.653 6.844 78.021 7.044C78.397 7.244 78.697 7.496 78.921 7.8V6.852H80.613V13.5H78.921V12.528C78.705 12.84 78.405 13.1 78.021 13.308C77.645 13.508 77.209 13.608 76.713 13.608C76.153 13.608 75.641 13.464 75.177 13.176C74.721 12.888 74.357 12.484 74.085 11.964C73.821 11.436 73.689 10.832 73.689 10.152ZM78.921 10.176C78.921 9.768 78.841 9.42 78.681 9.132C78.521 8.836 78.305 8.612 78.033 8.46C77.761 8.3 77.469 8.22 77.157 8.22C76.845 8.22 76.557 8.296 76.293 8.448C76.029 8.6 75.813 8.824 75.645 9.12C75.485 9.408 75.405 9.752 75.405 10.152C75.405 10.552 75.485 10.904 75.645 11.208C75.813 11.504 76.029 11.732 76.293 11.892C76.565 12.052 76.853 12.132 77.157 12.132C77.469 12.132 77.761 12.056 78.033 11.904C78.305 11.744 78.521 11.52 78.681 11.232C78.841 10.936 78.921 10.584 78.921 10.176ZM83.9338 4.62V13.5H82.2538V4.62H83.9338ZM95.9771 5.124L92.9051 13.5H90.8651L87.7931 5.124H89.5931L91.8971 11.784L94.1891 5.124H95.9771ZM103.164 10.032C103.164 10.272 103.148 10.488 103.116 10.68H98.2563C98.2963 11.16 98.4643 11.536 98.7603 11.808C99.0563 12.08 99.4203 12.216 99.8523 12.216C100.476 12.216 100.92 11.948 101.184 11.412H102.996C102.804 12.052 102.436 12.58 101.892 12.996C101.348 13.404 100.68 13.608 99.8883 13.608C99.2483 13.608 98.6723 13.468 98.1603 13.188C97.6563 12.9 97.2603 12.496 96.9723 11.976C96.6923 11.456 96.5523 10.856 96.5523 10.176C96.5523 9.488 96.6923 8.884 96.9723 8.364C97.2523 7.844 97.6443 7.444 98.1483 7.164C98.6523 6.884 99.2323 6.744 99.8883 6.744C100.52 6.744 101.084 6.88 101.58 7.152C102.084 7.424 102.472 7.812 102.744 8.316C103.024 8.812 103.164 9.384 103.164 10.032ZM101.424 9.552C101.416 9.12 101.26 8.776 100.956 8.52C100.652 8.256 100.28 8.124 99.8403 8.124C99.4243 8.124 99.0723 8.252 98.7843 8.508C98.5043 8.756 98.3323 9.104 98.2683 9.552H101.424ZM106.347 8.232V11.448C106.347 11.672 106.399 11.836 106.503 11.94C106.615 12.036 106.799 12.084 107.055 12.084H107.835V13.5H106.779C105.363 13.5 104.655 12.812 104.655 11.436V8.232H103.863V6.852H104.655V5.208H106.347V6.852H107.835V8.232H106.347ZM115.223 10.032C115.223 10.272 115.207 10.488 115.175 10.68H110.315C110.355 11.16 110.523 11.536 110.819 11.808C111.115 12.08 111.479 12.216 111.911 12.216C112.535 12.216 112.979 11.948 113.243 11.412H115.055C114.863 12.052 114.495 12.58 113.951 12.996C113.407 13.404 112.739 13.608 111.947 13.608C111.307 13.608 110.731 13.468 110.219 13.188C109.715 12.9 109.319 12.496 109.031 11.976C108.751 11.456 108.611 10.856 108.611 10.176C108.611 9.488 108.751 8.884 109.031 8.364C109.311 7.844 109.703 7.444 110.207 7.164C110.711 6.884 111.291 6.744 111.947 6.744C112.579 6.744 113.143 6.88 113.639 7.152C114.143 7.424 114.531 7.812 114.803 8.316C115.083 8.812 115.223 9.384 115.223 10.032ZM113.483 9.552C113.475 9.12 113.319 8.776 113.015 8.52C112.711 8.256 112.339 8.124 111.899 8.124C111.483 8.124 111.131 8.252 110.843 8.508C110.563 8.756 110.391 9.104 110.327 9.552H113.483ZM118.129 7.884C118.345 7.532 118.625 7.256 118.969 7.056C119.321 6.856 119.721 6.756 120.169 6.756V8.52H119.725C119.197 8.52 118.797 8.644 118.525 8.892C118.261 9.14 118.129 9.572 118.129 10.188V13.5H116.449V6.852H118.129V7.884ZM122.153 6.06C121.857 6.06 121.609 5.968 121.409 5.784C121.217 5.592 121.121 5.356 121.121 5.076C121.121 4.796 121.217 4.564 121.409 4.38C121.609 4.188 121.857 4.092 122.153 4.092C122.449 4.092 122.693 4.188 122.885 4.38C123.085 4.564 123.185 4.796 123.185 5.076C123.185 5.356 123.085 5.592 122.885 5.784C122.693 5.968 122.449 6.06 122.153 6.06ZM122.981 6.852V13.5H121.301V6.852H122.981ZM128.325 6.756C129.117 6.756 129.757 7.008 130.245 7.512C130.733 8.008 130.977 8.704 130.977 9.6V13.5H129.297V9.828C129.297 9.3 129.165 8.896 128.901 8.616C128.637 8.328 128.277 8.184 127.821 8.184C127.357 8.184 126.989 8.328 126.717 8.616C126.453 8.896 126.321 9.3 126.321 9.828V13.5H124.641V6.852H126.321V7.68C126.545 7.392 126.829 7.168 127.173 7.008C127.525 6.84 127.909 6.756 128.325 6.756ZM132.142 10.152C132.142 9.48 132.274 8.884 132.538 8.364C132.81 7.844 133.174 7.444 133.63 7.164C134.094 6.884 134.61 6.744 135.178 6.744C135.674 6.744 136.106 6.844 136.474 7.044C136.85 7.244 137.15 7.496 137.374 7.8V6.852H139.066V13.5H137.374V12.528C137.158 12.84 136.858 13.1 136.474 13.308C136.098 13.508 135.662 13.608 135.166 13.608C134.606 13.608 134.094 13.464 133.63 13.176C133.174 12.888 132.81 12.484 132.538 11.964C132.274 11.436 132.142 10.832 132.142 10.152ZM137.374 10.176C137.374 9.768 137.294 9.42 137.134 9.132C136.974 8.836 136.758 8.612 136.486 8.46C136.214 8.3 135.922 8.22 135.61 8.22C135.298 8.22 135.01 8.296 134.746 8.448C134.482 8.6 134.266 8.824 134.098 9.12C133.938 9.408 133.858 9.752 133.858 10.152C133.858 10.552 133.938 10.904 134.098 11.208C134.266 11.504 134.482 11.732 134.746 11.892C135.018 12.052 135.306 12.132 135.61 12.132C135.922 12.132 136.214 12.056 136.486 11.904C136.758 11.744 136.974 11.52 137.134 11.232C137.294 10.936 137.374 10.584 137.374 10.176ZM137.146 5.124L134.386 6.384V5.184L137.146 3.756V5.124ZM142.387 7.884C142.603 7.532 142.883 7.256 143.227 7.056C143.579 6.856 143.979 6.756 144.427 6.756V8.52H143.983C143.455 8.52 143.055 8.644 142.783 8.892C142.519 9.14 142.387 9.572 142.387 10.188V13.5H140.707V6.852H142.387V7.884ZM146.411 6.06C146.115 6.06 145.867 5.968 145.667 5.784C145.475 5.592 145.379 5.356 145.379 5.076C145.379 4.796 145.475 4.564 145.667 4.38C145.867 4.188 146.115 4.092 146.411 4.092C146.707 4.092 146.951 4.188 147.143 4.38C147.343 4.564 147.443 4.796 147.443 5.076C147.443 5.356 147.343 5.592 147.143 5.784C146.951 5.968 146.707 6.06 146.411 6.06ZM147.239 6.852V13.5H145.559V6.852H147.239ZM151.85 13.608C151.21 13.608 150.634 13.468 150.122 13.188C149.61 12.9 149.206 12.496 148.91 11.976C148.622 11.456 148.478 10.856 148.478 10.176C148.478 9.496 148.626 8.896 148.922 8.376C149.226 7.856 149.638 7.456 150.158 7.176C150.678 6.888 151.258 6.744 151.898 6.744C152.538 6.744 153.118 6.888 153.638 7.176C154.158 7.456 154.566 7.856 154.862 8.376C155.166 8.896 155.318 9.496 155.318 10.176C155.318 10.856 155.162 11.456 154.85 11.976C154.546 12.496 154.13 12.9 153.602 13.188C153.082 13.468 152.498 13.608 151.85 13.608ZM151.85 12.144C152.154 12.144 152.438 12.072 152.702 11.928C152.974 11.776 153.19 11.552 153.35 11.256C153.51 10.96 153.59 10.6 153.59 10.176C153.59 9.544 153.422 9.06 153.086 8.724C152.758 8.38 152.354 8.208 151.874 8.208C151.394 8.208 150.99 8.38 150.662 8.724C150.342 9.06 150.182 9.544 150.182 10.176C150.182 10.808 150.338 11.296 150.65 11.64C150.97 11.976 151.37 12.144 151.85 12.144ZM36.8591 23.124V28.308C36.8591 28.876 37.0071 29.312 37.3031 29.616C37.5991 29.912 38.0151 30.06 38.5511 30.06C39.0951 30.06 39.5151 29.912 39.8111 29.616C40.1071 29.312 40.2551 28.876 40.2551 28.308V23.124H41.9471V28.296C41.9471 29.008 41.7911 29.612 41.4791 30.108C41.1751 30.596 40.7631 30.964 40.2431 31.212C39.7311 31.46 39.1591 31.584 38.5271 31.584C37.9031 31.584 37.3351 31.46 36.8231 31.212C36.3191 30.964 35.9191 30.596 35.6231 30.108C35.3271 29.612 35.1791 29.008 35.1791 28.296V23.124H36.8591ZM47.2542 24.756C48.0462 24.756 48.6862 25.008 49.1742 25.512C49.6622 26.008 49.9062 26.704 49.9062 27.6V31.5H48.2262V27.828C48.2262 27.3 48.0942 26.896 47.8302 26.616C47.5662 26.328 47.2062 26.184 46.7502 26.184C46.2862 26.184 45.9182 26.328 45.6462 26.616C45.3822 26.896 45.2502 27.3 45.2502 27.828V31.5H43.5702V24.852H45.2502V25.68C45.4742 25.392 45.7582 25.168 46.1022 25.008C46.4542 24.84 46.8382 24.756 47.2542 24.756ZM52.3558 24.06C52.0598 24.06 51.8118 23.968 51.6118 23.784C51.4198 23.592 51.3238 23.356 51.3238 23.076C51.3238 22.796 51.4198 22.564 51.6118 22.38C51.8118 22.188 52.0598 22.092 52.3558 22.092C52.6518 22.092 52.8958 22.188 53.0878 22.38C53.2878 22.564 53.3878 22.796 53.3878 23.076C53.3878 23.356 53.2878 23.592 53.0878 23.784C52.8958 23.968 52.6518 24.06 52.3558 24.06ZM53.1838 24.852V31.5H51.5038V24.852H53.1838ZM57.6157 29.952L59.2957 24.852H61.0837L58.6237 31.5H56.5837L54.1357 24.852H55.9357L57.6157 29.952ZM68.2073 28.032C68.2073 28.272 68.1913 28.488 68.1593 28.68H63.2993C63.3393 29.16 63.5073 29.536 63.8033 29.808C64.0993 30.08 64.4633 30.216 64.8953 30.216C65.5193 30.216 65.9633 29.948 66.2273 29.412H68.0393C67.8473 30.052 67.4793 30.58 66.9353 30.996C66.3913 31.404 65.7233 31.608 64.9313 31.608C64.2913 31.608 63.7153 31.468 63.2033 31.188C62.6993 30.9 62.3033 30.496 62.0153 29.976C61.7353 29.456 61.5953 28.856 61.5953 28.176C61.5953 27.488 61.7353 26.884 62.0153 26.364C62.2953 25.844 62.6873 25.444 63.1913 25.164C63.6953 24.884 64.2753 24.744 64.9313 24.744C65.5633 24.744 66.1273 24.88 66.6233 25.152C67.1273 25.424 67.5153 25.812 67.7873 26.316C68.0673 26.812 68.2073 27.384 68.2073 28.032ZM66.4673 27.552C66.4593 27.12 66.3033 26.776 65.9993 26.52C65.6953 26.256 65.3233 26.124 64.8833 26.124C64.4673 26.124 64.1153 26.252 63.8273 26.508C63.5473 26.756 63.3753 27.104 63.3113 27.552H66.4673ZM71.1135 25.884C71.3295 25.532 71.6095 25.256 71.9535 25.056C72.3055 24.856 72.7055 24.756 73.1535 24.756V26.52H72.7095C72.1815 26.52 71.7815 26.644 71.5095 26.892C71.2455 27.14 71.1135 27.572 71.1135 28.188V31.5H69.4335V24.852H71.1135V25.884ZM76.8291 31.608C76.2851 31.608 75.7971 31.512 75.3651 31.32C74.9331 31.12 74.5891 30.852 74.3331 30.516C74.0851 30.18 73.9491 29.808 73.9251 29.4H75.6171C75.6491 29.656 75.7731 29.868 75.9891 30.036C76.2131 30.204 76.4891 30.288 76.8171 30.288C77.1371 30.288 77.3851 30.224 77.5611 30.096C77.7451 29.968 77.8371 29.804 77.8371 29.604C77.8371 29.388 77.7251 29.228 77.5011 29.124C77.2851 29.012 76.9371 28.892 76.4571 28.764C75.9611 28.644 75.5531 28.52 75.2331 28.392C74.9211 28.264 74.6491 28.068 74.4171 27.804C74.1931 27.54 74.0811 27.184 74.0811 26.736C74.0811 26.368 74.1851 26.032 74.3931 25.728C74.6091 25.424 74.9131 25.184 75.3051 25.008C75.7051 24.832 76.1731 24.744 76.7091 24.744C77.5011 24.744 78.1331 24.944 78.6051 25.344C79.0771 25.736 79.3371 26.268 79.3851 26.94H77.7771C77.7531 26.676 77.6411 26.468 77.4411 26.316C77.2491 26.156 76.9891 26.076 76.6611 26.076C76.3571 26.076 76.1211 26.132 75.9531 26.244C75.7931 26.356 75.7131 26.512 75.7131 26.712C75.7131 26.936 75.8251 27.108 76.0491 27.228C76.2731 27.34 76.6211 27.456 77.0931 27.576C77.5731 27.696 77.9691 27.82 78.2811 27.948C78.5931 28.076 78.8611 28.276 79.0851 28.548C79.3171 28.812 79.4371 29.164 79.4451 29.604C79.4451 29.988 79.3371 30.332 79.1211 30.636C78.9131 30.94 78.6091 31.18 78.2091 31.356C77.8171 31.524 77.3571 31.608 76.8291 31.608ZM81.6762 24.06C81.3802 24.06 81.1322 23.968 80.9322 23.784C80.7402 23.592 80.6442 23.356 80.6442 23.076C80.6442 22.796 80.7402 22.564 80.9322 22.38C81.1322 22.188 81.3802 22.092 81.6762 22.092C81.9722 22.092 82.2162 22.188 82.4082 22.38C82.6082 22.564 82.7082 22.796 82.7082 23.076C82.7082 23.356 82.6082 23.592 82.4082 23.784C82.2162 23.968 81.9722 24.06 81.6762 24.06ZM82.5042 24.852V31.5H80.8242V24.852H82.5042ZM86.12 26.232V29.448C86.12 29.672 86.172 29.836 86.276 29.94C86.388 30.036 86.572 30.084 86.828 30.084H87.608V31.5H86.552C85.136 31.5 84.428 30.812 84.428 29.436V26.232H83.636V24.852H84.428V23.208H86.12V24.852H87.608V26.232H86.12ZM88.3843 28.152C88.3843 27.48 88.5163 26.884 88.7803 26.364C89.0523 25.844 89.4163 25.444 89.8723 25.164C90.3363 24.884 90.8523 24.744 91.4203 24.744C91.9163 24.744 92.3483 24.844 92.7163 25.044C93.0923 25.244 93.3923 25.496 93.6163 25.8V24.852H95.3083V31.5H93.6163V30.528C93.4003 30.84 93.1003 31.1 92.7163 31.308C92.3403 31.508 91.9043 31.608 91.4083 31.608C90.8483 31.608 90.3363 31.464 89.8723 31.176C89.4163 30.888 89.0523 30.484 88.7803 29.964C88.5163 29.436 88.3843 28.832 88.3843 28.152ZM93.6163 28.176C93.6163 27.768 93.5363 27.42 93.3763 27.132C93.2163 26.836 93.0003 26.612 92.7283 26.46C92.4563 26.3 92.1643 26.22 91.8523 26.22C91.5403 26.22 91.2523 26.296 90.9883 26.448C90.7243 26.6 90.5083 26.824 90.3403 27.12C90.1803 27.408 90.1003 27.752 90.1003 28.152C90.1003 28.552 90.1803 28.904 90.3403 29.208C90.5083 29.504 90.7243 29.732 90.9883 29.892C91.2603 30.052 91.5483 30.132 91.8523 30.132C92.1643 30.132 92.4563 30.056 92.7283 29.904C93.0003 29.744 93.2163 29.52 93.3763 29.232C93.5363 28.936 93.6163 28.584 93.6163 28.176ZM93.3883 23.124L90.6283 24.384V23.184L93.3883 21.756V23.124ZM98.6292 25.884C98.8452 25.532 99.1252 25.256 99.4692 25.056C99.8212 24.856 100.221 24.756 100.669 24.756V26.52H100.225C99.6972 26.52 99.2972 26.644 99.0252 26.892C98.7612 27.14 98.6292 27.572 98.6292 28.188V31.5H96.9492V24.852H98.6292V25.884ZM102.653 24.06C102.357 24.06 102.109 23.968 101.909 23.784C101.717 23.592 101.621 23.356 101.621 23.076C101.621 22.796 101.717 22.564 101.909 22.38C102.109 22.188 102.357 22.092 102.653 22.092C102.949 22.092 103.193 22.188 103.385 22.38C103.585 22.564 103.685 22.796 103.685 23.076C103.685 23.356 103.585 23.592 103.385 23.784C103.193 23.968 102.949 24.06 102.653 24.06ZM103.481 24.852V31.5H101.801V24.852H103.481ZM108.093 31.608C107.453 31.608 106.877 31.468 106.365 31.188C105.853 30.9 105.449 30.496 105.153 29.976C104.865 29.456 104.721 28.856 104.721 28.176C104.721 27.496 104.869 26.896 105.165 26.376C105.469 25.856 105.881 25.456 106.401 25.176C106.921 24.888 107.501 24.744 108.141 24.744C108.781 24.744 109.361 24.888 109.881 25.176C110.401 25.456 110.809 25.856 111.105 26.376C111.409 26.896 111.561 27.496 111.561 28.176C111.561 28.856 111.405 29.456 111.093 29.976C110.789 30.496 110.373 30.9 109.845 31.188C109.325 31.468 108.741 31.608 108.093 31.608ZM108.093 30.144C108.397 30.144 108.681 30.072 108.945 29.928C109.217 29.776 109.433 29.552 109.593 29.256C109.753 28.96 109.833 28.6 109.833 28.176C109.833 27.544 109.665 27.06 109.329 26.724C109.001 26.38 108.597 26.208 108.117 26.208C107.637 26.208 107.233 26.38 106.905 26.724C106.585 27.06 106.425 27.544 106.425 28.176C106.425 28.808 106.581 29.296 106.893 29.64C107.213 29.976 107.613 30.144 108.093 30.144Z" fill="#272727"/>
</svg>
