<svg width="63" height="63" viewBox="0 0 63 63" fill="none" xmlns="http://www.w3.org/2000/svg">
<mask id="mask0_928_1355" style="mask-type:alpha" maskUnits="userSpaceOnUse" x="0" y="0" width="63" height="63">
<rect x="0.75" y="0.780029" width="62" height="62" fill="#D9D9D9"/>
</mask>
<g mask="url(#mask0_928_1355)">
<path d="M13.6667 57.6134C12.2458 57.6134 11.0295 57.1075 10.0177 56.0957C9.0059 55.0839 8.5 53.8675 8.5 52.4467V16.28C8.5 14.8592 9.0059 13.6429 10.0177 12.6311C11.0295 11.6193 12.2458 11.1134 13.6667 11.1134H16.25V5.94672H21.4167V11.1134H42.0833V5.94672H47.25V11.1134H49.8333C51.2542 11.1134 52.4705 11.6193 53.4823 12.6311C54.4941 13.6429 55 14.8592 55 16.28V52.4467C55 53.8675 54.4941 55.0839 53.4823 56.0957C52.4705 57.1075 51.2542 57.6134 49.8333 57.6134H13.6667ZM13.6667 52.4467H49.8333V26.6134H13.6667V52.4467Z" fill="#365945"/>
</g>
</svg>
