<svg width="63" height="63" viewBox="0 0 63 63" fill="none" xmlns="http://www.w3.org/2000/svg">
<mask id="mask0_1776_2788" style="mask-type:alpha" maskUnits="userSpaceOnUse" x="0" y="0" width="63" height="63">
<rect x="0.75" y="0.890015" width="62" height="62" fill="#D9D9D9"/>
</mask>
<g mask="url(#mask0_1776_2788)">
<path d="M44.6667 42.2234C42.5139 42.2234 40.684 41.4699 39.1771 39.9629C37.6701 38.456 36.9167 36.6261 36.9167 34.4734C36.9167 32.3206 37.6701 30.4907 39.1771 28.9838C40.684 27.4768 42.5139 26.7233 44.6667 26.7233C46.8194 26.7233 48.6493 27.4768 50.1563 28.9838C51.6632 30.4907 52.4167 32.3206 52.4167 34.4734C52.4167 36.6261 51.6632 38.456 50.1563 39.9629C48.6493 41.4699 46.8194 42.2234 44.6667 42.2234ZM29.1667 60.3067V52.815C29.1667 51.9109 29.3819 51.0605 29.8125 50.264C30.2431 49.4674 30.8458 48.8324 31.6208 48.3588C32.9986 47.5407 34.4517 46.8626 35.9802 46.3244C37.5087 45.7862 39.0694 45.3879 40.6625 45.1296L44.6667 49.9734L48.6708 45.1296C50.2639 45.3879 51.8139 45.7862 53.3208 46.3244C54.8278 46.8626 56.2701 47.5407 57.6479 48.3588C58.4229 48.8324 59.0365 49.4674 59.4885 50.264C59.9406 51.0605 60.1667 51.9109 60.1667 52.815V60.3067H29.1667ZM24 52.815V55.14H13.6667C12.2458 55.14 11.0295 54.6341 10.0177 53.6223C9.0059 52.6105 8.5 51.3942 8.5 49.9734V13.8067C8.5 12.3858 9.0059 11.1695 10.0177 10.1577C11.0295 9.14592 12.2458 8.64001 13.6667 8.64001H49.8333C51.2542 8.64001 52.4705 9.14592 53.4823 10.1577C54.4941 11.1695 55 12.3858 55 13.8067V26.7233C53.6653 25.0442 52.1583 23.7633 50.4792 22.8806C48.8 21.998 46.8625 21.5567 44.6667 21.5567V18.9733H18.8333V24.14H36.9167C36.0556 24.8289 35.2806 25.6039 34.5917 26.465C33.9028 27.3261 33.3215 28.2733 32.8479 29.3067H18.8333V34.4734H31.75C31.75 35.3775 31.8469 36.2602 32.0406 37.1213C32.2344 37.9824 32.5035 38.822 32.8479 39.64H18.8333V44.8067H27.7458C26.5833 45.797 25.6684 46.9918 25.001 48.3911C24.3337 49.7904 24 51.265 24 52.815Z" fill="#365945"/>
</g>
</svg>
