<svg width="63" height="63" viewBox="0 0 63 63" fill="none" xmlns="http://www.w3.org/2000/svg">
<mask id="mask0_928_1369" style="mask-type:alpha" maskUnits="userSpaceOnUse" x="0" y="0" width="63" height="63">
<rect x="0.75" y="0.780029" width="62" height="62" fill="#D9D9D9"/>
</mask>
<g mask="url(#mask0_928_1369)">
<path d="M21.4163 47.2801H42.083V42.1134H21.4163V47.2801ZM21.4163 36.9467H42.083V31.7801H21.4163V36.9467ZM16.2497 57.6134C14.8288 57.6134 13.6125 57.1075 12.6007 56.0957C11.5889 55.0839 11.083 53.8676 11.083 52.4467V11.1134C11.083 9.69255 11.5889 8.47623 12.6007 7.46442C13.6125 6.45262 14.8288 5.94672 16.2497 5.94672H36.9163L52.4163 21.4467V52.4467C52.4163 53.8676 51.9104 55.0839 50.8986 56.0957C49.8868 57.1075 48.6705 57.6134 47.2497 57.6134H16.2497ZM34.333 24.0301H47.2497L34.333 11.1134V24.0301Z" fill="#365945"/>
</g>
</svg>
