<svg width="62" height="62" viewBox="0 0 62 62" fill="none" xmlns="http://www.w3.org/2000/svg">
<path fill-rule="evenodd" clip-rule="evenodd" d="M3.16937 53.653C5.08241 55.566 7.39206 56.5225 10.0983 56.5225H22.8544C22.7499 55.481 22.6963 54.4245 22.6963 53.3554C22.6963 52.537 22.7277 51.726 22.7893 50.9234H10.0983C8.88517 50.9234 7.88199 50.5268 7.08877 49.7335C6.29556 48.9403 5.89896 47.9371 5.89896 46.724C5.89896 45.5575 6.29556 44.566 7.08877 43.7495C7.88199 42.9329 8.88517 42.5246 10.0983 42.5246H24.6187C28.0132 33.3103 35.6143 26.1309 45.093 23.3156V6.13016C45.093 4.59039 44.5448 3.27226 43.4483 2.17576C42.3518 1.07926 41.0336 0.531006 39.4939 0.531006H10.0983C7.39206 0.531006 5.08241 1.48753 3.16937 3.40057C1.25633 5.31361 0.299805 7.62326 0.299805 10.3295V46.724C0.299805 49.4303 1.25633 51.7399 3.16937 53.653ZM16.2924 36.1206C15.7558 36.6572 15.0909 36.9255 14.2977 36.9255C13.5045 36.9255 12.8396 36.6572 12.303 36.1206C11.7664 35.584 11.4981 34.9191 11.4981 34.1259V8.92973C11.4981 8.13652 11.7664 7.47162 12.303 6.93503C12.8396 6.39845 13.5045 6.13016 14.2977 6.13016C15.0909 6.13016 15.7558 6.39845 16.2924 6.93503C16.829 7.47162 17.0973 8.13652 17.0973 8.92973V34.1259C17.0973 34.9191 16.829 35.584 16.2924 36.1206Z" fill="#365945"/>
<path d="M34.2234 45.4529C33.1177 45.4529 32.1831 45.0712 31.4196 44.3077C30.6562 43.5442 30.2744 42.6096 30.2744 41.5039C30.2744 40.3982 30.6562 39.4636 31.4196 38.7001C32.1831 37.9366 33.1177 37.5549 34.2234 37.5549C35.3292 37.5549 36.2638 37.9366 37.0272 38.7001C37.7907 39.4636 38.1725 40.3982 38.1725 41.5039C38.1725 42.6096 37.7907 43.5442 37.0272 44.3077C36.2638 45.0712 35.3292 45.4529 34.2234 45.4529ZM41.3317 39.1345C40.226 39.1345 39.2914 38.7528 38.5279 37.9893C37.7644 37.2258 37.3827 36.2912 37.3827 35.1855C37.3827 34.0797 37.7644 33.1451 38.5279 32.3817C39.2914 31.6182 40.226 31.2365 41.3317 31.2365C42.4374 31.2365 43.372 31.6182 44.1355 32.3817C44.899 33.1451 45.2807 34.0797 45.2807 35.1855C45.2807 36.2912 44.899 37.2258 44.1355 37.9893C43.372 38.7528 42.4374 39.1345 41.3317 39.1345ZM50.8094 39.1345C49.7036 39.1345 48.769 38.7528 48.0055 37.9893C47.2421 37.2258 46.8603 36.2912 46.8603 35.1855C46.8603 34.0797 47.2421 33.1451 48.0055 32.3817C48.769 31.6182 49.7036 31.2365 50.8094 31.2365C51.9151 31.2365 52.8497 31.6182 53.6132 32.3817C54.3766 33.1451 54.7584 34.0797 54.7584 35.1855C54.7584 36.2912 54.3766 37.2258 53.6132 37.9893C52.8497 38.7528 51.9151 39.1345 50.8094 39.1345ZM57.9176 45.4529C56.8119 45.4529 55.8773 45.0712 55.1138 44.3077C54.3503 43.5442 53.9686 42.6096 53.9686 41.5039C53.9686 40.3982 54.3503 39.4636 55.1138 38.7001C55.8773 37.9366 56.8119 37.5549 57.9176 37.5549C59.0233 37.5549 59.9579 37.9366 60.7214 38.7001C61.4849 39.4636 61.8666 40.3982 61.8666 41.5039C61.8666 42.6096 61.4849 43.5442 60.7214 44.3077C59.9579 45.0712 59.0233 45.4529 57.9176 45.4529ZM37.6196 61.249C36.4349 61.249 35.4411 60.7949 34.6381 59.8866C33.8351 58.9784 33.4336 57.9055 33.4336 56.6682C33.4336 55.2992 33.9009 54.1013 34.8355 53.0746C35.7701 52.0478 36.6982 51.0342 37.6196 50.0338C38.3831 49.2177 39.0413 48.3292 39.5941 47.3682C40.147 46.4073 40.8052 45.5056 41.5686 44.6631C42.1478 43.9786 42.8192 43.4126 43.5826 42.9651C44.3461 42.5175 45.1754 42.2937 46.0705 42.2937C46.9656 42.2937 47.7949 42.5043 48.5584 42.9256C49.3219 43.3468 49.9932 43.8997 50.5724 44.5842C51.3096 45.4266 51.9612 46.3349 52.5272 47.309C53.0932 48.2831 53.758 49.1914 54.5214 50.0338C55.4429 51.0342 56.3709 52.0478 57.3055 53.0746C58.2401 54.1013 58.7074 55.2992 58.7074 56.6682C58.7074 57.9055 58.3059 58.9784 57.503 59.8866C56.7 60.7949 55.7061 61.249 54.5214 61.249C53.0998 61.249 51.6913 61.1306 50.296 60.8936C48.9007 60.6567 47.4922 60.5382 46.0705 60.5382C44.6489 60.5382 43.2404 60.6567 41.8451 60.8936C40.4497 61.1306 39.0413 61.249 37.6196 61.249Z" fill="#365945"/>
</svg>
