<svg xmlns="http://www.w3.org/2000/svg" fill="none" viewBox="0 0 24 24" id="Pet-Trainer-2--Streamline-Ultimate.svg" height="24" width="24"><desc>Pet Trainer 2 Streamline Icon: https://streamlinehq.com</desc><path fill="#0f6027" fill-rule="evenodd" d="M8.3137 0.306C8.5083 0.218 8.7312 0.218 8.9258 0.306L15.0658 3.0789C15.5863 3.3155 15.6555 4.0269 15.1904 4.3593C15.1483 4.3894 15.1033 4.415 15.0559 4.4356L12.6801 5.4725V7.2967H4.3613V5.3854L3.2224 4.8902V6.4292C3.2224 7.001 2.6035 7.3583 2.1083 7.0724C1.8785 6.9397 1.7369 6.6945 1.7369 6.4292V3.9534C1.7369 3.9197 1.7389 3.887 1.7439 3.8543C1.7003 3.5293 1.8749 3.2142 2.1737 3.0789L8.3137 0.306ZM4.3623 8.5336H12.6811V8.905C12.6811 11.1501 10.8827 13.0644 8.5217 13.0644C6.1677 13.0644 4.3623 11.258 4.3623 8.905V8.5336ZM1.2913 20.789C1.2913 16.7485 4.5881 13.5596 8.5207 13.5596C9.9758 13.5595 11.3967 13.9997 12.5969 14.8223C11.2056 16.0105 11.6224 18.2593 13.3471 18.8701C13.602 18.9603 13.8704 19.0064 14.1409 19.0064H14.1448C14.2211 19.0064 14.2973 19.0024 14.3716 18.9955L13.5823 19.7848C13.1595 20.1956 12.8568 20.714 12.7069 21.2842H1.7865C1.513 21.2842 1.2913 21.0625 1.2913 20.789ZM21.0662 20.8247L19.0955 18.8539C18.4113 18.1658 17.2979 18.1658 16.6137 18.8539L14.6331 20.8346C13.5011 21.9665 14.3835 23.76 15.8739 23.76H19.8353C20.6077 23.76 21.19 23.2668 21.4416 22.6805C21.6921 22.0962 21.6436 21.3406 21.0663 20.8247ZM14.1438 15.4907C15.0205 15.4919 15.5672 16.4417 15.1279 17.2003C14.924 17.5524 14.5477 17.769 14.1409 17.7685L14.1438 15.4907ZM14.1389 17.7685C13.2622 17.7677 12.715 16.8182 13.1541 16.0593C13.3578 15.7071 13.734 15.4904 14.1409 15.4907L14.1389 17.7685ZM21.5713 15.4907C22.448 15.4919 22.9947 16.4417 22.5554 17.2003C22.3515 17.5524 21.9752 17.769 21.5683 17.7685L21.5713 15.4907ZM21.5664 17.7685C20.6897 17.7677 20.1425 16.8182 20.5815 16.0593C20.7853 15.7071 21.1615 15.4904 21.5683 15.4907L21.5664 17.7685ZM17.8576 14.0052C18.7343 14.0064 19.281 14.9562 18.8416 15.7148C18.6377 16.0669 18.2615 16.2835 17.8546 16.283M17.8526 16.283C16.9759 16.2822 16.4288 15.3327 16.8678 14.5738C17.0716 14.2216 17.4477 14.0049 17.8546 14.0052" clip-rule="evenodd" stroke-width="1"></path></svg>