<svg xmlns="http://www.w3.org/2000/svg" viewBox="0 0 24 24" id="Camera-Flash--Streamline-Ultimate.svg" height="24" width="24"><desc>Camera Flash Streamline Icon: https://streamlinehq.com</desc><g><path d="M11.41 8h3.68a2.73 2.73 0 0 1 0.8 0.13 0.21 0.21 0 0 0 0.19 0 0.27 0.27 0 0 0 0.13 -0.13l0.27 -1a2 2 0 0 0 2 -2V2a2 2 0 0 0 -2 -2H10a2 2 0 0 0 -2 2v3a2 2 0 0 0 2 2l0.27 1a0.27 0.27 0 0 0 0.13 0.15 0.21 0.21 0 0 0 0.19 0 2.73 2.73 0 0 1 0.82 -0.15ZM10 2.5a0.5 0.5 0 0 1 0.5 -0.5H16a0.5 0.5 0 0 1 0.5 0.5v2a0.5 0.5 0 0 1 -0.5 0.5h-5.5a0.5 0.5 0 0 1 -0.5 -0.5Z" fill="#0f6027" stroke-width="1"></path><path d="M10 17.25a3.25 3.25 0 1 0 6.5 0 3.25 3.25 0 1 0 -6.5 0" fill="#0f6027" stroke-width="1"></path><path d="M20.5 11h-2.59a0.47 0.47 0 0 1 -0.35 -0.15l-1.41 -1.41A1.52 1.52 0 0 0 15.09 9h-3.68a1.52 1.52 0 0 0 -1.06 0.44l-1.41 1.41a0.47 0.47 0 0 1 -0.35 0.15H3.5A2.5 2.5 0 0 0 1 13.5v8A2.5 2.5 0 0 0 3.5 24h17a2.5 2.5 0 0 0 2.5 -2.5v-8a2.5 2.5 0 0 0 -2.5 -2.5ZM6 14.75a1.25 1.25 0 1 1 -1.25 -1.25A1.25 1.25 0 0 1 6 14.75Zm2 2.5a5.25 5.25 0 1 1 5.25 5.25A5.26 5.26 0 0 1 8 17.25Z" fill="#0f6027" stroke-width="1"></path><path d="M7 9.5A1.5 1.5 0 0 0 5.5 8h-1A1.5 1.5 0 0 0 3 9.5a0.5 0.5 0 0 0 0.5 0.5h3a0.5 0.5 0 0 0 0.5 -0.5Z" fill="#0f6027" stroke-width="1"></path></g></svg>