<svg width="161" height="37" viewBox="0 0 161 37" fill="none" xmlns="http://www.w3.org/2000/svg">
<path d="M8.50721 7.69477C9.93948 7.48843 11.4567 9.05421 11.8937 11.2148C12.3306 13.3632 11.5417 15.2809 10.1094 15.4994C8.68928 15.7179 7.15991 14.1521 6.71081 11.9916C6.26171 9.84317 7.07494 7.92539 8.50721 7.69477ZM17.1858 7.69477C18.6302 7.92539 19.4313 9.84317 19.0065 11.9916C18.5452 14.1521 17.028 15.7179 15.5957 15.4994C14.1513 15.2809 13.3624 13.3632 13.8115 11.2148C14.2484 9.05421 15.7657 7.48843 17.1858 7.69477ZM2.01346 13.2782C3.39717 12.6834 5.27854 13.7637 6.26171 15.6451C7.18419 17.5629 6.8686 19.5777 5.49702 20.1725C4.12544 20.7672 2.25621 19.6991 1.29732 17.7935C0.338432 15.8878 0.678292 13.8608 2.01346 13.2782ZM23.8616 13.2782C25.1968 13.8608 25.5366 15.8878 24.5777 17.7935C23.6188 19.6991 21.7496 20.7672 20.378 20.1725C19.0065 19.5777 18.6909 17.5629 19.6134 15.6451C20.5965 13.7637 22.4779 12.6834 23.8616 13.2782ZM21.8346 26.3628C21.8831 27.5038 21.0092 28.7661 19.9654 29.2395C17.7927 30.2348 15.2194 28.1713 12.804 28.1713C10.3886 28.1713 7.79108 30.3197 5.65481 29.2395C4.44103 28.6447 3.60352 27.0668 3.76131 25.7559C3.97979 23.9474 6.15247 22.9763 7.43908 21.6533C9.15052 19.9419 10.3643 16.7253 12.804 16.7253C15.2316 16.7253 16.5182 19.8933 18.1568 21.6533C19.5041 23.1341 21.7496 24.3843 21.8346 26.3628Z" fill="white"/>
<path d="M42.901 5.23386V13.6099H41.221V10.0459H37.633V13.6099H35.953V5.23386H37.633V8.67786H41.221V5.23386H42.901ZM47.5066 13.7179C46.8666 13.7179 46.2906 13.5779 45.7786 13.2979C45.2666 13.0099 44.8626 12.6059 44.5666 12.0859C44.2786 11.5659 44.1346 10.9659 44.1346 10.2859C44.1346 9.60586 44.2826 9.00586 44.5786 8.48586C44.8826 7.96586 45.2946 7.56586 45.8146 7.28586C46.3346 6.99786 46.9146 6.85386 47.5546 6.85386C48.1946 6.85386 48.7746 6.99786 49.2946 7.28586C49.8146 7.56586 50.2226 7.96586 50.5186 8.48586C50.8226 9.00586 50.9746 9.60586 50.9746 10.2859C50.9746 10.9659 50.8186 11.5659 50.5066 12.0859C50.2026 12.6059 49.7866 13.0099 49.2586 13.2979C48.7386 13.5779 48.1546 13.7179 47.5066 13.7179ZM47.5066 12.2539C47.8106 12.2539 48.0946 12.1819 48.3586 12.0379C48.6306 11.8859 48.8466 11.6619 49.0066 11.3659C49.1666 11.0699 49.2466 10.7099 49.2466 10.2859C49.2466 9.65386 49.0786 9.16986 48.7426 8.83386C48.4146 8.48986 48.0106 8.31786 47.5306 8.31786C47.0506 8.31786 46.6466 8.48986 46.3186 8.83386C45.9986 9.16986 45.8386 9.65386 45.8386 10.2859C45.8386 10.9179 45.9946 11.4059 46.3066 11.7499C46.6266 12.0859 47.0266 12.2539 47.5066 12.2539ZM54.7509 13.7179C54.2069 13.7179 53.7189 13.6219 53.2869 13.4299C52.8549 13.2299 52.5109 12.9619 52.2549 12.6259C52.0069 12.2899 51.8709 11.9179 51.8469 11.5099H53.5389C53.5709 11.7659 53.6949 11.9779 53.9109 12.1459C54.1349 12.3139 54.4109 12.3979 54.7389 12.3979C55.0589 12.3979 55.3069 12.3339 55.4829 12.2059C55.6669 12.0779 55.7589 11.9139 55.7589 11.7139C55.7589 11.4979 55.6469 11.3379 55.4229 11.2339C55.2069 11.1219 54.8589 11.0019 54.3789 10.8739C53.8829 10.7539 53.4749 10.6299 53.1549 10.5019C52.8429 10.3739 52.5709 10.1779 52.3389 9.91386C52.1149 9.64986 52.0029 9.29386 52.0029 8.84586C52.0029 8.47786 52.1069 8.14186 52.3149 7.83786C52.5309 7.53386 52.8349 7.29386 53.2269 7.11786C53.6269 6.94186 54.0949 6.85386 54.6309 6.85386C55.4229 6.85386 56.0549 7.05386 56.5269 7.45386C56.9989 7.84586 57.2589 8.37786 57.3069 9.04986H55.6989C55.6749 8.78586 55.5629 8.57786 55.3629 8.42586C55.1709 8.26586 54.9109 8.18586 54.5829 8.18586C54.2789 8.18586 54.0429 8.24186 53.8749 8.35386C53.7149 8.46586 53.6349 8.62186 53.6349 8.82186C53.6349 9.04586 53.7469 9.21786 53.9709 9.33786C54.1949 9.44986 54.5429 9.56586 55.0149 9.68586C55.4949 9.80586 55.8909 9.92986 56.2029 10.0579C56.5149 10.1859 56.7829 10.3859 57.0069 10.6579C57.2389 10.9219 57.3589 11.2739 57.3669 11.7139C57.3669 12.0979 57.2589 12.4419 57.0429 12.7459C56.8349 13.0499 56.5309 13.2899 56.1309 13.4659C55.7389 13.6339 55.2789 13.7179 54.7509 13.7179ZM60.426 7.92186C60.642 7.61786 60.938 7.36586 61.314 7.16586C61.698 6.95786 62.134 6.85386 62.622 6.85386C63.19 6.85386 63.702 6.99386 64.158 7.27386C64.622 7.55386 64.986 7.95386 65.25 8.47386C65.522 8.98586 65.658 9.58186 65.658 10.2619C65.658 10.9419 65.522 11.5459 65.25 12.0739C64.986 12.5939 64.622 12.9979 64.158 13.2859C63.702 13.5739 63.19 13.7179 62.622 13.7179C62.134 13.7179 61.702 13.6179 61.326 13.4179C60.958 13.2179 60.658 12.9659 60.426 12.6619V16.7779H58.746V6.96186H60.426V7.92186ZM63.942 10.2619C63.942 9.86186 63.858 9.51786 63.69 9.22986C63.53 8.93386 63.314 8.70986 63.042 8.55786C62.778 8.40586 62.49 8.32986 62.178 8.32986C61.874 8.32986 61.586 8.40986 61.314 8.56986C61.05 8.72186 60.834 8.94586 60.666 9.24186C60.506 9.53786 60.426 9.88586 60.426 10.2859C60.426 10.6859 60.506 11.0339 60.666 11.3299C60.834 11.6259 61.05 11.8539 61.314 12.0139C61.586 12.1659 61.874 12.2419 62.178 12.2419C62.49 12.2419 62.778 12.1619 63.042 12.0019C63.314 11.8419 63.53 11.6139 63.69 11.3179C63.858 11.0219 63.942 10.6699 63.942 10.2619ZM67.7308 6.16986C67.4348 6.16986 67.1868 6.07786 66.9868 5.89386C66.7948 5.70186 66.6988 5.46586 66.6988 5.18586C66.6988 4.90586 66.7948 4.67386 66.9868 4.48986C67.1868 4.29786 67.4348 4.20186 67.7308 4.20186C68.0268 4.20186 68.2708 4.29786 68.4628 4.48986C68.6628 4.67386 68.7628 4.90586 68.7628 5.18586C68.7628 5.46586 68.6628 5.70186 68.4628 5.89386C68.2708 6.07786 68.0268 6.16986 67.7308 6.16986ZM68.5588 6.96186V13.6099H66.8788V6.96186H68.5588ZM72.1746 8.34186V11.5579C72.1746 11.7819 72.2266 11.9459 72.3306 12.0499C72.4426 12.1459 72.6266 12.1939 72.8826 12.1939H73.6626V13.6099H72.6066C71.1906 13.6099 70.4826 12.9219 70.4826 11.5459V8.34186H69.6906V6.96186H70.4826V5.31786H72.1746V6.96186H73.6626V8.34186H72.1746ZM74.439 10.2619C74.439 9.58986 74.571 8.99386 74.835 8.47386C75.107 7.95386 75.471 7.55386 75.927 7.27386C76.391 6.99386 76.907 6.85386 77.475 6.85386C77.971 6.85386 78.403 6.95386 78.771 7.15386C79.147 7.35386 79.447 7.60586 79.671 7.90986V6.96186H81.363V13.6099H79.671V12.6379C79.455 12.9499 79.155 13.2099 78.771 13.4179C78.395 13.6179 77.959 13.7179 77.463 13.7179C76.903 13.7179 76.391 13.5739 75.927 13.2859C75.471 12.9979 75.107 12.5939 74.835 12.0739C74.571 11.5459 74.439 10.9419 74.439 10.2619ZM79.671 10.2859C79.671 9.87786 79.591 9.52986 79.431 9.24186C79.271 8.94586 79.055 8.72186 78.783 8.56986C78.511 8.40986 78.219 8.32986 77.907 8.32986C77.595 8.32986 77.307 8.40586 77.043 8.55786C76.779 8.70986 76.563 8.93386 76.395 9.22986C76.235 9.51786 76.155 9.86186 76.155 10.2619C76.155 10.6619 76.235 11.0139 76.395 11.3179C76.563 11.6139 76.779 11.8419 77.043 12.0019C77.315 12.1619 77.603 12.2419 77.907 12.2419C78.219 12.2419 78.511 12.1659 78.783 12.0139C79.055 11.8539 79.271 11.6299 79.431 11.3419C79.591 11.0459 79.671 10.6939 79.671 10.2859ZM84.6838 4.72986V13.6099H83.0038V4.72986H84.6838ZM96.727 5.23386L93.655 13.6099H91.615L88.543 5.23386H90.343L92.647 11.8939L94.939 5.23386H96.727ZM103.914 10.1419C103.914 10.3819 103.898 10.5979 103.866 10.7899H99.0063C99.0463 11.2699 99.2143 11.6459 99.5103 11.9179C99.8063 12.1899 100.17 12.3259 100.602 12.3259C101.226 12.3259 101.67 12.0579 101.934 11.5219H103.746C103.554 12.1619 103.186 12.6899 102.642 13.1059C102.098 13.5139 101.43 13.7179 100.638 13.7179C99.9983 13.7179 99.4223 13.5779 98.9103 13.2979C98.4063 13.0099 98.0103 12.6059 97.7223 12.0859C97.4423 11.5659 97.3022 10.9659 97.3022 10.2859C97.3022 9.59786 97.4423 8.99386 97.7223 8.47386C98.0023 7.95386 98.3943 7.55386 98.8983 7.27386C99.4023 6.99386 99.9823 6.85386 100.638 6.85386C101.27 6.85386 101.834 6.98986 102.33 7.26186C102.834 7.53386 103.222 7.92186 103.494 8.42586C103.774 8.92186 103.914 9.49386 103.914 10.1419ZM102.174 9.66186C102.166 9.22986 102.01 8.88586 101.706 8.62986C101.402 8.36586 101.03 8.23386 100.59 8.23386C100.174 8.23386 99.8223 8.36186 99.5343 8.61786C99.2543 8.86586 99.0823 9.21386 99.0183 9.66186H102.174ZM107.097 8.34186V11.5579C107.097 11.7819 107.149 11.9459 107.253 12.0499C107.365 12.1459 107.549 12.1939 107.805 12.1939H108.585V13.6099H107.529C106.113 13.6099 105.405 12.9219 105.405 11.5459V8.34186H104.613V6.96186H105.405V5.31786H107.097V6.96186H108.585V8.34186H107.097ZM115.973 10.1419C115.973 10.3819 115.957 10.5979 115.925 10.7899H111.065C111.105 11.2699 111.273 11.6459 111.569 11.9179C111.865 12.1899 112.229 12.3259 112.661 12.3259C113.285 12.3259 113.729 12.0579 113.993 11.5219H115.805C115.613 12.1619 115.245 12.6899 114.701 13.1059C114.157 13.5139 113.489 13.7179 112.697 13.7179C112.057 13.7179 111.481 13.5779 110.969 13.2979C110.465 13.0099 110.069 12.6059 109.781 12.0859C109.501 11.5659 109.361 10.9659 109.361 10.2859C109.361 9.59786 109.501 8.99386 109.781 8.47386C110.061 7.95386 110.453 7.55386 110.957 7.27386C111.461 6.99386 112.041 6.85386 112.697 6.85386C113.329 6.85386 113.893 6.98986 114.389 7.26186C114.893 7.53386 115.281 7.92186 115.553 8.42586C115.833 8.92186 115.973 9.49386 115.973 10.1419ZM114.233 9.66186C114.225 9.22986 114.069 8.88586 113.765 8.62986C113.461 8.36586 113.089 8.23386 112.649 8.23386C112.233 8.23386 111.881 8.36186 111.593 8.61786C111.313 8.86586 111.141 9.21386 111.077 9.66186H114.233ZM118.879 7.99386C119.095 7.64186 119.375 7.36586 119.719 7.16586C120.071 6.96586 120.471 6.86586 120.919 6.86586V8.62986H120.475C119.947 8.62986 119.547 8.75386 119.275 9.00186C119.011 9.24986 118.879 9.68186 118.879 10.2979V13.6099H117.199V6.96186H118.879V7.99386ZM122.903 6.16986C122.607 6.16986 122.359 6.07786 122.159 5.89386C121.967 5.70186 121.871 5.46586 121.871 5.18586C121.871 4.90586 121.967 4.67386 122.159 4.48986C122.359 4.29786 122.607 4.20186 122.903 4.20186C123.199 4.20186 123.443 4.29786 123.635 4.48986C123.835 4.67386 123.935 4.90586 123.935 5.18586C123.935 5.46586 123.835 5.70186 123.635 5.89386C123.443 6.07786 123.199 6.16986 122.903 6.16986ZM123.731 6.96186V13.6099H122.051V6.96186H123.731ZM129.075 6.86586C129.867 6.86586 130.507 7.11786 130.995 7.62186C131.483 8.11786 131.727 8.81386 131.727 9.70986V13.6099H130.047V9.93786C130.047 9.40986 129.915 9.00586 129.651 8.72586C129.387 8.43786 129.027 8.29386 128.571 8.29386C128.107 8.29386 127.739 8.43786 127.467 8.72586C127.203 9.00586 127.071 9.40986 127.071 9.93786V13.6099H125.391V6.96186H127.071V7.78986C127.295 7.50186 127.579 7.27786 127.923 7.11786C128.275 6.94986 128.659 6.86586 129.075 6.86586ZM132.892 10.2619C132.892 9.58986 133.024 8.99386 133.288 8.47386C133.56 7.95386 133.924 7.55386 134.38 7.27386C134.844 6.99386 135.36 6.85386 135.928 6.85386C136.424 6.85386 136.856 6.95386 137.224 7.15386C137.6 7.35386 137.9 7.60586 138.124 7.90986V6.96186H139.816V13.6099H138.124V12.6379C137.908 12.9499 137.608 13.2099 137.224 13.4179C136.848 13.6179 136.412 13.7179 135.916 13.7179C135.356 13.7179 134.844 13.5739 134.38 13.2859C133.924 12.9979 133.56 12.5939 133.288 12.0739C133.024 11.5459 132.892 10.9419 132.892 10.2619ZM138.124 10.2859C138.124 9.87786 138.044 9.52986 137.884 9.24186C137.724 8.94586 137.508 8.72186 137.236 8.56986C136.964 8.40986 136.672 8.32986 136.36 8.32986C136.048 8.32986 135.76 8.40586 135.496 8.55786C135.232 8.70986 135.016 8.93386 134.848 9.22986C134.688 9.51786 134.608 9.86186 134.608 10.2619C134.608 10.6619 134.688 11.0139 134.848 11.3179C135.016 11.6139 135.232 11.8419 135.496 12.0019C135.768 12.1619 136.056 12.2419 136.36 12.2419C136.672 12.2419 136.964 12.1659 137.236 12.0139C137.508 11.8539 137.724 11.6299 137.884 11.3419C138.044 11.0459 138.124 10.6939 138.124 10.2859ZM137.896 5.23386L135.136 6.49386V5.29386L137.896 3.86586V5.23386ZM143.137 7.99386C143.353 7.64186 143.633 7.36586 143.977 7.16586C144.329 6.96586 144.729 6.86586 145.177 6.86586V8.62986H144.733C144.205 8.62986 143.805 8.75386 143.533 9.00186C143.269 9.24986 143.137 9.68186 143.137 10.2979V13.6099H141.457V6.96186H143.137V7.99386ZM147.16 6.16986C146.864 6.16986 146.616 6.07786 146.416 5.89386C146.224 5.70186 146.128 5.46586 146.128 5.18586C146.128 4.90586 146.224 4.67386 146.416 4.48986C146.616 4.29786 146.864 4.20186 147.16 4.20186C147.456 4.20186 147.7 4.29786 147.892 4.48986C148.092 4.67386 148.192 4.90586 148.192 5.18586C148.192 5.46586 148.092 5.70186 147.892 5.89386C147.7 6.07786 147.456 6.16986 147.16 6.16986ZM147.988 6.96186V13.6099H146.308V6.96186H147.988ZM152.6 13.7179C151.96 13.7179 151.384 13.5779 150.872 13.2979C150.36 13.0099 149.956 12.6059 149.66 12.0859C149.372 11.5659 149.228 10.9659 149.228 10.2859C149.228 9.60586 149.376 9.00586 149.672 8.48586C149.976 7.96586 150.388 7.56586 150.908 7.28586C151.428 6.99786 152.008 6.85386 152.648 6.85386C153.288 6.85386 153.868 6.99786 154.388 7.28586C154.908 7.56586 155.316 7.96586 155.612 8.48586C155.916 9.00586 156.068 9.60586 156.068 10.2859C156.068 10.9659 155.912 11.5659 155.6 12.0859C155.296 12.6059 154.88 13.0099 154.352 13.2979C153.832 13.5779 153.248 13.7179 152.6 13.7179ZM152.6 12.2539C152.904 12.2539 153.188 12.1819 153.452 12.0379C153.724 11.8859 153.94 11.6619 154.1 11.3659C154.26 11.0699 154.34 10.7099 154.34 10.2859C154.34 9.65386 154.172 9.16986 153.836 8.83386C153.508 8.48986 153.104 8.31786 152.624 8.31786C152.144 8.31786 151.74 8.48986 151.412 8.83386C151.092 9.16986 150.932 9.65386 150.932 10.2859C150.932 10.9179 151.088 11.4059 151.4 11.7499C151.72 12.0859 152.12 12.2539 152.6 12.2539ZM37.609 23.2339V28.4179C37.609 28.9859 37.757 29.4219 38.053 29.7259C38.349 30.0219 38.765 30.1699 39.301 30.1699C39.845 30.1699 40.265 30.0219 40.561 29.7259C40.857 29.4219 41.005 28.9859 41.005 28.4179V23.2339H42.697V28.4059C42.697 29.1179 42.541 29.7219 42.229 30.2179C41.925 30.7059 41.513 31.0739 40.993 31.3219C40.481 31.5699 39.909 31.6939 39.277 31.6939C38.653 31.6939 38.085 31.5699 37.573 31.3219C37.069 31.0739 36.669 30.7059 36.373 30.2179C36.077 29.7219 35.929 29.1179 35.929 28.4059V23.2339H37.609ZM48.0042 24.8659C48.7962 24.8659 49.4362 25.1179 49.9242 25.6219C50.4122 26.1179 50.6562 26.8139 50.6562 27.7099V31.6099H48.9762V27.9379C48.9762 27.4099 48.8442 27.0059 48.5802 26.7259C48.3162 26.4379 47.9562 26.2939 47.5002 26.2939C47.0362 26.2939 46.6682 26.4379 46.3962 26.7259C46.1322 27.0059 46.0002 27.4099 46.0002 27.9379V31.6099H44.3202V24.9619H46.0002V25.7899C46.2242 25.5019 46.5082 25.2779 46.8522 25.1179C47.2042 24.9499 47.5882 24.8659 48.0042 24.8659ZM53.1058 24.1699C52.8098 24.1699 52.5618 24.0779 52.3618 23.8939C52.1698 23.7019 52.0738 23.4659 52.0738 23.1859C52.0738 22.9059 52.1698 22.6739 52.3618 22.4899C52.5618 22.2979 52.8098 22.2019 53.1058 22.2019C53.4018 22.2019 53.6458 22.2979 53.8378 22.4899C54.0378 22.6739 54.1378 22.9059 54.1378 23.1859C54.1378 23.4659 54.0378 23.7019 53.8378 23.8939C53.6458 24.0779 53.4018 24.1699 53.1058 24.1699ZM53.9338 24.9619V31.6099H52.2538V24.9619H53.9338ZM58.3656 30.0619L60.0456 24.9619H61.8336L59.3736 31.6099H57.3336L54.8856 24.9619H56.6856L58.3656 30.0619ZM68.9572 28.1419C68.9572 28.3819 68.9412 28.5979 68.9092 28.7899H64.0492C64.0892 29.2699 64.2572 29.6459 64.5532 29.9179C64.8492 30.1899 65.2132 30.3259 65.6452 30.3259C66.2692 30.3259 66.7132 30.0579 66.9772 29.5219H68.7892C68.5972 30.1619 68.2292 30.6899 67.6852 31.1059C67.1412 31.5139 66.4732 31.7179 65.6812 31.7179C65.0412 31.7179 64.4652 31.5779 63.9532 31.2979C63.4492 31.0099 63.0532 30.6059 62.7652 30.0859C62.4852 29.5659 62.3452 28.9659 62.3452 28.2859C62.3452 27.5979 62.4852 26.9939 62.7652 26.4739C63.0452 25.9539 63.4372 25.5539 63.9412 25.2739C64.4452 24.9939 65.0252 24.8539 65.6812 24.8539C66.3132 24.8539 66.8772 24.9899 67.3732 25.2619C67.8772 25.5339 68.2652 25.9219 68.5372 26.4259C68.8172 26.9219 68.9572 27.4939 68.9572 28.1419ZM67.2172 27.6619C67.2092 27.2299 67.0532 26.8859 66.7492 26.6299C66.4452 26.3659 66.0732 26.2339 65.6332 26.2339C65.2172 26.2339 64.8652 26.3619 64.5772 26.6179C64.2972 26.8659 64.1252 27.2139 64.0612 27.6619H67.2172ZM71.8635 25.9939C72.0795 25.6419 72.3595 25.3659 72.7035 25.1659C73.0555 24.9659 73.4555 24.8659 73.9035 24.8659V26.6299H73.4595C72.9315 26.6299 72.5315 26.7539 72.2595 27.0019C71.9955 27.2499 71.8635 27.6819 71.8635 28.2979V31.6099H70.1835V24.9619H71.8635V25.9939ZM77.579 31.7179C77.035 31.7179 76.547 31.6219 76.115 31.4299C75.683 31.2299 75.339 30.9619 75.083 30.6259C74.835 30.2899 74.699 29.9179 74.675 29.5099H76.367C76.399 29.7659 76.523 29.9779 76.739 30.1459C76.963 30.3139 77.239 30.3979 77.567 30.3979C77.887 30.3979 78.135 30.3339 78.311 30.2059C78.495 30.0779 78.587 29.9139 78.587 29.7139C78.587 29.4979 78.475 29.3379 78.251 29.2339C78.035 29.1219 77.687 29.0019 77.207 28.8739C76.711 28.7539 76.303 28.6299 75.983 28.5019C75.671 28.3739 75.399 28.1779 75.167 27.9139C74.943 27.6499 74.831 27.2939 74.831 26.8459C74.831 26.4779 74.935 26.1419 75.143 25.8379C75.359 25.5339 75.663 25.2939 76.055 25.1179C76.455 24.9419 76.923 24.8539 77.459 24.8539C78.251 24.8539 78.883 25.0539 79.355 25.4539C79.827 25.8459 80.087 26.3779 80.135 27.0499H78.527C78.503 26.7859 78.391 26.5779 78.191 26.4259C77.999 26.2659 77.739 26.1859 77.411 26.1859C77.107 26.1859 76.871 26.2419 76.703 26.3539C76.543 26.4659 76.463 26.6219 76.463 26.8219C76.463 27.0459 76.575 27.2179 76.799 27.3379C77.023 27.4499 77.371 27.5659 77.843 27.6859C78.323 27.8059 78.719 27.9299 79.031 28.0579C79.343 28.1859 79.611 28.3859 79.835 28.6579C80.067 28.9219 80.187 29.2739 80.195 29.7139C80.195 30.0979 80.087 30.4419 79.871 30.7459C79.663 31.0499 79.359 31.2899 78.959 31.4659C78.567 31.6339 78.107 31.7179 77.579 31.7179ZM82.4261 24.1699C82.1301 24.1699 81.8821 24.0779 81.6821 23.8939C81.4901 23.7019 81.3941 23.4659 81.3941 23.1859C81.3941 22.9059 81.4901 22.6739 81.6821 22.4899C81.8821 22.2979 82.1301 22.2019 82.4261 22.2019C82.7221 22.2019 82.9661 22.2979 83.1581 22.4899C83.3581 22.6739 83.4581 22.9059 83.4581 23.1859C83.4581 23.4659 83.3581 23.7019 83.1581 23.8939C82.9661 24.0779 82.7221 24.1699 82.4261 24.1699ZM83.2541 24.9619V31.6099H81.5741V24.9619H83.2541ZM86.8699 26.3419V29.5579C86.8699 29.7819 86.9219 29.9459 87.0259 30.0499C87.1379 30.1459 87.3219 30.1939 87.5779 30.1939H88.3579V31.6099H87.3019C85.8859 31.6099 85.1779 30.9219 85.1779 29.5459V26.3419H84.3859V24.9619H85.1779V23.3179H86.8699V24.9619H88.3579V26.3419H86.8699ZM89.1343 28.2619C89.1343 27.5899 89.2663 26.9939 89.5303 26.4739C89.8023 25.9539 90.1663 25.5539 90.6223 25.2739C91.0863 24.9939 91.6023 24.8539 92.1703 24.8539C92.6663 24.8539 93.0983 24.9539 93.4663 25.1539C93.8423 25.3539 94.1423 25.6059 94.3663 25.9099V24.9619H96.0583V31.6099H94.3663V30.6379C94.1503 30.9499 93.8503 31.2099 93.4663 31.4179C93.0903 31.6179 92.6543 31.7179 92.1583 31.7179C91.5983 31.7179 91.0863 31.5739 90.6223 31.2859C90.1663 30.9979 89.8023 30.5939 89.5303 30.0739C89.2663 29.5459 89.1343 28.9419 89.1343 28.2619ZM94.3663 28.2859C94.3663 27.8779 94.2863 27.5299 94.1263 27.2419C93.9663 26.9459 93.7503 26.7219 93.4783 26.5699C93.2063 26.4099 92.9143 26.3299 92.6023 26.3299C92.2903 26.3299 92.0023 26.4059 91.7383 26.5579C91.4743 26.7099 91.2583 26.9339 91.0903 27.2299C90.9303 27.5179 90.8503 27.8619 90.8503 28.2619C90.8503 28.6619 90.9303 29.0139 91.0903 29.3179C91.2583 29.6139 91.4743 29.8419 91.7383 30.0019C92.0103 30.1619 92.2983 30.2419 92.6023 30.2419C92.9143 30.2419 93.2063 30.1659 93.4783 30.0139C93.7503 29.8539 93.9663 29.6299 94.1263 29.3419C94.2863 29.0459 94.3663 28.6939 94.3663 28.2859ZM94.1383 23.2339L91.3783 24.4939V23.2939L94.1383 21.8659V23.2339ZM99.3791 25.9939C99.5951 25.6419 99.8751 25.3659 100.219 25.1659C100.571 24.9659 100.971 24.8659 101.419 24.8659V26.6299H100.975C100.447 26.6299 100.047 26.7539 99.7751 27.0019C99.5111 27.2499 99.3791 27.6819 99.3791 28.2979V31.6099H97.6991V24.9619H99.3791V25.9939ZM103.403 24.1699C103.107 24.1699 102.859 24.0779 102.659 23.8939C102.467 23.7019 102.371 23.4659 102.371 23.1859C102.371 22.9059 102.467 22.6739 102.659 22.4899C102.859 22.2979 103.107 22.2019 103.403 22.2019C103.699 22.2019 103.943 22.2979 104.135 22.4899C104.335 22.6739 104.435 22.9059 104.435 23.1859C104.435 23.4659 104.335 23.7019 104.135 23.8939C103.943 24.0779 103.699 24.1699 103.403 24.1699ZM104.231 24.9619V31.6099H102.551V24.9619H104.231ZM108.843 31.7179C108.203 31.7179 107.627 31.5779 107.115 31.2979C106.603 31.0099 106.199 30.6059 105.903 30.0859C105.615 29.5659 105.471 28.9659 105.471 28.2859C105.471 27.6059 105.619 27.0059 105.915 26.4859C106.219 25.9659 106.631 25.5659 107.151 25.2859C107.671 24.9979 108.251 24.8539 108.891 24.8539C109.531 24.8539 110.111 24.9979 110.631 25.2859C111.151 25.5659 111.559 25.9659 111.855 26.4859C112.159 27.0059 112.311 27.6059 112.311 28.2859C112.311 28.9659 112.155 29.5659 111.842 30.0859C111.539 30.6059 111.123 31.0099 110.595 31.2979C110.075 31.5779 109.491 31.7179 108.843 31.7179ZM108.843 30.2539C109.147 30.2539 109.431 30.1819 109.695 30.0379C109.967 29.8859 110.183 29.6619 110.343 29.3659C110.503 29.0699 110.583 28.7099 110.583 28.2859C110.583 27.6539 110.415 27.1699 110.079 26.8339C109.751 26.4899 109.347 26.3179 108.867 26.3179C108.387 26.3179 107.983 26.4899 107.655 26.8339C107.335 27.1699 107.175 27.6539 107.175 28.2859C107.175 28.9179 107.331 29.4059 107.643 29.7499C107.963 30.0859 108.363 30.2539 108.843 30.2539Z" fill="white"/>
</svg>
