<svg width="20" height="20" viewBox="0 0 20 20" fill="none" xmlns="http://www.w3.org/2000/svg">
<path d="M9.63385 1.29871C10.5906 1.29871 11.5081 1.67877 12.1846 2.35528C12.8612 3.03179 13.2412 3.94934 13.2412 4.90607C13.2412 5.8628 12.8612 6.78035 12.1846 7.45686C11.5081 8.13337 10.5906 8.51343 9.63385 8.51343C8.67712 8.51343 7.75958 8.13337 7.08307 7.45686C6.40655 6.78035 6.02649 5.8628 6.02649 4.90607C6.02649 3.94934 6.40655 3.03179 7.08307 2.35528C7.75958 1.67877 8.67712 1.29871 9.63385 1.29871ZM9.63385 13.092C12.1054 13.092 14.2869 13.5948 15.8095 14.3561C17.3982 15.1505 17.9585 16.0429 17.9585 16.6994V17.9481H1.30918L1.30918 16.6994C1.30918 16.0429 1.86949 15.1505 3.45819 14.3561C4.98078 13.5948 7.16235 13.092 9.63385 13.092Z" stroke="#606060" stroke-width="2.21991"/>
</svg>
