<svg xmlns="http://www.w3.org/2000/svg" viewBox="0 0 24 24" id="Monitor-Heart-Notes--Streamline-Ultimate.svg" height="24" width="24"><desc>Monitor Heart Notes Streamline Icon: https://streamlinehq.com</desc><g><path d="M21.5 5a2 2 0 0 0 -2 -2h-2.75a0.25 0.25 0 0 0 -0.25 0.25v1.5a0.25 0.25 0 0 0 0.25 0.25H19a0.5 0.5 0 0 1 0.5 0.5v8.11a0.25 0.25 0 0 1 -0.25 0.25h-1.8A1.58 1.58 0 0 0 16 15l0 0.07a0.25 0.25 0 0 1 -0.26 0.17 0.23 0.23 0 0 1 -0.22 -0.2l-1 -5.13a1.67 1.67 0 0 0 -1.34 -1.42 1.56 1.56 0 0 0 -1.65 1.15l-1.16 3.51a0.23 0.23 0 0 1 -0.22 0.17 0.25 0.25 0 0 1 -0.25 -0.15L9.39 12a1.53 1.53 0 0 0 -1.33 -1 1.5 1.5 0 0 0 -1.4 0.89l-0.88 1.77a0.26 0.26 0 0 1 -0.22 0.14h-0.81a0.25 0.25 0 0 1 -0.25 -0.25V5.5A0.5 0.5 0 0 1 5 5h2.25a0.25 0.25 0 0 0 0.25 -0.25v-1.5A0.25 0.25 0 0 0 7.25 3H4.5a2 2 0 0 0 -2 2v17a2 2 0 0 0 2 2h15a2 2 0 0 0 2 -2ZM19 22H5a0.5 0.5 0 0 1 -0.5 -0.5v-5.39a0.25 0.25 0 0 1 0.25 -0.25h1.3A1.52 1.52 0 0 0 7.4 15l0.6 -1.21 0.86 2a1.54 1.54 0 0 0 1.52 1 1.61 1.61 0 0 0 1.33 -1.16l0.88 -2.65a0.26 0.26 0 0 1 0.25 -0.18 0.27 0.27 0 0 1 0.23 0.21l1 5.12a1.66 1.66 0 0 0 1.33 1.43h0.19A1.57 1.57 0 0 0 17 18.34l0.77 -2.34a0.23 0.23 0 0 1 0.23 -0.17h1.25a0.25 0.25 0 0 1 0.25 0.25v5.42a0.5 0.5 0 0 1 -0.5 0.5Z" fill="#0f6027" stroke-width="1"></path><path d="M10 6.5h4a1 1 0 0 0 1 -1V3A3 3 0 0 0 11.19 0.11 3 3 0 0 0 9 3.09V5.5a1 1 0 0 0 1 1ZM12 2a0.75 0.75 0 1 1 -0.75 0.75A0.76 0.76 0 0 1 12 2Z" fill="#0f6027" stroke-width="1"></path></g></svg>