<svg width="19" height="19" viewBox="0 0 19 19" fill="none" xmlns="http://www.w3.org/2000/svg">
<path d="M16.0885 0.445007H2.18538C1.08306 0.445007 0.199219 1.32885 0.199219 2.43116V6.40348H2.18538V2.43116H16.0885V16.3343H2.18538V12.3619H0.199219V16.3343C0.199219 16.861 0.408474 17.3662 0.78095 17.7387C1.15343 18.1112 1.65861 18.3204 2.18538 18.3204H16.0885C16.6152 18.3204 17.1204 18.1112 17.4929 17.7387C17.8654 17.3662 18.0746 16.861 18.0746 16.3343V2.43116C18.0746 1.32885 17.1809 0.445007 16.0885 0.445007ZM7.23021 12.9379L8.64038 14.3481L13.6058 9.38271L8.64038 4.41732L7.23021 5.81756L9.80229 8.38963H0.199219V10.3758H9.80229L7.23021 12.9379Z" fill="#C7122F"/>
</svg>
