<svg xmlns="http://www.w3.org/2000/svg" viewBox="0 0 24 24" id="Design-Draw--Streamline-Ultimate.svg" height="24" width="24"><desc>Design Draw Streamline Icon: https://streamlinehq.com</desc><g><path d="M17.75 3.4V1.73a1 1 0 0 0 -1 -1H3.23a1 1 0 0 0 -1 1v20.54a1 1 0 0 0 1 1h13.54a1 1 0 0 0 1 -1" fill="none" stroke="#115e2a" stroke-linecap="round" stroke-linejoin="round" stroke-width="1.5"></path><path d="m0.75 6 2.44 0" fill="none" stroke="#115e2a" stroke-linecap="round" stroke-linejoin="round" stroke-width="1.5"></path><path d="m0.75 12 2.44 0" fill="none" stroke="#115e2a" stroke-linecap="round" stroke-linejoin="round" stroke-width="1.5"></path><path d="m0.75 18 2.44 0" fill="none" stroke="#115e2a" stroke-linecap="round" stroke-linejoin="round" stroke-width="1.5"></path><path d="M17.59 8a5.44 5.44 0 0 0 -2.28 -0.51 5.37 5.37 0 0 0 -5.37 5.37v2.74" fill="none" stroke="#115e2a" stroke-linecap="round" stroke-linejoin="round" stroke-width="1.5"></path><path d="M23.2 19.08c-1.83 1 -3.84 1.44 -5.38 -0.33H15a2 2 0 0 1 0 -4h3.11" fill="none" stroke="#115e2a" stroke-linecap="round" stroke-linejoin="round" stroke-width="1.5"></path><path d="m20.49 10.2 2.76 2.76" fill="none" stroke="#115e2a" stroke-linecap="round" stroke-linejoin="round" stroke-width="1.5"></path><path d="M13.27 17.79 8.52 19.6l1.47 -4L20.34 5.2a1 1 0 0 1 1.38 0l1.2 1.19a1 1 0 0 1 0 1.39l-7 7" fill="none" stroke="#115e2a" stroke-linecap="round" stroke-linejoin="round" stroke-width="1.5"></path></g></svg>