<svg viewBox="0 0 24 24" xmlns="http://www.w3.org/2000/svg" id="Dog-Carrier--Streamline-Ultimate.svg" height="24" width="24"><desc>Dog Carrier Streamline Icon: https://streamlinehq.com</desc><path d="m0.75 12.75 6.75 0" fill="none" stroke="#145429" stroke-linecap="round" stroke-linejoin="round" stroke-width="1.5"></path><path d="m19.625 9 -0.666 -4a1.5 1.5 0 0 0 -1.48 -1.253H5.021A1.5 1.5 0 0 0 3.541 5L2.25 12.75" fill="none" stroke="#145429" stroke-linecap="round" stroke-linejoin="round" stroke-width="1.5"></path><path d="M7.5 21.75H5.021a1.5 1.5 0 0 1 -1.48 -1.25L2.25 12.75" fill="none" stroke="#145429" stroke-linecap="round" stroke-linejoin="round" stroke-width="1.5"></path><path d="m6.75 6.75 0 3" fill="none" stroke="#145429" stroke-linecap="round" stroke-linejoin="round" stroke-width="1.5"></path><path d="m11.25 6.75 0 3" fill="none" stroke="#145429" stroke-linecap="round" stroke-linejoin="round" stroke-width="1.5"></path><path d="m15.75 6.75 0 1.5" fill="none" stroke="#145429" stroke-linecap="round" stroke-linejoin="round" stroke-width="1.5"></path><path d="M8.25 3.75a3 3 0 0 1 6 0" fill="none" stroke="#145429" stroke-linecap="round" stroke-linejoin="round" stroke-width="1.5"></path><path d="M15 13.5a1.5 1.5 0 1 0 3 0 1.5 1.5 0 1 0 -3 0Z" fill="none" stroke="#145429" stroke-linecap="round" stroke-linejoin="round" stroke-width="1.5"></path><path d="M9.75 16.5a1.5 1.5 0 1 0 3 0 1.5 1.5 0 1 0 -3 0Z" fill="none" stroke="#145429" stroke-linecap="round" stroke-linejoin="round" stroke-width="1.5"></path><path d="M20.25 16.5a1.5 1.5 0 1 0 3 0 1.5 1.5 0 1 0 -3 0Z" fill="none" stroke="#145429" stroke-linecap="round" stroke-linejoin="round" stroke-width="1.5"></path><path d="M13.5 23.25a0.748 0.748 0 0 1 -0.6 -1.2l3 -4a0.75 0.75 0 0 1 1.2 0l3 4a0.75 0.75 0 0 1 -0.6 1.2Z" fill="none" stroke="#145429" stroke-linecap="round" stroke-linejoin="round" stroke-width="1.5"></path></svg>