<svg xmlns="http://www.w3.org/2000/svg" fill="none" viewBox="0 0 24 24" id="Suitcase-Crime--Streamline-Ultimate.svg" height="24" width="24"><desc>Suitcase Crime Streamline Icon: https://streamlinehq.com</desc><path fill="#0f6027" fill-rule="evenodd" d="M9.97442 0.155884c-1.16592 0 -2.11008 0.745305 -2.4506 1.765276L6.51867 4.9375H2.14286C1.23553 4.9375 0.5 5.67315 0.5 6.58062V21.9164c0 0.9075 0.73553 1.6431 1.64286 1.6431H21.8571c0.9074 0 1.6429 -0.7356 1.6429 -1.6431V6.58062c0 -0.90747 -0.7355 -1.64312 -1.6429 -1.64312h-4.3757l-1.0052 -3.01634c-0.1716 -0.51415 -0.5006 -0.961288 -0.9405 -1.278099 -0.4398 -0.316787 -0.9682 -0.48722 -1.5102 -0.487177H9.97442ZM15.3733 4.9375l-0.7941 -2.383c-0.0388 -0.1161 -0.1131 -0.21707 -0.2124 -0.28861 -0.0993 -0.07154 -0.2186 -0.11002 -0.341 -0.11001H9.97442c-0.26724 0 -0.47322 0.15808 -0.55352 0.39862l-0.79411 2.383h6.74651Zm0.7766 6.0942c0.398 0.7262 0.6045 1.5418 0.6 2.3699 -0.0018 0.7367 -0.1716 1.4634 -0.4965 2.1246 -0.3249 0.6613 -0.7964 1.2397 -1.3785 1.6914v0.809c0 0.3978 -0.158 0.7793 -0.4393 1.0606s-0.6628 0.4394 -1.0607 0.4394h-0.7499V17.875c0 -0.4142 -0.3358 -0.75 -0.75 -0.75s-0.75 0.3358 -0.75 0.75v1.6516h-0.7501c-0.3978 0 -0.77933 -0.1581 -1.06063 -0.4394 -0.28131 -0.2813 -0.43934 -0.6628 -0.43934 -1.0606v-0.809c-0.65272 -0.5097 -1.16487 -1.1771 -1.48813 -1.9395 -0.32327 -0.7624 -0.447 -1.5946 -0.35952 -2.4181 0.08747 -0.8234 0.38327 -1.611 0.85949 -2.2885 0.47622 -0.67747 1.11717 -1.22246 1.86238 -1.58357 0.74525 -0.36111 1.57015 -0.52644 2.39695 -0.48039 0.8268 0.04606 1.6283 0.30197 2.3288 0.7436 0.7005 0.44163 1.2769 1.05446 1.675 1.78056ZM10 14.2485c-0.41421 0 -0.75 -0.3358 -0.75 -0.75s0.33579 -0.75 0.75 -0.75c0.4142 0 0.75 0.3358 0.75 0.75s-0.3358 0.75 -0.75 0.75Zm3 -0.75c0 0.4142 0.3358 0.75 0.75 0.75s0.75 -0.3358 0.75 -0.75 -0.3358 -0.75 -0.75 -0.75 -0.75 0.3358 -0.75 0.75Z" clip-rule="evenodd" stroke-width="1"></path></svg>