<svg width="53" height="53" viewBox="0 0 53 53" fill="none" xmlns="http://www.w3.org/2000/svg">
<path d="M40.5417 38.8734V32.9317C40.5417 32.5872 40.4125 32.2859 40.1542 32.0275C39.8958 31.7692 39.5944 31.64 39.25 31.64C38.9056 31.64 38.6042 31.7692 38.3458 32.0275C38.0875 32.2859 37.9583 32.5872 37.9583 32.9317V38.8734C37.9583 39.2178 38.0229 39.5407 38.1521 39.8421C38.2812 40.1435 38.475 40.4234 38.7333 40.6817L42.6729 44.6213C42.9313 44.8796 43.2326 45.0088 43.5771 45.0088C43.9215 45.0088 44.2229 44.8796 44.4813 44.6213C44.7396 44.3629 44.8688 44.0615 44.8688 43.7171C44.8688 43.3727 44.7396 43.0713 44.4813 42.8129L40.5417 38.8734ZM39.25 52.3067C35.6764 52.3067 32.6302 51.0473 30.1115 48.5286C27.5927 46.0098 26.3333 42.9636 26.3333 39.39C26.3333 35.8164 27.5927 32.7702 30.1115 30.2515C32.6302 27.7327 35.6764 26.4734 39.25 26.4734C42.8236 26.4734 45.8698 27.7327 48.3885 30.2515C50.9073 32.7702 52.1667 35.8164 52.1667 39.39C52.1667 42.9636 50.9073 46.0098 48.3885 48.5286C45.8698 51.0473 42.8236 52.3067 39.25 52.3067ZM13.4167 16.14H34.0833C34.8153 16.14 35.4288 15.8924 35.924 15.3973C36.4191 14.9022 36.6667 14.2886 36.6667 13.5567C36.6667 12.8247 36.4191 12.2112 35.924 11.7161C35.4288 11.2209 34.8153 10.9733 34.0833 10.9733H13.4167C12.6847 10.9733 12.0712 11.2209 11.576 11.7161C11.0809 12.2112 10.8333 12.8247 10.8333 13.5567C10.8333 14.2886 11.0809 14.9022 11.576 15.3973C12.0712 15.8924 12.6847 16.14 13.4167 16.14ZM5.66667 47.14C4.24583 47.14 3.02951 46.6341 2.01771 45.6223C1.0059 44.6105 0.5 43.3942 0.5 41.9734V5.80668C0.5 4.38585 1.0059 3.16953 2.01771 2.15772C3.02951 1.14592 4.24583 0.640015 5.66667 0.640015H41.8333C43.2542 0.640015 44.4705 1.14592 45.4823 2.15772C46.4941 3.16953 47 4.38585 47 5.80668V19.8858C47 20.6609 46.6771 21.2636 46.0313 21.6942C45.3854 22.1247 44.6965 22.2108 43.9646 21.9525C43.2326 21.7372 42.4684 21.5758 41.6719 21.4681C40.8754 21.3605 40.0681 21.3067 39.25 21.3067C38.7764 21.3067 38.3351 21.3174 37.926 21.339C37.517 21.3605 37.0972 21.4143 36.6667 21.5004C36.2792 21.4143 35.8486 21.3605 35.375 21.339C34.9014 21.3174 34.4708 21.3067 34.0833 21.3067H13.4167C12.6847 21.3067 12.0712 21.5543 11.576 22.0494C11.0809 22.5445 10.8333 23.1581 10.8333 23.89C10.8333 24.622 11.0809 25.2355 11.576 25.7306C12.0712 26.2258 12.6847 26.4734 13.4167 26.4734H26.6563C25.8813 27.2053 25.1816 28.0018 24.5573 28.8629C23.933 29.724 23.384 30.6497 22.9104 31.64H13.4167C12.6847 31.64 12.0712 31.8876 11.576 32.3827C11.0809 32.8779 10.8333 33.4914 10.8333 34.2234C10.8333 34.9553 11.0809 35.5688 11.576 36.064C12.0712 36.5591 12.6847 36.8067 13.4167 36.8067H21.3604C21.2743 37.2372 21.2205 37.657 21.199 38.0661C21.1774 38.4751 21.1667 38.9164 21.1667 39.39C21.1667 40.2511 21.2097 41.0692 21.2958 41.8442C21.3819 42.6192 21.5326 43.3727 21.7479 44.1046C21.9632 44.8365 21.8556 45.5254 21.425 46.1713C20.9944 46.8171 20.4132 47.14 19.6813 47.14H5.66667Z" fill="#365945"/>
</svg>
