<svg width="63" height="63" viewBox="0 0 63 63" fill="none" xmlns="http://www.w3.org/2000/svg">
<mask id="mask0_928_1350" style="mask-type:alpha" maskUnits="userSpaceOnUse" x="0" y="0" width="63" height="63">
<rect x="0.0830078" y="0.780029" width="62" height="62" fill="#D9D9D9"/>
</mask>
<g mask="url(#mask0_928_1350)">
<path d="M11.7083 32.103C9.9 32.103 8.37153 31.4787 7.12292 30.2301C5.87431 28.9814 5.25 27.453 5.25 25.6446C5.25 23.8363 5.87431 22.3078 7.12292 21.0592C8.37153 19.8106 9.9 19.1863 11.7083 19.1863C13.5167 19.1863 15.0451 19.8106 16.2938 21.0592C17.5424 22.3078 18.1667 23.8363 18.1667 25.6446C18.1667 27.453 17.5424 28.9814 16.2938 30.2301C15.0451 31.4787 13.5167 32.103 11.7083 32.103ZM23.3333 21.7696C21.525 21.7696 19.9965 21.1453 18.7479 19.8967C17.4993 18.6481 16.875 17.1196 16.875 15.3113C16.875 13.503 17.4993 11.9745 18.7479 10.7259C19.9965 9.47727 21.525 8.85297 23.3333 8.85297C25.1417 8.85297 26.6701 9.47727 27.9188 10.7259C29.1674 11.9745 29.7917 13.503 29.7917 15.3113C29.7917 17.1196 29.1674 18.6481 27.9188 19.8967C26.6701 21.1453 25.1417 21.7696 23.3333 21.7696ZM38.8333 21.7696C37.025 21.7696 35.4965 21.1453 34.2479 19.8967C32.9993 18.6481 32.375 17.1196 32.375 15.3113C32.375 13.503 32.9993 11.9745 34.2479 10.7259C35.4965 9.47727 37.025 8.85297 38.8333 8.85297C40.6417 8.85297 42.1701 9.47727 43.4188 10.7259C44.6674 11.9745 45.2917 13.503 45.2917 15.3113C45.2917 17.1196 44.6674 18.6481 43.4188 19.8967C42.1701 21.1453 40.6417 21.7696 38.8333 21.7696ZM50.4583 32.103C48.65 32.103 47.1215 31.4787 45.8729 30.2301C44.6243 28.9814 44 27.453 44 25.6446C44 23.8363 44.6243 22.3078 45.8729 21.0592C47.1215 19.8106 48.65 19.1863 50.4583 19.1863C52.2667 19.1863 53.7951 19.8106 55.0438 21.0592C56.2924 22.3078 56.9167 23.8363 56.9167 25.6446C56.9167 27.453 56.2924 28.9814 55.0438 30.2301C53.7951 31.4787 52.2667 32.103 50.4583 32.103ZM17.2625 57.9363C15.325 57.9363 13.6997 57.1936 12.3865 55.7082C11.0733 54.2228 10.4167 52.4682 10.4167 50.4446C10.4167 48.2057 11.1809 46.2467 12.7094 44.5675C14.2378 42.8884 15.7556 41.2307 17.2625 39.5946C18.5111 38.2599 19.5875 36.8068 20.4917 35.2353C21.3958 33.6637 22.4722 32.1891 23.7208 30.8113C24.6681 29.6919 25.766 28.7662 27.0146 28.0342C28.2632 27.3023 29.6194 26.9363 31.0833 26.9363C32.5472 26.9363 33.9035 27.2807 35.1521 27.9696C36.4007 28.6585 37.4986 29.5627 38.4458 30.6821C39.6514 32.0599 40.717 33.5453 41.6427 35.1384C42.5684 36.7314 43.6556 38.2169 44.9042 39.5946C46.4111 41.2307 47.9288 42.8884 49.4573 44.5675C50.9858 46.2467 51.75 48.2057 51.75 50.4446C51.75 52.4682 51.0934 54.2228 49.7802 55.7082C48.467 57.1936 46.8417 57.9363 44.9042 57.9363C42.5792 57.9363 40.2757 57.7425 37.9938 57.355C35.7118 56.9675 33.4083 56.7738 31.0833 56.7738C28.7583 56.7738 26.4549 56.9675 24.1729 57.355C21.891 57.7425 19.5875 57.9363 17.2625 57.9363Z" fill="#365945"/>
</g>
</svg>
