<svg width="63" height="63" viewBox="0 0 63 63" fill="none" xmlns="http://www.w3.org/2000/svg">
<mask id="mask0_1776_2744" style="mask-type:alpha" maskUnits="userSpaceOnUse" x="0" y="0" width="63" height="63">
<rect x="0.416992" y="0.890015" width="62" height="62" fill="#D9D9D9"/>
</mask>
<g mask="url(#mask0_1776_2744)">
<path d="M35.2923 57.7234C30.6423 57.7234 26.6812 56.0873 23.409 52.815C20.1368 49.5428 18.5007 45.5817 18.5007 40.9317V39.4463C14.7979 38.8435 11.7194 37.1105 9.26523 34.2473C6.81107 31.3841 5.58398 28.015 5.58398 24.14V11.2234C5.58398 10.4914 5.83155 9.87788 6.32669 9.38274C6.82183 8.8876 7.43537 8.64004 8.16732 8.64004H13.334C13.334 7.90809 13.5816 7.29455 14.0767 6.79941C14.5718 6.30427 15.1854 6.0567 15.9173 6.0567C16.6493 6.0567 17.2628 6.30427 17.7579 6.79941C18.2531 7.29455 18.5007 7.90809 18.5007 8.64004V13.8067C18.5007 14.5386 18.2531 15.1522 17.7579 15.6473C17.2628 16.1425 16.6493 16.39 15.9173 16.39C15.1854 16.39 14.5718 16.1425 14.0767 15.6473C13.5816 15.1522 13.334 14.5386 13.334 13.8067H10.7507V24.14C10.7507 26.9817 11.7625 29.4143 13.7861 31.438C15.8097 33.4616 18.2423 34.4734 21.084 34.4734C23.9257 34.4734 26.3583 33.4616 28.3819 31.438C30.4055 29.4143 31.4173 26.9817 31.4173 24.14V13.8067H28.834C28.834 14.5386 28.5864 15.1522 28.0913 15.6473C27.5961 16.1425 26.9826 16.39 26.2507 16.39C25.5187 16.39 24.9052 16.1425 24.41 15.6473C23.9149 15.1522 23.6673 14.5386 23.6673 13.8067V8.64004C23.6673 7.90809 23.9149 7.29455 24.41 6.79941C24.9052 6.30427 25.5187 6.0567 26.2507 6.0567C26.9826 6.0567 27.5961 6.30427 28.0913 6.79941C28.5864 7.29455 28.834 7.90809 28.834 8.64004H34.0007C34.7326 8.64004 35.3461 8.8876 35.8413 9.38274C36.3364 9.87788 36.584 10.4914 36.584 11.2234V24.14C36.584 28.015 35.3569 31.3841 32.9027 34.2473C30.4486 37.1105 27.3701 38.8435 23.6673 39.4463V40.9317C23.6673 44.1609 24.7975 46.9057 27.0579 49.1661C29.3184 51.4265 32.0632 52.5567 35.2923 52.5567C38.5215 52.5567 41.2663 51.4265 43.5267 49.1661C45.7871 46.9057 46.9173 44.1609 46.9173 40.9317V36.6046C45.4104 36.0449 44.1725 35.1084 43.2038 33.7952C42.235 32.482 41.7507 30.9859 41.7507 29.3067C41.7507 27.1539 42.5041 25.3241 44.0111 23.8171C45.518 22.3102 47.3479 21.5567 49.5007 21.5567C51.6534 21.5567 53.4833 22.3102 54.9902 23.8171C56.4972 25.3241 57.2507 27.1539 57.2507 29.3067C57.2507 30.9859 56.7663 32.482 55.7975 33.7952C54.8288 35.1084 53.5909 36.0449 52.084 36.6046V40.9317C52.084 45.5817 50.4479 49.5428 47.1757 52.815C43.9034 56.0873 39.9423 57.7234 35.2923 57.7234Z" fill="#365945"/>
</g>
</svg>
