<svg width="51" height="56" viewBox="0 0 51 56" fill="none" xmlns="http://www.w3.org/2000/svg">
<path fill-rule="evenodd" clip-rule="evenodd" d="M6.23341 55.1856C4.72603 55.1856 3.43518 54.6489 2.36189 53.5755C1.2886 52.5021 0.751953 51.2118 0.751953 49.7045V11.3367C0.751953 9.82943 1.2886 8.53909 2.36189 7.46567C3.43518 6.39232 4.72603 5.85561 6.23341 5.85561H17.7433C18.337 4.21129 19.3305 2.88667 20.7239 1.88182C22.1173 0.876937 23.6817 0.374512 25.417 0.374512C27.1522 0.374512 28.7166 0.876937 30.11 1.88182C31.5034 2.88667 32.497 4.21129 33.0906 5.85561H44.6005C46.1079 5.85561 47.3987 6.39232 48.472 7.46567C49.5453 8.53909 50.082 9.82943 50.082 11.3367V49.7045C50.082 51.2118 49.5453 52.5021 48.472 53.5755C47.3987 54.6489 46.1079 55.1856 44.6005 55.1856H6.23341ZM25.417 9.28132C26.0106 9.28132 26.5016 9.0872 26.8901 8.69896C27.2786 8.31072 27.4724 7.81966 27.4724 7.22591C27.4724 7.00569 27.4454 6.79959 27.3926 6.60768C27.3025 6.28205 27.1346 5.99709 26.8901 5.75285C26.5016 5.36461 26.0106 5.17049 25.417 5.17049C24.8233 5.17049 24.3323 5.36461 23.9438 5.75285C23.5553 6.14109 23.3615 6.63209 23.3615 7.22591C23.3615 7.81966 23.5553 8.31072 23.9438 8.69896C24.0919 8.84679 24.2546 8.96651 24.4317 9.05806C24.7208 9.20692 25.0492 9.28132 25.417 9.28132ZM16.843 29.3883C17.2896 29.835 17.8366 30.0584 18.483 30.0584C19.1305 30.0584 19.6775 29.835 20.124 29.3883C20.5706 28.9415 20.7943 28.3947 20.7943 27.7477C20.7943 27.1007 20.5706 26.5538 20.124 26.1071C19.6775 25.6603 19.1305 25.437 18.483 25.437C17.8366 25.437 17.2896 25.6603 16.843 26.1071C16.3965 26.5538 16.1728 27.1007 16.1728 27.7477C16.1728 28.3947 16.3965 28.9415 16.843 29.3883ZM21.0026 25.6912C21.4491 26.1379 21.9961 26.3613 22.6426 26.3613C23.2901 26.3613 23.8371 26.1379 24.2836 25.6912C24.7301 25.2445 24.9539 24.6976 24.9539 24.0506C24.9539 23.4036 24.7301 22.8567 24.2836 22.41C23.8371 21.9633 23.2901 21.7399 22.6426 21.7399C21.9961 21.7399 21.4491 21.9633 21.0026 22.41C20.555 22.8567 20.3323 23.4036 20.3323 24.0506C20.3323 24.6976 20.555 25.2445 21.0026 25.6912ZM26.5483 25.6912C26.9948 26.1379 27.5418 26.3613 28.1882 26.3613C28.8357 26.3613 29.3827 26.1379 29.8293 25.6912C30.2758 25.2445 30.4995 24.6976 30.4995 24.0506C30.4995 23.4036 30.2758 22.8567 29.8293 22.41C29.3827 21.9633 28.8357 21.7399 28.1882 21.7399C27.5418 21.7399 26.9948 21.9633 26.5483 22.41C26.1007 22.8567 25.878 23.4036 25.878 24.0506C25.878 24.6976 26.1007 25.2445 26.5483 25.6912ZM30.7068 29.3883C31.1543 29.835 31.7003 30.0584 32.3478 30.0584C32.9942 30.0584 33.5412 29.835 33.9888 29.3883C34.4353 28.9415 34.658 28.3947 34.658 27.7477C34.658 27.1007 34.4353 26.5538 33.9888 26.1071C33.5412 25.6603 32.9942 25.437 32.3478 25.437C31.7003 25.437 31.1543 25.6603 30.7068 26.1071C30.2602 26.5538 30.0375 27.1007 30.0375 27.7477C30.0375 28.3947 30.2602 28.9415 30.7068 29.3883ZM18.7265 38.504C19.1958 39.0355 19.777 39.3012 20.4711 39.3012C21.303 39.3012 22.1266 39.2319 22.943 39.0933C23.7594 38.9546 24.584 38.8853 25.4159 38.8853C26.2478 38.8853 27.0714 38.9546 27.8878 39.0933C28.7042 39.2319 29.5288 39.3012 30.3607 39.3012C31.0538 39.3012 31.635 39.0355 32.1053 38.504C32.5747 37.9726 32.8098 37.3448 32.8098 36.6208C32.8098 35.8198 32.5363 35.1189 31.9893 34.518C31.4423 33.9173 30.8994 33.3242 30.3607 32.7388C30.1193 32.4726 29.8945 32.1951 29.6873 31.9064C29.5102 31.6605 29.3454 31.4066 29.1932 31.1445C29.0378 30.8766 28.871 30.6173 28.6928 30.3665C28.4928 30.0835 28.2784 29.8114 28.0494 29.5501C27.7106 29.1495 27.318 28.826 26.8715 28.5796C26.425 28.3331 25.9391 28.2099 25.4159 28.2099C24.8917 28.2099 24.4069 28.3408 23.9603 28.6026C23.5128 28.8645 23.1201 29.1957 22.7814 29.5963C22.57 29.8291 22.3732 30.0695 22.1898 30.3178C21.9847 30.5952 21.7972 30.8823 21.6262 31.1791C21.303 31.7414 20.9176 32.2613 20.4711 32.7388C19.9314 33.3242 19.3885 33.9173 18.8415 34.518C18.2945 35.1189 18.021 35.8198 18.021 36.6208C18.021 37.3448 18.2561 37.9726 18.7265 38.504Z" fill="#365945"/>
</svg>
