<svg xmlns="http://www.w3.org/2000/svg" viewBox="0 0 24 24" id="Cat-Carrier-2--Streamline-Ultimate.svg" height="24" width="24"><desc>Cat Carrier 2 Streamline Icon: https://streamlinehq.com</desc><g><path d="M1.75 15.5a0.49 0.49 0 0 0 -0.39 0.19 0.48 0.48 0 0 0 -0.09 0.43l1.56 6.24a1.49 1.49 0 0 0 1.45 1.14h15.44a1.49 1.49 0 0 0 1.45 -1.14l1.56 -6.24a0.48 0.48 0 0 0 -0.09 -0.43 0.49 0.49 0 0 0 -0.39 -0.19Zm13.5 3a0.75 0.75 0 0 1 1.5 0v2a0.75 0.75 0 0 1 -1.5 0Zm-4 0a0.75 0.75 0 0 1 1.5 0v2a0.75 0.75 0 0 1 -1.5 0Zm-4 0a0.75 0.75 0 0 1 1.5 0v2a0.75 0.75 0 0 1 -1.5 0Z" fill="#0f6027" stroke-width="1"></path><path d="M24 13a1 1 0 0 0 -1 -1h-0.19l-1.6 -6.36a1.49 1.49 0 0 0 -1.49 -1.14h-3.25a4.5 4.5 0 0 0 -8.94 0H4.28a1.49 1.49 0 0 0 -1.45 1.14L1.23 12H1a1 1 0 1 0 0 2h22a1 1 0 0 0 1 -1Zm-7.25 -5v2a0.75 0.75 0 0 1 -1.5 0V8a0.75 0.75 0 0 1 1.5 0Zm-4 0v2a0.75 0.75 0 0 1 -1.5 0V8a0.75 0.75 0 0 1 1.5 0ZM8 7.25a0.76 0.76 0 0 1 0.75 0.75v2a0.75 0.75 0 0 1 -1.5 0V8A0.76 0.76 0 0 1 8 7.25Zm4 -4.75a2.5 2.5 0 0 1 2.45 2h-4.9a2.5 2.5 0 0 1 2.45 -2Z" fill="#0f6027" stroke-width="1"></path></g></svg>