<svg xmlns="http://www.w3.org/2000/svg" fill="none" viewBox="0 0 24 24" id="Veterinarian-Pet-Paw--Streamline-Ultimate.svg" height="24" width="24"><desc>Veterinarian Pet Paw Streamline Icon: https://streamlinehq.com</desc><path fill="#0f6027" fill-rule="evenodd" d="M6.2677 5.669C6.2677 5.081 6.3961 4.5224 6.6254 4.0226C8.0885 5.1545 9.9798 5.8091 11.9446 5.8091C12.709 5.8091 13.4753 5.7209 14.1848 5.5445L14.1858 5.668C14.181 8.7157 10.8787 10.6152 8.2418 9.0872C7.0219 8.3803 6.27 7.0779 6.2677 5.668ZM4.7978 5.669C4.7978 1.4897 9.3219 -1.1223 12.9413 0.9673C14.621 1.9371 15.6557 3.7294 15.6557 5.669C15.6557 9.8482 11.1316 12.4602 7.5123 10.3706C5.8325 9.4008 4.7978 7.6086 4.7978 5.669ZM19.3992 18.9161L21.3434 20.8613C21.9138 21.3709 21.9608 22.1176 21.7148 22.6938C21.4669 23.272 20.8916 23.76 20.1283 23.76H16.2163C14.7444 23.76 13.8732 21.9892 14.9913 20.8711L16.9463 18.9161C17.6222 18.2362 18.7223 18.2362 19.3982 18.9161ZM13.3812 16.719C13.3812 17.585 14.3187 18.1263 15.0687 17.6933C15.8187 17.2603 15.8187 16.1777 15.0687 15.7447C14.8977 15.646 14.7037 15.594 14.5062 15.594C13.884 15.594 13.3812 16.0977 13.3812 16.719ZM20.7153 16.719C20.7153 17.585 21.6528 18.1263 22.4027 17.6933C23.1527 17.2603 23.1527 16.1777 22.4027 15.7447C22.2317 15.646 22.0377 15.594 21.8402 15.594C21.219 15.594 20.7153 16.0977 20.7153 16.719ZM17.0482 15.252C17.0482 16.118 17.9857 16.6593 18.7357 16.2263C19.4857 15.7933 19.4857 14.7107 18.7357 14.2777C18.5647 14.179 18.3707 14.127 18.1732 14.127C17.5519 14.127 17.0482 14.6307 17.0482 15.252ZM1.0347 21.021C1.0347 16.2055 4.7733 12.2337 9.4957 11.8584C9.4934 11.8812 9.492 11.9041 9.4918 11.927V21.511H1.5237C1.2533 21.511 1.0342 21.2915 1.0347 21.021ZM16.1732 14.0212C16.0247 14.2626 15.9211 14.5288 15.8674 14.8071C14.3962 13.7584 12.3414 14.6957 12.1689 16.4941C12.0278 17.964 13.263 19.1973 14.7326 19.0542L13.9535 19.8343C13.441 20.3468 13.1519 20.926 13.0471 21.51H10.9617V11.926C10.9618 11.9031 10.9608 11.8802 10.9588 11.8574C12.8818 12.0111 14.7071 12.7684 16.1741 14.0212ZM4.9271 16.277C4.3614 16.277 4.0078 16.8895 4.2906 17.3795C4.4219 17.6069 4.6646 17.747 4.9271 17.747H5.5612V18.381C5.5612 18.9468 6.1737 19.3004 6.6636 19.0175C6.891 18.8862 7.0311 18.6436 7.0311 18.381V17.747H7.5672C8.1329 17.747 8.4866 17.1345 8.2037 16.6445C8.0724 16.4171 7.8297 16.277 7.5672 16.277H7.0311V15.741C7.0311 15.1752 6.4186 14.8216 5.9287 15.1045C5.7013 15.2358 5.5612 15.4784 5.5612 15.741V16.277H4.9271Z" clip-rule="evenodd" stroke-width="1"></path></svg>