<svg width="33" height="33" viewBox="0 0 33 33" fill="none" xmlns="http://www.w3.org/2000/svg">
<path d="M9.16667 0C4.11217 0 0 4.11217 0 9.16667V23.8333C0 28.8878 4.11217 33 9.16667 33H23.8333C28.8878 33 33 28.8878 33 23.8333V9.16667C33 4.11217 28.8878 0 23.8333 0H9.16667ZM9.16667 3.66667H23.8333C26.8657 3.66667 29.3333 6.13433 29.3333 9.16667V23.8333C29.3333 26.8657 26.8657 29.3333 23.8333 29.3333H9.16667C6.13433 29.3333 3.66667 26.8657 3.66667 23.8333V9.16667C3.66667 6.13433 6.13433 3.66667 9.16667 3.66667ZM25.6667 5.5C25.1804 5.5 24.7141 5.69315 24.3703 6.03697C24.0265 6.38079 23.8333 6.8471 23.8333 7.33333C23.8333 7.81956 24.0265 8.28588 24.3703 8.6297C24.7141 8.97351 25.1804 9.16667 25.6667 9.16667C26.1529 9.16667 26.6192 8.97351 26.963 8.6297C27.3068 8.28588 27.5 7.81956 27.5 7.33333C27.5 6.8471 27.3068 6.38079 26.963 6.03697C26.6192 5.69315 26.1529 5.5 25.6667 5.5ZM16.5 7.33333C11.4455 7.33333 7.33333 11.4455 7.33333 16.5C7.33333 21.5545 11.4455 25.6667 16.5 25.6667C21.5545 25.6667 25.6667 21.5545 25.6667 16.5C25.6667 11.4455 21.5545 7.33333 16.5 7.33333ZM16.5 11C19.5323 11 22 13.4677 22 16.5C22 19.5323 19.5323 22 16.5 22C13.4677 22 11 19.5323 11 16.5C11 13.4677 13.4677 11 16.5 11Z" fill="white"/>
</svg>
