<svg width="160" height="37" viewBox="0 0 160 37" fill="none" xmlns="http://www.w3.org/2000/svg">
<path d="M7.75721 7.97492C9.18948 7.76858 10.7067 9.33436 11.1437 11.4949C11.5806 13.6433 10.7917 15.5611 9.35941 15.7796C7.93928 15.998 6.40991 14.4323 5.96081 12.2717C5.51171 10.1233 6.32494 8.20554 7.75721 7.97492ZM16.4358 7.97492C17.8802 8.20554 18.6813 10.1233 18.2565 12.2717C17.7952 14.4323 16.278 15.998 14.8457 15.7796C13.4013 15.5611 12.6124 13.6433 13.0615 11.4949C13.4984 9.33436 15.0157 7.76858 16.4358 7.97492ZM1.26346 13.5583C2.64717 12.9636 4.52854 14.0439 5.51171 15.9252C6.43419 17.843 6.1186 19.8579 4.74702 20.4526C3.37544 21.0474 1.50621 19.9793 0.547323 18.0736C-0.411568 16.168 -0.071708 14.141 1.26346 13.5583ZM23.1116 13.5583C24.4468 14.141 24.7866 16.168 23.8277 18.0736C22.8688 19.9793 20.9996 21.0474 19.628 20.4526C18.2565 19.8579 17.9409 17.843 18.8634 15.9252C19.8465 14.0439 21.7279 12.9636 23.1116 13.5583ZM21.0846 26.643C21.1331 27.7839 20.2592 29.0462 19.2154 29.5196C17.0427 30.5149 14.4694 28.4515 12.054 28.4515C9.63858 28.4515 7.04108 30.5999 4.90481 29.5196C3.69103 28.9249 2.85352 27.3469 3.01131 26.0361C3.22979 24.2275 5.40247 23.2565 6.68908 21.9335C8.40052 20.222 9.6143 17.0055 12.054 17.0055C14.4816 17.0055 15.7682 20.1735 17.4068 21.9335C18.7541 23.4143 20.9996 24.6645 21.0846 26.643Z" fill="white"/>
<path d="M42.151 5.51401V13.89H40.471V10.326H36.883V13.89H35.203V5.51401H36.883V8.95801H40.471V5.51401H42.151ZM46.7566 13.998C46.1166 13.998 45.5406 13.858 45.0286 13.578C44.5166 13.29 44.1126 12.886 43.8166 12.366C43.5286 11.846 43.3846 11.246 43.3846 10.566C43.3846 9.88601 43.5326 9.28601 43.8286 8.76601C44.1326 8.24601 44.5446 7.84601 45.0646 7.56601C45.5846 7.27801 46.1646 7.13401 46.8046 7.13401C47.4446 7.13401 48.0246 7.27801 48.5446 7.56601C49.0646 7.84601 49.4726 8.24601 49.7686 8.76601C50.0726 9.28601 50.2246 9.88601 50.2246 10.566C50.2246 11.246 50.0686 11.846 49.7566 12.366C49.4526 12.886 49.0366 13.29 48.5086 13.578C47.9886 13.858 47.4046 13.998 46.7566 13.998ZM46.7566 12.534C47.0606 12.534 47.3446 12.462 47.6086 12.318C47.8806 12.166 48.0966 11.942 48.2566 11.646C48.4166 11.35 48.4966 10.99 48.4966 10.566C48.4966 9.93401 48.3286 9.45001 47.9926 9.11401C47.6646 8.77001 47.2606 8.59801 46.7806 8.59801C46.3006 8.59801 45.8966 8.77001 45.5686 9.11401C45.2486 9.45001 45.0886 9.93401 45.0886 10.566C45.0886 11.198 45.2446 11.686 45.5566 12.03C45.8766 12.366 46.2766 12.534 46.7566 12.534ZM54.0009 13.998C53.4569 13.998 52.9689 13.902 52.5369 13.71C52.1049 13.51 51.7609 13.242 51.5049 12.906C51.2569 12.57 51.1209 12.198 51.0969 11.79H52.7889C52.8209 12.046 52.9449 12.258 53.1609 12.426C53.3849 12.594 53.6609 12.678 53.9889 12.678C54.3089 12.678 54.5569 12.614 54.7329 12.486C54.9169 12.358 55.0089 12.194 55.0089 11.994C55.0089 11.778 54.8969 11.618 54.6729 11.514C54.4569 11.402 54.1089 11.282 53.6289 11.154C53.1329 11.034 52.7249 10.91 52.4049 10.782C52.0929 10.654 51.8209 10.458 51.5889 10.194C51.3649 9.93001 51.2529 9.57401 51.2529 9.12601C51.2529 8.75801 51.3569 8.42201 51.5649 8.11801C51.7809 7.81401 52.0849 7.57401 52.4769 7.39801C52.8769 7.22201 53.3449 7.13401 53.8809 7.13401C54.6729 7.13401 55.3049 7.33401 55.7769 7.73401C56.2489 8.12601 56.5089 8.65801 56.5569 9.33001H54.9489C54.9249 9.06601 54.8129 8.85801 54.6129 8.70601C54.4209 8.54601 54.1609 8.46601 53.8329 8.46601C53.5289 8.46601 53.2929 8.52201 53.1249 8.63401C52.9649 8.74601 52.8849 8.90201 52.8849 9.10201C52.8849 9.32601 52.9969 9.49801 53.2209 9.61801C53.4449 9.73001 53.7929 9.84601 54.2649 9.96601C54.7449 10.086 55.1409 10.21 55.4529 10.338C55.7649 10.466 56.0329 10.666 56.2569 10.938C56.4889 11.202 56.6089 11.554 56.6169 11.994C56.6169 12.378 56.5089 12.722 56.2929 13.026C56.0849 13.33 55.7809 13.57 55.3809 13.746C54.9889 13.914 54.5289 13.998 54.0009 13.998ZM59.676 8.20201C59.892 7.89801 60.188 7.64601 60.564 7.44601C60.948 7.23801 61.384 7.13401 61.872 7.13401C62.44 7.13401 62.952 7.27401 63.408 7.55401C63.872 7.83401 64.236 8.23401 64.5 8.75401C64.772 9.26601 64.908 9.86201 64.908 10.542C64.908 11.222 64.772 11.826 64.5 12.354C64.236 12.874 63.872 13.278 63.408 13.566C62.952 13.854 62.44 13.998 61.872 13.998C61.384 13.998 60.952 13.898 60.576 13.698C60.208 13.498 59.908 13.246 59.676 12.942V17.058H57.996V7.24201H59.676V8.20201ZM63.192 10.542C63.192 10.142 63.108 9.79801 62.94 9.51001C62.78 9.21401 62.564 8.99001 62.292 8.83801C62.028 8.68601 61.74 8.61001 61.428 8.61001C61.124 8.61001 60.836 8.69001 60.564 8.85001C60.3 9.00201 60.084 9.22601 59.916 9.52201C59.756 9.81801 59.676 10.166 59.676 10.566C59.676 10.966 59.756 11.314 59.916 11.61C60.084 11.906 60.3 12.134 60.564 12.294C60.836 12.446 61.124 12.522 61.428 12.522C61.74 12.522 62.028 12.442 62.292 12.282C62.564 12.122 62.78 11.894 62.94 11.598C63.108 11.302 63.192 10.95 63.192 10.542ZM66.9808 6.45001C66.6848 6.45001 66.4368 6.35801 66.2368 6.17401C66.0448 5.98201 65.9488 5.74601 65.9488 5.46601C65.9488 5.18601 66.0448 4.95401 66.2368 4.77001C66.4368 4.57801 66.6848 4.48201 66.9808 4.48201C67.2768 4.48201 67.5208 4.57801 67.7128 4.77001C67.9128 4.95401 68.0128 5.18601 68.0128 5.46601C68.0128 5.74601 67.9128 5.98201 67.7128 6.17401C67.5208 6.35801 67.2768 6.45001 66.9808 6.45001ZM67.8088 7.24201V13.89H66.1288V7.24201H67.8088ZM71.4246 8.62201V11.838C71.4246 12.062 71.4766 12.226 71.5806 12.33C71.6926 12.426 71.8766 12.474 72.1326 12.474H72.9126V13.89H71.8566C70.4406 13.89 69.7326 13.202 69.7326 11.826V8.62201H68.9406V7.24201H69.7326V5.59801H71.4246V7.24201H72.9126V8.62201H71.4246ZM73.689 10.542C73.689 9.87001 73.821 9.27401 74.085 8.75401C74.357 8.23401 74.721 7.83401 75.177 7.55401C75.641 7.27401 76.157 7.13401 76.725 7.13401C77.221 7.13401 77.653 7.23401 78.021 7.43401C78.397 7.63401 78.697 7.88601 78.921 8.19001V7.24201H80.613V13.89H78.921V12.918C78.705 13.23 78.405 13.49 78.021 13.698C77.645 13.898 77.209 13.998 76.713 13.998C76.153 13.998 75.641 13.854 75.177 13.566C74.721 13.278 74.357 12.874 74.085 12.354C73.821 11.826 73.689 11.222 73.689 10.542ZM78.921 10.566C78.921 10.158 78.841 9.81001 78.681 9.52201C78.521 9.22601 78.305 9.00201 78.033 8.85001C77.761 8.69001 77.469 8.61001 77.157 8.61001C76.845 8.61001 76.557 8.68601 76.293 8.83801C76.029 8.99001 75.813 9.21401 75.645 9.51001C75.485 9.79801 75.405 10.142 75.405 10.542C75.405 10.942 75.485 11.294 75.645 11.598C75.813 11.894 76.029 12.122 76.293 12.282C76.565 12.442 76.853 12.522 77.157 12.522C77.469 12.522 77.761 12.446 78.033 12.294C78.305 12.134 78.521 11.91 78.681 11.622C78.841 11.326 78.921 10.974 78.921 10.566ZM83.9338 5.01001V13.89H82.2538V5.01001H83.9338ZM95.977 5.51401L92.905 13.89H90.865L87.793 5.51401H89.593L91.897 12.174L94.189 5.51401H95.977ZM103.164 10.422C103.164 10.662 103.148 10.878 103.116 11.07H98.2563C98.2963 11.55 98.4643 11.926 98.7603 12.198C99.0563 12.47 99.4203 12.606 99.8523 12.606C100.476 12.606 100.92 12.338 101.184 11.802H102.996C102.804 12.442 102.436 12.97 101.892 13.386C101.348 13.794 100.68 13.998 99.8883 13.998C99.2483 13.998 98.6723 13.858 98.1603 13.578C97.6563 13.29 97.2603 12.886 96.9723 12.366C96.6923 11.846 96.5522 11.246 96.5522 10.566C96.5522 9.87801 96.6923 9.27401 96.9723 8.75401C97.2523 8.23401 97.6443 7.83401 98.1483 7.55401C98.6523 7.27401 99.2323 7.13401 99.8883 7.13401C100.52 7.13401 101.084 7.27001 101.58 7.54201C102.084 7.81401 102.472 8.20201 102.744 8.70601C103.024 9.20201 103.164 9.77401 103.164 10.422ZM101.424 9.94201C101.416 9.51001 101.26 9.16601 100.956 8.91001C100.652 8.64601 100.28 8.51401 99.8403 8.51401C99.4243 8.51401 99.0723 8.64201 98.7843 8.89801C98.5043 9.14601 98.3323 9.49401 98.2683 9.94201H101.424ZM106.347 8.62201V11.838C106.347 12.062 106.399 12.226 106.503 12.33C106.615 12.426 106.799 12.474 107.055 12.474H107.835V13.89H106.779C105.363 13.89 104.655 13.202 104.655 11.826V8.62201H103.863V7.24201H104.655V5.59801H106.347V7.24201H107.835V8.62201H106.347ZM115.223 10.422C115.223 10.662 115.207 10.878 115.175 11.07H110.315C110.355 11.55 110.523 11.926 110.819 12.198C111.115 12.47 111.479 12.606 111.911 12.606C112.535 12.606 112.979 12.338 113.243 11.802H115.055C114.863 12.442 114.495 12.97 113.951 13.386C113.407 13.794 112.739 13.998 111.947 13.998C111.307 13.998 110.731 13.858 110.219 13.578C109.715 13.29 109.319 12.886 109.031 12.366C108.751 11.846 108.611 11.246 108.611 10.566C108.611 9.87801 108.751 9.27401 109.031 8.75401C109.311 8.23401 109.703 7.83401 110.207 7.55401C110.711 7.27401 111.291 7.13401 111.947 7.13401C112.579 7.13401 113.143 7.27001 113.639 7.54201C114.143 7.81401 114.531 8.20201 114.803 8.70601C115.083 9.20201 115.223 9.77401 115.223 10.422ZM113.483 9.94201C113.475 9.51001 113.319 9.16601 113.015 8.91001C112.711 8.64601 112.339 8.51401 111.899 8.51401C111.483 8.51401 111.131 8.64201 110.843 8.89801C110.563 9.14601 110.391 9.49401 110.327 9.94201H113.483ZM118.129 8.27401C118.345 7.92201 118.625 7.64601 118.969 7.44601C119.321 7.24601 119.721 7.14601 120.169 7.14601V8.91001H119.725C119.197 8.91001 118.797 9.03401 118.525 9.28201C118.261 9.53001 118.129 9.96201 118.129 10.578V13.89H116.449V7.24201H118.129V8.27401ZM122.153 6.45001C121.857 6.45001 121.609 6.35801 121.409 6.17401C121.217 5.98201 121.121 5.74601 121.121 5.46601C121.121 5.18601 121.217 4.95401 121.409 4.77001C121.609 4.57801 121.857 4.48201 122.153 4.48201C122.449 4.48201 122.693 4.57801 122.885 4.77001C123.085 4.95401 123.185 5.18601 123.185 5.46601C123.185 5.74601 123.085 5.98201 122.885 6.17401C122.693 6.35801 122.449 6.45001 122.153 6.45001ZM122.981 7.24201V13.89H121.301V7.24201H122.981ZM128.325 7.14601C129.117 7.14601 129.757 7.39801 130.245 7.90201C130.733 8.39801 130.977 9.09401 130.977 9.99001V13.89H129.297V10.218C129.297 9.69001 129.165 9.28601 128.901 9.00601C128.637 8.71801 128.277 8.57401 127.821 8.57401C127.357 8.57401 126.989 8.71801 126.717 9.00601C126.453 9.28601 126.321 9.69001 126.321 10.218V13.89H124.641V7.24201H126.321V8.07001C126.545 7.78201 126.829 7.55801 127.173 7.39801C127.525 7.23001 127.909 7.14601 128.325 7.14601ZM132.142 10.542C132.142 9.87001 132.274 9.27401 132.538 8.75401C132.81 8.23401 133.174 7.83401 133.63 7.55401C134.094 7.27401 134.61 7.13401 135.178 7.13401C135.674 7.13401 136.106 7.23401 136.474 7.43401C136.85 7.63401 137.15 7.88601 137.374 8.19001V7.24201H139.066V13.89H137.374V12.918C137.158 13.23 136.858 13.49 136.474 13.698C136.098 13.898 135.662 13.998 135.166 13.998C134.606 13.998 134.094 13.854 133.63 13.566C133.174 13.278 132.81 12.874 132.538 12.354C132.274 11.826 132.142 11.222 132.142 10.542ZM137.374 10.566C137.374 10.158 137.294 9.81001 137.134 9.52201C136.974 9.22601 136.758 9.00201 136.486 8.85001C136.214 8.69001 135.922 8.61001 135.61 8.61001C135.298 8.61001 135.01 8.68601 134.746 8.83801C134.482 8.99001 134.266 9.21401 134.098 9.51001C133.938 9.79801 133.858 10.142 133.858 10.542C133.858 10.942 133.938 11.294 134.098 11.598C134.266 11.894 134.482 12.122 134.746 12.282C135.018 12.442 135.306 12.522 135.61 12.522C135.922 12.522 136.214 12.446 136.486 12.294C136.758 12.134 136.974 11.91 137.134 11.622C137.294 11.326 137.374 10.974 137.374 10.566ZM137.146 5.51401L134.386 6.77401V5.57401L137.146 4.14601V5.51401ZM142.387 8.27401C142.603 7.92201 142.883 7.64601 143.227 7.44601C143.579 7.24601 143.979 7.14601 144.427 7.14601V8.91001H143.983C143.455 8.91001 143.055 9.03401 142.783 9.28201C142.519 9.53001 142.387 9.96201 142.387 10.578V13.89H140.707V7.24201H142.387V8.27401ZM146.41 6.45001C146.114 6.45001 145.866 6.35801 145.666 6.17401C145.474 5.98201 145.378 5.74601 145.378 5.46601C145.378 5.18601 145.474 4.95401 145.666 4.77001C145.866 4.57801 146.114 4.48201 146.41 4.48201C146.706 4.48201 146.95 4.57801 147.142 4.77001C147.342 4.95401 147.442 5.18601 147.442 5.46601C147.442 5.74601 147.342 5.98201 147.142 6.17401C146.95 6.35801 146.706 6.45001 146.41 6.45001ZM147.238 7.24201V13.89H145.558V7.24201H147.238ZM151.85 13.998C151.21 13.998 150.634 13.858 150.122 13.578C149.61 13.29 149.206 12.886 148.91 12.366C148.622 11.846 148.478 11.246 148.478 10.566C148.478 9.88601 148.626 9.28601 148.922 8.76601C149.226 8.24601 149.638 7.84601 150.158 7.56601C150.678 7.27801 151.258 7.13401 151.898 7.13401C152.538 7.13401 153.118 7.27801 153.638 7.56601C154.158 7.84601 154.566 8.24601 154.862 8.76601C155.166 9.28601 155.318 9.88601 155.318 10.566C155.318 11.246 155.162 11.846 154.85 12.366C154.546 12.886 154.13 13.29 153.602 13.578C153.082 13.858 152.498 13.998 151.85 13.998ZM151.85 12.534C152.154 12.534 152.438 12.462 152.702 12.318C152.974 12.166 153.19 11.942 153.35 11.646C153.51 11.35 153.59 10.99 153.59 10.566C153.59 9.93401 153.422 9.45001 153.086 9.11401C152.758 8.77001 152.354 8.59801 151.874 8.59801C151.394 8.59801 150.99 8.77001 150.662 9.11401C150.342 9.45001 150.182 9.93401 150.182 10.566C150.182 11.198 150.338 11.686 150.65 12.03C150.97 12.366 151.37 12.534 151.85 12.534ZM36.859 23.514V28.698C36.859 29.266 37.007 29.702 37.303 30.006C37.599 30.302 38.015 30.45 38.551 30.45C39.095 30.45 39.515 30.302 39.811 30.006C40.107 29.702 40.255 29.266 40.255 28.698V23.514H41.947V28.686C41.947 29.398 41.791 30.002 41.479 30.498C41.175 30.986 40.763 31.354 40.243 31.602C39.731 31.85 39.159 31.974 38.527 31.974C37.903 31.974 37.335 31.85 36.823 31.602C36.319 31.354 35.919 30.986 35.623 30.498C35.327 30.002 35.179 29.398 35.179 28.686V23.514H36.859ZM47.2542 25.146C48.0462 25.146 48.6862 25.398 49.1742 25.902C49.6622 26.398 49.9062 27.094 49.9062 27.99V31.89H48.2262V28.218C48.2262 27.69 48.0942 27.286 47.8302 27.006C47.5662 26.718 47.2062 26.574 46.7502 26.574C46.2862 26.574 45.9182 26.718 45.6462 27.006C45.3822 27.286 45.2502 27.69 45.2502 28.218V31.89H43.5702V25.242H45.2502V26.07C45.4742 25.782 45.7582 25.558 46.1022 25.398C46.4542 25.23 46.8382 25.146 47.2542 25.146ZM52.3558 24.45C52.0598 24.45 51.8118 24.358 51.6118 24.174C51.4198 23.982 51.3238 23.746 51.3238 23.466C51.3238 23.186 51.4198 22.954 51.6118 22.77C51.8118 22.578 52.0598 22.482 52.3558 22.482C52.6518 22.482 52.8958 22.578 53.0878 22.77C53.2878 22.954 53.3878 23.186 53.3878 23.466C53.3878 23.746 53.2878 23.982 53.0878 24.174C52.8958 24.358 52.6518 24.45 52.3558 24.45ZM53.1838 25.242V31.89H51.5038V25.242H53.1838ZM57.6156 30.342L59.2956 25.242H61.0836L58.6236 31.89H56.5836L54.1356 25.242H55.9356L57.6156 30.342ZM68.2072 28.422C68.2072 28.662 68.1912 28.878 68.1592 29.07H63.2992C63.3392 29.55 63.5072 29.926 63.8032 30.198C64.0992 30.47 64.4632 30.606 64.8952 30.606C65.5192 30.606 65.9632 30.338 66.2272 29.802H68.0392C67.8472 30.442 67.4792 30.97 66.9352 31.386C66.3912 31.794 65.7232 31.998 64.9312 31.998C64.2912 31.998 63.7152 31.858 63.2032 31.578C62.6992 31.29 62.3032 30.886 62.0152 30.366C61.7352 29.846 61.5952 29.246 61.5952 28.566C61.5952 27.878 61.7352 27.274 62.0152 26.754C62.2952 26.234 62.6872 25.834 63.1912 25.554C63.6952 25.274 64.2752 25.134 64.9312 25.134C65.5632 25.134 66.1272 25.27 66.6232 25.542C67.1272 25.814 67.5152 26.202 67.7872 26.706C68.0672 27.202 68.2072 27.774 68.2072 28.422ZM66.4672 27.942C66.4592 27.51 66.3032 27.166 65.9992 26.91C65.6952 26.646 65.3232 26.514 64.8832 26.514C64.4672 26.514 64.1152 26.642 63.8272 26.898C63.5472 27.146 63.3752 27.494 63.3112 27.942H66.4672ZM71.1135 26.274C71.3295 25.922 71.6095 25.646 71.9535 25.446C72.3055 25.246 72.7055 25.146 73.1535 25.146V26.91H72.7095C72.1815 26.91 71.7815 27.034 71.5095 27.282C71.2455 27.53 71.1135 27.962 71.1135 28.578V31.89H69.4335V25.242H71.1135V26.274ZM76.829 31.998C76.285 31.998 75.797 31.902 75.365 31.71C74.933 31.51 74.589 31.242 74.333 30.906C74.085 30.57 73.949 30.198 73.925 29.79H75.617C75.649 30.046 75.773 30.258 75.989 30.426C76.213 30.594 76.489 30.678 76.817 30.678C77.137 30.678 77.385 30.614 77.561 30.486C77.745 30.358 77.837 30.194 77.837 29.994C77.837 29.778 77.725 29.618 77.501 29.514C77.285 29.402 76.937 29.282 76.457 29.154C75.961 29.034 75.553 28.91 75.233 28.782C74.921 28.654 74.649 28.458 74.417 28.194C74.193 27.93 74.081 27.574 74.081 27.126C74.081 26.758 74.185 26.422 74.393 26.118C74.609 25.814 74.913 25.574 75.305 25.398C75.705 25.222 76.173 25.134 76.709 25.134C77.501 25.134 78.133 25.334 78.605 25.734C79.077 26.126 79.337 26.658 79.385 27.33H77.777C77.753 27.066 77.641 26.858 77.441 26.706C77.249 26.546 76.989 26.466 76.661 26.466C76.357 26.466 76.121 26.522 75.953 26.634C75.793 26.746 75.713 26.902 75.713 27.102C75.713 27.326 75.825 27.498 76.049 27.618C76.273 27.73 76.621 27.846 77.093 27.966C77.573 28.086 77.969 28.21 78.281 28.338C78.593 28.466 78.861 28.666 79.085 28.938C79.317 29.202 79.437 29.554 79.445 29.994C79.445 30.378 79.337 30.722 79.121 31.026C78.913 31.33 78.609 31.57 78.209 31.746C77.817 31.914 77.357 31.998 76.829 31.998ZM81.6761 24.45C81.3801 24.45 81.1321 24.358 80.9321 24.174C80.7401 23.982 80.6441 23.746 80.6441 23.466C80.6441 23.186 80.7401 22.954 80.9321 22.77C81.1321 22.578 81.3801 22.482 81.6761 22.482C81.9721 22.482 82.2161 22.578 82.4081 22.77C82.6081 22.954 82.7081 23.186 82.7081 23.466C82.7081 23.746 82.6081 23.982 82.4081 24.174C82.2161 24.358 81.9721 24.45 81.6761 24.45ZM82.5041 25.242V31.89H80.8241V25.242H82.5041ZM86.1199 26.622V29.838C86.1199 30.062 86.1719 30.226 86.2759 30.33C86.3879 30.426 86.5719 30.474 86.8279 30.474H87.6079V31.89H86.5519C85.1359 31.89 84.4279 31.202 84.4279 29.826V26.622H83.6359V25.242H84.4279V23.598H86.1199V25.242H87.6079V26.622H86.1199ZM88.3843 28.542C88.3843 27.87 88.5163 27.274 88.7803 26.754C89.0523 26.234 89.4163 25.834 89.8723 25.554C90.3363 25.274 90.8523 25.134 91.4203 25.134C91.9163 25.134 92.3483 25.234 92.7163 25.434C93.0923 25.634 93.3923 25.886 93.6163 26.19V25.242H95.3083V31.89H93.6163V30.918C93.4003 31.23 93.1003 31.49 92.7163 31.698C92.3403 31.898 91.9043 31.998 91.4083 31.998C90.8483 31.998 90.3363 31.854 89.8723 31.566C89.4163 31.278 89.0523 30.874 88.7803 30.354C88.5163 29.826 88.3843 29.222 88.3843 28.542ZM93.6163 28.566C93.6163 28.158 93.5363 27.81 93.3763 27.522C93.2163 27.226 93.0003 27.002 92.7283 26.85C92.4563 26.69 92.1643 26.61 91.8523 26.61C91.5403 26.61 91.2523 26.686 90.9883 26.838C90.7243 26.99 90.5083 27.214 90.3403 27.51C90.1803 27.798 90.1003 28.142 90.1003 28.542C90.1003 28.942 90.1803 29.294 90.3403 29.598C90.5083 29.894 90.7243 30.122 90.9883 30.282C91.2603 30.442 91.5483 30.522 91.8523 30.522C92.1643 30.522 92.4563 30.446 92.7283 30.294C93.0003 30.134 93.2163 29.91 93.3763 29.622C93.5363 29.326 93.6163 28.974 93.6163 28.566ZM93.3883 23.514L90.6283 24.774V23.574L93.3883 22.146V23.514ZM98.6291 26.274C98.8451 25.922 99.1251 25.646 99.4691 25.446C99.8211 25.246 100.221 25.146 100.669 25.146V26.91H100.225C99.6971 26.91 99.2971 27.034 99.0251 27.282C98.7611 27.53 98.6291 27.962 98.6291 28.578V31.89H96.9491V25.242H98.6291V26.274ZM102.653 24.45C102.357 24.45 102.109 24.358 101.909 24.174C101.717 23.982 101.621 23.746 101.621 23.466C101.621 23.186 101.717 22.954 101.909 22.77C102.109 22.578 102.357 22.482 102.653 22.482C102.949 22.482 103.193 22.578 103.385 22.77C103.585 22.954 103.685 23.186 103.685 23.466C103.685 23.746 103.585 23.982 103.385 24.174C103.193 24.358 102.949 24.45 102.653 24.45ZM103.481 25.242V31.89H101.801V25.242H103.481ZM108.093 31.998C107.453 31.998 106.877 31.858 106.365 31.578C105.853 31.29 105.449 30.886 105.153 30.366C104.865 29.846 104.721 29.246 104.721 28.566C104.721 27.886 104.869 27.286 105.165 26.766C105.469 26.246 105.881 25.846 106.401 25.566C106.921 25.278 107.501 25.134 108.141 25.134C108.781 25.134 109.361 25.278 109.881 25.566C110.401 25.846 110.809 26.246 111.105 26.766C111.409 27.286 111.561 27.886 111.561 28.566C111.561 29.246 111.405 29.846 111.092 30.366C110.789 30.886 110.373 31.29 109.845 31.578C109.325 31.858 108.741 31.998 108.093 31.998ZM108.093 30.534C108.397 30.534 108.681 30.462 108.945 30.318C109.217 30.166 109.433 29.942 109.593 29.646C109.753 29.35 109.833 28.99 109.833 28.566C109.833 27.934 109.665 27.45 109.329 27.114C109.001 26.77 108.597 26.598 108.117 26.598C107.637 26.598 107.233 26.77 106.905 27.114C106.585 27.45 106.425 27.934 106.425 28.566C106.425 29.198 106.581 29.686 106.893 30.03C107.213 30.366 107.613 30.534 108.093 30.534Z" fill="white"/>
</svg>
