<svg width="60" height="60" viewBox="0 0 60 60" fill="none" xmlns="http://www.w3.org/2000/svg">
<path d="M30.4017 50.9808C23.0022 50.9808 16.4609 47.1922 12.6428 41.5093C12.7316 35.5897 24.4821 32.3339 30.4017 32.3339C36.3214 32.3339 48.0719 35.5897 48.1607 41.5093C44.3425 47.1922 37.8013 50.9808 30.4017 50.9808ZM30.4017 8.95126C32.7567 8.95126 35.0152 9.88677 36.6805 11.552C38.3457 13.2172 39.2812 15.4758 39.2812 17.8307C39.2812 20.1857 38.3457 22.4443 36.6805 24.1095C35.0152 25.7747 32.7567 26.7102 30.4017 26.7102C28.0467 26.7102 25.7882 25.7747 24.123 24.1095C22.4578 22.4443 21.5223 20.1857 21.5223 17.8307C21.5223 15.4758 22.4578 13.2172 24.123 11.552C25.7882 9.88677 28.0467 8.95126 30.4017 8.95126ZM30.4017 0.0717773C26.5148 0.0717773 22.666 0.837359 19.075 2.32481C15.4839 3.81226 12.2211 5.99246 9.4726 8.74091C3.92185 14.2917 0.803467 21.8201 0.803467 29.67C0.803467 37.52 3.92185 45.0484 9.4726 50.5992C12.2211 53.3476 15.4839 55.5278 19.075 57.0153C22.666 58.5027 26.5148 59.2683 30.4017 59.2683C38.2517 59.2683 45.7801 56.1499 51.3309 50.5992C56.8816 45.0484 60 37.52 60 29.67C60 13.3022 46.6808 0.0717773 30.4017 0.0717773Z" fill="#909090"/>
</svg>
