<svg width="160" height="37" viewBox="0 0 160 37" fill="none" xmlns="http://www.w3.org/2000/svg">
<path d="M7.75721 7.75495C9.18948 7.54861 10.7067 9.11439 11.1437 11.2749C11.5806 13.4233 10.7917 15.3411 9.35941 15.5596C7.93928 15.7781 6.40991 14.2123 5.96081 12.0518C5.51171 9.90335 6.32494 7.98557 7.75721 7.75495ZM16.4358 7.75495C17.8802 7.98557 18.6813 9.90335 18.2565 12.0518C17.7952 14.2123 16.278 15.7781 14.8457 15.5596C13.4013 15.3411 12.6124 13.4233 13.0615 11.2749C13.4984 9.11439 15.0157 7.54861 16.4358 7.75495ZM1.26346 13.3384C2.64717 12.7436 4.52854 13.8239 5.51171 15.7053C6.43419 17.623 6.1186 19.6379 4.74702 20.2327C3.37544 20.8274 1.50621 19.7593 0.547323 17.8537C-0.411568 15.948 -0.071708 13.921 1.26346 13.3384ZM23.1116 13.3384C24.4468 13.921 24.7866 15.948 23.8277 17.8537C22.8688 19.7593 20.9996 20.8274 19.628 20.2327C18.2565 19.6379 17.9409 17.623 18.8634 15.7053C19.8465 13.8239 21.7279 12.7436 23.1116 13.3384ZM21.0846 26.423C21.1331 27.5639 20.2592 28.8263 19.2154 29.2997C17.0427 30.295 14.4694 28.2315 12.054 28.2315C9.63858 28.2315 7.04108 30.3799 4.90481 29.2997C3.69103 28.7049 2.85352 27.127 3.01131 25.8161C3.22979 24.0075 5.40247 23.0365 6.68908 21.7135C8.40052 20.0021 9.6143 16.7855 12.054 16.7855C14.4816 16.7855 15.7682 19.9535 17.4068 21.7135C18.7541 23.1943 20.9996 24.4445 21.0846 26.423Z" fill="#272727"/>
<path d="M42.151 5.29404V13.67H40.471V10.106H36.883V13.67H35.203V5.29404H36.883V8.73804H40.471V5.29404H42.151ZM46.7566 13.778C46.1166 13.778 45.5406 13.638 45.0286 13.358C44.5166 13.07 44.1126 12.666 43.8166 12.146C43.5286 11.626 43.3846 11.026 43.3846 10.346C43.3846 9.66604 43.5326 9.06604 43.8286 8.54604C44.1326 8.02604 44.5446 7.62604 45.0646 7.34604C45.5846 7.05804 46.1646 6.91404 46.8046 6.91404C47.4446 6.91404 48.0246 7.05804 48.5446 7.34604C49.0646 7.62604 49.4726 8.02604 49.7686 8.54604C50.0726 9.06604 50.2246 9.66604 50.2246 10.346C50.2246 11.026 50.0686 11.626 49.7566 12.146C49.4526 12.666 49.0366 13.07 48.5086 13.358C47.9886 13.638 47.4046 13.778 46.7566 13.778ZM46.7566 12.314C47.0606 12.314 47.3446 12.242 47.6086 12.098C47.8806 11.946 48.0966 11.722 48.2566 11.426C48.4166 11.13 48.4966 10.77 48.4966 10.346C48.4966 9.71404 48.3286 9.23004 47.9926 8.89404C47.6646 8.55004 47.2606 8.37804 46.7806 8.37804C46.3006 8.37804 45.8966 8.55004 45.5686 8.89404C45.2486 9.23004 45.0886 9.71404 45.0886 10.346C45.0886 10.978 45.2446 11.466 45.5566 11.81C45.8766 12.146 46.2766 12.314 46.7566 12.314ZM54.0009 13.778C53.4569 13.778 52.9689 13.682 52.5369 13.49C52.1049 13.29 51.7609 13.022 51.5049 12.686C51.2569 12.35 51.1209 11.978 51.0969 11.57H52.7889C52.8209 11.826 52.9449 12.038 53.1609 12.206C53.3849 12.374 53.6609 12.458 53.9889 12.458C54.3089 12.458 54.5569 12.394 54.7329 12.266C54.9169 12.138 55.0089 11.974 55.0089 11.774C55.0089 11.558 54.8969 11.398 54.6729 11.294C54.4569 11.182 54.1089 11.062 53.6289 10.934C53.1329 10.814 52.7249 10.69 52.4049 10.562C52.0929 10.434 51.8209 10.238 51.5889 9.97404C51.3649 9.71004 51.2529 9.35404 51.2529 8.90604C51.2529 8.53804 51.3569 8.20204 51.5649 7.89804C51.7809 7.59404 52.0849 7.35404 52.4769 7.17804C52.8769 7.00204 53.3449 6.91404 53.8809 6.91404C54.6729 6.91404 55.3049 7.11404 55.7769 7.51404C56.2489 7.90604 56.5089 8.43804 56.5569 9.11004H54.9489C54.9249 8.84604 54.8129 8.63804 54.6129 8.48604C54.4209 8.32604 54.1609 8.24604 53.8329 8.24604C53.5289 8.24604 53.2929 8.30204 53.1249 8.41404C52.9649 8.52604 52.8849 8.68204 52.8849 8.88204C52.8849 9.10604 52.9969 9.27804 53.2209 9.39804C53.4449 9.51004 53.7929 9.62604 54.2649 9.74604C54.7449 9.86604 55.1409 9.99004 55.4529 10.118C55.7649 10.246 56.0329 10.446 56.2569 10.718C56.4889 10.982 56.6089 11.334 56.6169 11.774C56.6169 12.158 56.5089 12.502 56.2929 12.806C56.0849 13.11 55.7809 13.35 55.3809 13.526C54.9889 13.694 54.5289 13.778 54.0009 13.778ZM59.676 7.98204C59.892 7.67804 60.188 7.42604 60.564 7.22604C60.948 7.01804 61.384 6.91404 61.872 6.91404C62.44 6.91404 62.952 7.05404 63.408 7.33404C63.872 7.61404 64.236 8.01404 64.5 8.53404C64.772 9.04604 64.908 9.64204 64.908 10.322C64.908 11.002 64.772 11.606 64.5 12.134C64.236 12.654 63.872 13.058 63.408 13.346C62.952 13.634 62.44 13.778 61.872 13.778C61.384 13.778 60.952 13.678 60.576 13.478C60.208 13.278 59.908 13.026 59.676 12.722V16.838H57.996V7.02204H59.676V7.98204ZM63.192 10.322C63.192 9.92204 63.108 9.57804 62.94 9.29004C62.78 8.99404 62.564 8.77004 62.292 8.61804C62.028 8.46604 61.74 8.39004 61.428 8.39004C61.124 8.39004 60.836 8.47004 60.564 8.63004C60.3 8.78204 60.084 9.00604 59.916 9.30204C59.756 9.59804 59.676 9.94604 59.676 10.346C59.676 10.746 59.756 11.094 59.916 11.39C60.084 11.686 60.3 11.914 60.564 12.074C60.836 12.226 61.124 12.302 61.428 12.302C61.74 12.302 62.028 12.222 62.292 12.062C62.564 11.902 62.78 11.674 62.94 11.378C63.108 11.082 63.192 10.73 63.192 10.322ZM66.9808 6.23004C66.6848 6.23004 66.4368 6.13804 66.2368 5.95404C66.0448 5.76204 65.9488 5.52604 65.9488 5.24604C65.9488 4.96604 66.0448 4.73404 66.2368 4.55004C66.4368 4.35804 66.6848 4.26204 66.9808 4.26204C67.2768 4.26204 67.5208 4.35804 67.7128 4.55004C67.9128 4.73404 68.0128 4.96604 68.0128 5.24604C68.0128 5.52604 67.9128 5.76204 67.7128 5.95404C67.5208 6.13804 67.2768 6.23004 66.9808 6.23004ZM67.8088 7.02204V13.67H66.1288V7.02204H67.8088ZM71.4246 8.40204V11.618C71.4246 11.842 71.4766 12.006 71.5806 12.11C71.6926 12.206 71.8766 12.254 72.1326 12.254H72.9126V13.67H71.8566C70.4406 13.67 69.7326 12.982 69.7326 11.606V8.40204H68.9406V7.02204H69.7326V5.37804H71.4246V7.02204H72.9126V8.40204H71.4246ZM73.689 10.322C73.689 9.65004 73.821 9.05404 74.085 8.53404C74.357 8.01404 74.721 7.61404 75.177 7.33404C75.641 7.05404 76.157 6.91404 76.725 6.91404C77.221 6.91404 77.653 7.01404 78.021 7.21404C78.397 7.41404 78.697 7.66604 78.921 7.97004V7.02204H80.613V13.67H78.921V12.698C78.705 13.01 78.405 13.27 78.021 13.478C77.645 13.678 77.209 13.778 76.713 13.778C76.153 13.778 75.641 13.634 75.177 13.346C74.721 13.058 74.357 12.654 74.085 12.134C73.821 11.606 73.689 11.002 73.689 10.322ZM78.921 10.346C78.921 9.93804 78.841 9.59004 78.681 9.30204C78.521 9.00604 78.305 8.78204 78.033 8.63004C77.761 8.47004 77.469 8.39004 77.157 8.39004C76.845 8.39004 76.557 8.46604 76.293 8.61804C76.029 8.77004 75.813 8.99404 75.645 9.29004C75.485 9.57804 75.405 9.92204 75.405 10.322C75.405 10.722 75.485 11.074 75.645 11.378C75.813 11.674 76.029 11.902 76.293 12.062C76.565 12.222 76.853 12.302 77.157 12.302C77.469 12.302 77.761 12.226 78.033 12.074C78.305 11.914 78.521 11.69 78.681 11.402C78.841 11.106 78.921 10.754 78.921 10.346ZM83.9338 4.79004V13.67H82.2538V4.79004H83.9338ZM95.977 5.29404L92.905 13.67H90.865L87.793 5.29404H89.593L91.897 11.954L94.189 5.29404H95.977ZM103.164 10.202C103.164 10.442 103.148 10.658 103.116 10.85H98.2563C98.2963 11.33 98.4643 11.706 98.7603 11.978C99.0563 12.25 99.4203 12.386 99.8523 12.386C100.476 12.386 100.92 12.118 101.184 11.582H102.996C102.804 12.222 102.436 12.75 101.892 13.166C101.348 13.574 100.68 13.778 99.8883 13.778C99.2483 13.778 98.6723 13.638 98.1603 13.358C97.6563 13.07 97.2603 12.666 96.9723 12.146C96.6923 11.626 96.5522 11.026 96.5522 10.346C96.5522 9.65804 96.6923 9.05404 96.9723 8.53404C97.2523 8.01404 97.6443 7.61404 98.1483 7.33404C98.6523 7.05404 99.2323 6.91404 99.8883 6.91404C100.52 6.91404 101.084 7.05004 101.58 7.32204C102.084 7.59404 102.472 7.98204 102.744 8.48604C103.024 8.98204 103.164 9.55404 103.164 10.202ZM101.424 9.72204C101.416 9.29004 101.26 8.94604 100.956 8.69004C100.652 8.42604 100.28 8.29404 99.8403 8.29404C99.4243 8.29404 99.0723 8.42204 98.7843 8.67804C98.5043 8.92604 98.3323 9.27404 98.2683 9.72204H101.424ZM106.347 8.40204V11.618C106.347 11.842 106.399 12.006 106.503 12.11C106.615 12.206 106.799 12.254 107.055 12.254H107.835V13.67H106.779C105.363 13.67 104.655 12.982 104.655 11.606V8.40204H103.863V7.02204H104.655V5.37804H106.347V7.02204H107.835V8.40204H106.347ZM115.223 10.202C115.223 10.442 115.207 10.658 115.175 10.85H110.315C110.355 11.33 110.523 11.706 110.819 11.978C111.115 12.25 111.479 12.386 111.911 12.386C112.535 12.386 112.979 12.118 113.243 11.582H115.055C114.863 12.222 114.495 12.75 113.951 13.166C113.407 13.574 112.739 13.778 111.947 13.778C111.307 13.778 110.731 13.638 110.219 13.358C109.715 13.07 109.319 12.666 109.031 12.146C108.751 11.626 108.611 11.026 108.611 10.346C108.611 9.65804 108.751 9.05404 109.031 8.53404C109.311 8.01404 109.703 7.61404 110.207 7.33404C110.711 7.05404 111.291 6.91404 111.947 6.91404C112.579 6.91404 113.143 7.05004 113.639 7.32204C114.143 7.59404 114.531 7.98204 114.803 8.48604C115.083 8.98204 115.223 9.55404 115.223 10.202ZM113.483 9.72204C113.475 9.29004 113.319 8.94604 113.015 8.69004C112.711 8.42604 112.339 8.29404 111.899 8.29404C111.483 8.29404 111.131 8.42204 110.843 8.67804C110.563 8.92604 110.391 9.27404 110.327 9.72204H113.483ZM118.129 8.05404C118.345 7.70204 118.625 7.42604 118.969 7.22604C119.321 7.02604 119.721 6.92604 120.169 6.92604V8.69004H119.725C119.197 8.69004 118.797 8.81404 118.525 9.06204C118.261 9.31004 118.129 9.74204 118.129 10.358V13.67H116.449V7.02204H118.129V8.05404ZM122.153 6.23004C121.857 6.23004 121.609 6.13804 121.409 5.95404C121.217 5.76204 121.121 5.52604 121.121 5.24604C121.121 4.96604 121.217 4.73404 121.409 4.55004C121.609 4.35804 121.857 4.26204 122.153 4.26204C122.449 4.26204 122.693 4.35804 122.885 4.55004C123.085 4.73404 123.185 4.96604 123.185 5.24604C123.185 5.52604 123.085 5.76204 122.885 5.95404C122.693 6.13804 122.449 6.23004 122.153 6.23004ZM122.981 7.02204V13.67H121.301V7.02204H122.981ZM128.325 6.92604C129.117 6.92604 129.757 7.17804 130.245 7.68204C130.733 8.17804 130.977 8.87404 130.977 9.77004V13.67H129.297V9.99804C129.297 9.47004 129.165 9.06604 128.901 8.78604C128.637 8.49804 128.277 8.35404 127.821 8.35404C127.357 8.35404 126.989 8.49804 126.717 8.78604C126.453 9.06604 126.321 9.47004 126.321 9.99804V13.67H124.641V7.02204H126.321V7.85004C126.545 7.56204 126.829 7.33804 127.173 7.17804C127.525 7.01004 127.909 6.92604 128.325 6.92604ZM132.142 10.322C132.142 9.65004 132.274 9.05404 132.538 8.53404C132.81 8.01404 133.174 7.61404 133.63 7.33404C134.094 7.05404 134.61 6.91404 135.178 6.91404C135.674 6.91404 136.106 7.01404 136.474 7.21404C136.85 7.41404 137.15 7.66604 137.374 7.97004V7.02204H139.066V13.67H137.374V12.698C137.158 13.01 136.858 13.27 136.474 13.478C136.098 13.678 135.662 13.778 135.166 13.778C134.606 13.778 134.094 13.634 133.63 13.346C133.174 13.058 132.81 12.654 132.538 12.134C132.274 11.606 132.142 11.002 132.142 10.322ZM137.374 10.346C137.374 9.93804 137.294 9.59004 137.134 9.30204C136.974 9.00604 136.758 8.78204 136.486 8.63004C136.214 8.47004 135.922 8.39004 135.61 8.39004C135.298 8.39004 135.01 8.46604 134.746 8.61804C134.482 8.77004 134.266 8.99404 134.098 9.29004C133.938 9.57804 133.858 9.92204 133.858 10.322C133.858 10.722 133.938 11.074 134.098 11.378C134.266 11.674 134.482 11.902 134.746 12.062C135.018 12.222 135.306 12.302 135.61 12.302C135.922 12.302 136.214 12.226 136.486 12.074C136.758 11.914 136.974 11.69 137.134 11.402C137.294 11.106 137.374 10.754 137.374 10.346ZM137.146 5.29404L134.386 6.55404V5.35404L137.146 3.92604V5.29404ZM142.387 8.05404C142.603 7.70204 142.883 7.42604 143.227 7.22604C143.579 7.02604 143.979 6.92604 144.427 6.92604V8.69004H143.983C143.455 8.69004 143.055 8.81404 142.783 9.06204C142.519 9.31004 142.387 9.74204 142.387 10.358V13.67H140.707V7.02204H142.387V8.05404ZM146.41 6.23004C146.114 6.23004 145.866 6.13804 145.666 5.95404C145.474 5.76204 145.378 5.52604 145.378 5.24604C145.378 4.96604 145.474 4.73404 145.666 4.55004C145.866 4.35804 146.114 4.26204 146.41 4.26204C146.706 4.26204 146.95 4.35804 147.142 4.55004C147.342 4.73404 147.442 4.96604 147.442 5.24604C147.442 5.52604 147.342 5.76204 147.142 5.95404C146.95 6.13804 146.706 6.23004 146.41 6.23004ZM147.238 7.02204V13.67H145.558V7.02204H147.238ZM151.85 13.778C151.21 13.778 150.634 13.638 150.122 13.358C149.61 13.07 149.206 12.666 148.91 12.146C148.622 11.626 148.478 11.026 148.478 10.346C148.478 9.66604 148.626 9.06604 148.922 8.54604C149.226 8.02604 149.638 7.62604 150.158 7.34604C150.678 7.05804 151.258 6.91404 151.898 6.91404C152.538 6.91404 153.118 7.05804 153.638 7.34604C154.158 7.62604 154.566 8.02604 154.862 8.54604C155.166 9.06604 155.318 9.66604 155.318 10.346C155.318 11.026 155.162 11.626 154.85 12.146C154.546 12.666 154.13 13.07 153.602 13.358C153.082 13.638 152.498 13.778 151.85 13.778ZM151.85 12.314C152.154 12.314 152.438 12.242 152.702 12.098C152.974 11.946 153.19 11.722 153.35 11.426C153.51 11.13 153.59 10.77 153.59 10.346C153.59 9.71404 153.422 9.23004 153.086 8.89404C152.758 8.55004 152.354 8.37804 151.874 8.37804C151.394 8.37804 150.99 8.55004 150.662 8.89404C150.342 9.23004 150.182 9.71404 150.182 10.346C150.182 10.978 150.338 11.466 150.65 11.81C150.97 12.146 151.37 12.314 151.85 12.314ZM36.859 23.294V28.478C36.859 29.046 37.007 29.482 37.303 29.786C37.599 30.082 38.015 30.23 38.551 30.23C39.095 30.23 39.515 30.082 39.811 29.786C40.107 29.482 40.255 29.046 40.255 28.478V23.294H41.947V28.466C41.947 29.178 41.791 29.782 41.479 30.278C41.175 30.766 40.763 31.134 40.243 31.382C39.731 31.63 39.159 31.754 38.527 31.754C37.903 31.754 37.335 31.63 36.823 31.382C36.319 31.134 35.919 30.766 35.623 30.278C35.327 29.782 35.179 29.178 35.179 28.466V23.294H36.859ZM47.2542 24.926C48.0462 24.926 48.6862 25.178 49.1742 25.682C49.6622 26.178 49.9062 26.874 49.9062 27.77V31.67H48.2262V27.998C48.2262 27.47 48.0942 27.066 47.8302 26.786C47.5662 26.498 47.2062 26.354 46.7502 26.354C46.2862 26.354 45.9182 26.498 45.6462 26.786C45.3822 27.066 45.2502 27.47 45.2502 27.998V31.67H43.5702V25.022H45.2502V25.85C45.4742 25.562 45.7582 25.338 46.1022 25.178C46.4542 25.01 46.8382 24.926 47.2542 24.926ZM52.3558 24.23C52.0598 24.23 51.8118 24.138 51.6118 23.954C51.4198 23.762 51.3238 23.526 51.3238 23.246C51.3238 22.966 51.4198 22.734 51.6118 22.55C51.8118 22.358 52.0598 22.262 52.3558 22.262C52.6518 22.262 52.8958 22.358 53.0878 22.55C53.2878 22.734 53.3878 22.966 53.3878 23.246C53.3878 23.526 53.2878 23.762 53.0878 23.954C52.8958 24.138 52.6518 24.23 52.3558 24.23ZM53.1838 25.022V31.67H51.5038V25.022H53.1838ZM57.6156 30.122L59.2956 25.022H61.0836L58.6236 31.67H56.5836L54.1356 25.022H55.9356L57.6156 30.122ZM68.2072 28.202C68.2072 28.442 68.1912 28.658 68.1592 28.85H63.2992C63.3392 29.33 63.5072 29.706 63.8032 29.978C64.0992 30.25 64.4632 30.386 64.8952 30.386C65.5192 30.386 65.9632 30.118 66.2272 29.582H68.0392C67.8472 30.222 67.4792 30.75 66.9352 31.166C66.3912 31.574 65.7232 31.778 64.9312 31.778C64.2912 31.778 63.7152 31.638 63.2032 31.358C62.6992 31.07 62.3032 30.666 62.0152 30.146C61.7352 29.626 61.5952 29.026 61.5952 28.346C61.5952 27.658 61.7352 27.054 62.0152 26.534C62.2952 26.014 62.6872 25.614 63.1912 25.334C63.6952 25.054 64.2752 24.914 64.9312 24.914C65.5632 24.914 66.1272 25.05 66.6232 25.322C67.1272 25.594 67.5152 25.982 67.7872 26.486C68.0672 26.982 68.2072 27.554 68.2072 28.202ZM66.4672 27.722C66.4592 27.29 66.3032 26.946 65.9992 26.69C65.6952 26.426 65.3232 26.294 64.8832 26.294C64.4672 26.294 64.1152 26.422 63.8272 26.678C63.5472 26.926 63.3752 27.274 63.3112 27.722H66.4672ZM71.1135 26.054C71.3295 25.702 71.6095 25.426 71.9535 25.226C72.3055 25.026 72.7055 24.926 73.1535 24.926V26.69H72.7095C72.1815 26.69 71.7815 26.814 71.5095 27.062C71.2455 27.31 71.1135 27.742 71.1135 28.358V31.67H69.4335V25.022H71.1135V26.054ZM76.829 31.778C76.285 31.778 75.797 31.682 75.365 31.49C74.933 31.29 74.589 31.022 74.333 30.686C74.085 30.35 73.949 29.978 73.925 29.57H75.617C75.649 29.826 75.773 30.038 75.989 30.206C76.213 30.374 76.489 30.458 76.817 30.458C77.137 30.458 77.385 30.394 77.561 30.266C77.745 30.138 77.837 29.974 77.837 29.774C77.837 29.558 77.725 29.398 77.501 29.294C77.285 29.182 76.937 29.062 76.457 28.934C75.961 28.814 75.553 28.69 75.233 28.562C74.921 28.434 74.649 28.238 74.417 27.974C74.193 27.71 74.081 27.354 74.081 26.906C74.081 26.538 74.185 26.202 74.393 25.898C74.609 25.594 74.913 25.354 75.305 25.178C75.705 25.002 76.173 24.914 76.709 24.914C77.501 24.914 78.133 25.114 78.605 25.514C79.077 25.906 79.337 26.438 79.385 27.11H77.777C77.753 26.846 77.641 26.638 77.441 26.486C77.249 26.326 76.989 26.246 76.661 26.246C76.357 26.246 76.121 26.302 75.953 26.414C75.793 26.526 75.713 26.682 75.713 26.882C75.713 27.106 75.825 27.278 76.049 27.398C76.273 27.51 76.621 27.626 77.093 27.746C77.573 27.866 77.969 27.99 78.281 28.118C78.593 28.246 78.861 28.446 79.085 28.718C79.317 28.982 79.437 29.334 79.445 29.774C79.445 30.158 79.337 30.502 79.121 30.806C78.913 31.11 78.609 31.35 78.209 31.526C77.817 31.694 77.357 31.778 76.829 31.778ZM81.6761 24.23C81.3801 24.23 81.1321 24.138 80.9321 23.954C80.7401 23.762 80.6441 23.526 80.6441 23.246C80.6441 22.966 80.7401 22.734 80.9321 22.55C81.1321 22.358 81.3801 22.262 81.6761 22.262C81.9721 22.262 82.2161 22.358 82.4081 22.55C82.6081 22.734 82.7081 22.966 82.7081 23.246C82.7081 23.526 82.6081 23.762 82.4081 23.954C82.2161 24.138 81.9721 24.23 81.6761 24.23ZM82.5041 25.022V31.67H80.8241V25.022H82.5041ZM86.1199 26.402V29.618C86.1199 29.842 86.1719 30.006 86.2759 30.11C86.3879 30.206 86.5719 30.254 86.8279 30.254H87.6079V31.67H86.5519C85.1359 31.67 84.4279 30.982 84.4279 29.606V26.402H83.6359V25.022H84.4279V23.378H86.1199V25.022H87.6079V26.402H86.1199ZM88.3843 28.322C88.3843 27.65 88.5163 27.054 88.7803 26.534C89.0523 26.014 89.4163 25.614 89.8723 25.334C90.3363 25.054 90.8523 24.914 91.4203 24.914C91.9163 24.914 92.3483 25.014 92.7163 25.214C93.0923 25.414 93.3923 25.666 93.6163 25.97V25.022H95.3083V31.67H93.6163V30.698C93.4003 31.01 93.1003 31.27 92.7163 31.478C92.3403 31.678 91.9043 31.778 91.4083 31.778C90.8483 31.778 90.3363 31.634 89.8723 31.346C89.4163 31.058 89.0523 30.654 88.7803 30.134C88.5163 29.606 88.3843 29.002 88.3843 28.322ZM93.6163 28.346C93.6163 27.938 93.5363 27.59 93.3763 27.302C93.2163 27.006 93.0003 26.782 92.7283 26.63C92.4563 26.47 92.1643 26.39 91.8523 26.39C91.5403 26.39 91.2523 26.466 90.9883 26.618C90.7243 26.77 90.5083 26.994 90.3403 27.29C90.1803 27.578 90.1003 27.922 90.1003 28.322C90.1003 28.722 90.1803 29.074 90.3403 29.378C90.5083 29.674 90.7243 29.902 90.9883 30.062C91.2603 30.222 91.5483 30.302 91.8523 30.302C92.1643 30.302 92.4563 30.226 92.7283 30.074C93.0003 29.914 93.2163 29.69 93.3763 29.402C93.5363 29.106 93.6163 28.754 93.6163 28.346ZM93.3883 23.294L90.6283 24.554V23.354L93.3883 21.926V23.294ZM98.6291 26.054C98.8451 25.702 99.1251 25.426 99.4691 25.226C99.8211 25.026 100.221 24.926 100.669 24.926V26.69H100.225C99.6971 26.69 99.2971 26.814 99.0251 27.062C98.7611 27.31 98.6291 27.742 98.6291 28.358V31.67H96.9491V25.022H98.6291V26.054ZM102.653 24.23C102.357 24.23 102.109 24.138 101.909 23.954C101.717 23.762 101.621 23.526 101.621 23.246C101.621 22.966 101.717 22.734 101.909 22.55C102.109 22.358 102.357 22.262 102.653 22.262C102.949 22.262 103.193 22.358 103.385 22.55C103.585 22.734 103.685 22.966 103.685 23.246C103.685 23.526 103.585 23.762 103.385 23.954C103.193 24.138 102.949 24.23 102.653 24.23ZM103.481 25.022V31.67H101.801V25.022H103.481ZM108.093 31.778C107.453 31.778 106.877 31.638 106.365 31.358C105.853 31.07 105.449 30.666 105.153 30.146C104.865 29.626 104.721 29.026 104.721 28.346C104.721 27.666 104.869 27.066 105.165 26.546C105.469 26.026 105.881 25.626 106.401 25.346C106.921 25.058 107.501 24.914 108.141 24.914C108.781 24.914 109.361 25.058 109.881 25.346C110.401 25.626 110.809 26.026 111.105 26.546C111.409 27.066 111.561 27.666 111.561 28.346C111.561 29.026 111.405 29.626 111.092 30.146C110.789 30.666 110.373 31.07 109.845 31.358C109.325 31.638 108.741 31.778 108.093 31.778ZM108.093 30.314C108.397 30.314 108.681 30.242 108.945 30.098C109.217 29.946 109.433 29.722 109.593 29.426C109.753 29.13 109.833 28.77 109.833 28.346C109.833 27.714 109.665 27.23 109.329 26.894C109.001 26.55 108.597 26.378 108.117 26.378C107.637 26.378 107.233 26.55 106.905 26.894C106.585 27.23 106.425 27.714 106.425 28.346C106.425 28.978 106.581 29.466 106.893 29.81C107.213 30.146 107.613 30.314 108.093 30.314Z" fill="#272727"/>
</svg>
