<svg width="20" height="20" viewBox="0 0 20 20" fill="none" xmlns="http://www.w3.org/2000/svg">
<path d="M7.57382 0.115479C9.52124 0.115479 11.3889 0.889086 12.7659 2.26612C14.143 3.64315 14.9166 5.5108 14.9166 7.45822C14.9166 9.27696 14.2501 10.9488 13.1543 12.2367L13.4593 12.5417H14.3517L20 18.1899L18.3055 19.8844L12.6573 14.2361V13.3437L12.3523 13.0387C11.0644 14.1345 9.39256 14.801 7.57382 14.801C5.6264 14.801 3.75875 14.0274 2.38172 12.6503C1.00469 11.2733 0.231079 9.40564 0.231079 7.45822C0.231079 5.5108 1.00469 3.64315 2.38172 2.26612C3.75875 0.889086 5.6264 0.115479 7.57382 0.115479ZM7.57382 2.37478C4.74969 2.37478 2.49038 4.63409 2.49038 7.45822C2.49038 10.2824 4.74969 12.5417 7.57382 12.5417C10.398 12.5417 12.6573 10.2824 12.6573 7.45822C12.6573 4.63409 10.398 2.37478 7.57382 2.37478Z" fill="#B1B1B1"/>
</svg>
